<?xml version="1.0" encoding="UTF-8"?>
<svg width="36px" height="27px" viewBox="0 0 36 27" version="1.1" xmlns="http://www.w3.org/2000/svg" xmlns:xlink="http://www.w3.org/1999/xlink">
    <!-- Generator: Sketch 50.2 (55047) - http://www.bohemiancoding.com/sketch -->
    <title>id-card-2</title>
    <desc>Created with Sketch.</desc>
    <defs></defs>
    <g id="Form" stroke="none" stroke-width="1" fill="none" fill-rule="evenodd">
        <g id="form_documents2_UI_v2" transform="translate(-916.000000, -355.000000)" fill="#253667" fill-rule="nonzero">
            <g id="Group-3" transform="translate(69.000000, 198.000000)">
                <g transform="translate(45.000000, 128.000000)" id="Documnet3">
                    <g transform="translate(760.000000, 0.000000)">
                        <g id="Group-4" transform="translate(18.000000, 0.000000)">
                            <g id="id-card-2" transform="translate(24.000000, 29.000000)">
                                <path d="M33.4698,0 L2.5302,0 C1.1352,0 0,1.1352 0,2.5302 L0,23.8698 C0,25.2648 1.1352,26.4 2.5302,26.4 L33.4698,26.4 C34.8648,26.4 36,25.2648 36,23.8698 L36,2.5302 C36,1.1352 34.8648,0 33.4698,0 Z M34.8,23.8698 C34.8,24.6036 34.2036,25.2 33.4698,25.2 L2.5302,25.2 C1.7964,25.2 1.2,24.6036 1.2,23.8698 L1.2,2.5302 C1.2,1.7964 1.7964,1.2 2.5302,1.2 L33.4698,1.2 C34.2036,1.2 34.8,1.7964 34.8,2.5302 L34.8,23.8698 Z" id="Shape"></path>
                                <path d="M13.5828,16.9476 L11.4,15.8328 L11.4,15.6006 C12.3768,15.0672 13.0638,14.1888 13.4472,12.9822 C14.0286,12.6738 14.4,12.0732 14.4,11.4 L14.4,10.8 C14.4,10.2444 14.1414,9.729 13.7094,9.3906 C13.335,7.1226 11.7522,5.973 9,5.973 C8.8698,5.973 8.7426,5.9778 8.6184,5.9874 C8.1,6.03 7.341,5.985 6.684,5.5434 C6.4386,5.3778 6.2532,5.217 6.135,5.0676 C5.9334,4.8102 5.5944,4.7202 5.2938,4.8438 C4.9926,4.9674 4.8156,5.2686 4.8534,5.592 C4.8786,5.8164 4.9164,6.0774 4.9734,6.3636 C5.0892,6.9486 5.0892,6.9486 4.9266,7.2984 C4.8654,7.431 4.7898,7.5924 4.701,7.8102 C4.5024,8.2968 4.3614,8.8296 4.2804,9.3984 C3.8544,9.7374 3.6,10.2498 3.6,10.8 L3.6,11.4 C3.6,12.0732 3.9714,12.6738 4.5528,12.9822 C4.9362,14.1894 5.6232,15.0678 6.6,15.6006 L6.6,15.8262 L4.3386,16.941 C3.513,17.391 3,18.255 3,19.1958 L3,19.9908 C3,20.4726 3,21.6 9,21.6 C15,21.6 15,20.4726 15,19.9908 L15,19.2438 C15,18.2652 14.457,17.3862 13.5828,16.9476 Z M13.8,19.8552 C13.4256,20.0832 11.9028,20.4 9,20.4 C6.0972,20.4 4.5744,20.0832 4.2,19.8552 L4.2,19.1958 C4.2,18.6948 4.473,18.234 4.8912,18.0066 L7.2054,16.866 C7.5666,16.6896 7.7994,16.3158 7.7994,15.9132 L7.7994,14.8314 L7.437,14.6754 C6.5268,14.283 5.9352,13.5348 5.628,12.387 L5.5422,12.0672 L5.2266,11.9688 C4.9758,11.8902 4.8,11.6568 4.8,11.4 L4.8,10.8 C4.8,10.5828 4.9242,10.3812 5.1246,10.2744 L5.406,10.1244 L5.439,9.807 C5.4984,9.2442 5.6238,8.7252 5.8122,8.265 C5.892,8.07 5.9598,7.9242 6.015,7.8048 C6.2184,7.368 6.2922,7.1424 6.2412,6.6798 C6.9468,7.083 7.7946,7.2546 8.7144,7.1844 C8.8074,7.1766 8.9028,7.173 9.0006,7.173 C11.247,7.173 12.3438,7.9866 12.558,9.8118 L12.5952,10.125 L12.8742,10.2726 C13.0746,10.3794 13.2,10.5816 13.2,10.8 L13.2,11.4 C13.2,11.6568 13.0242,11.8902 12.7728,11.9682 L12.4572,12.0666 L12.3714,12.3864 C12.0642,13.5342 11.4726,14.2824 10.5624,14.6748 L10.2,14.8314 L10.2,15.918 C10.2,16.3194 10.422,16.6812 10.7784,16.863 L13.0434,18.0204 C13.5102,18.2532 13.8,18.7224 13.8,19.2438 L13.8,19.8552 Z" id="Shape"></path>
                                <path d="M18,9 L24,9 C24.3318,9 24.6,8.7318 24.6,8.4 C24.6,8.0682 24.3318,7.8 24,7.8 L18,7.8 C17.6682,7.8 17.4,8.0682 17.4,8.4 C17.4,8.7318 17.6682,9 18,9 Z" id="Shape"></path>
                                <path d="M26.4,9 L27,9 C27.3318,9 27.6,8.7318 27.6,8.4 C27.6,8.0682 27.3318,7.8 27,7.8 L26.4,7.8 C26.0682,7.8 25.8,8.0682 25.8,8.4 C25.8,8.7318 26.0682,9 26.4,9 Z" id="Shape"></path>
                                <path d="M18.6,18 L18,18 C17.6682,18 17.4,18.2682 17.4,18.6 C17.4,18.9318 17.6682,19.2 18,19.2 L18.6,19.2 C18.9318,19.2 19.2,18.9318 19.2,18.6 C19.2,18.2682 18.9318,18 18.6,18 Z" id="Shape"></path>
                                <path d="M22.2,18 L21,18 C20.6682,18 20.4,18.2682 20.4,18.6 C20.4,18.9318 20.6682,19.2 21,19.2 L22.2,19.2 C22.5318,19.2 22.8,18.9318 22.8,18.6 C22.8,18.2682 22.5318,18 22.2,18 Z" id="Shape"></path>
                                <path d="M25.2,18 L24.6,18 C24.2682,18 24,18.2682 24,18.6 C24,18.9318 24.2682,19.2 24.6,19.2 L25.2,19.2 C25.5318,19.2 25.8,18.9318 25.8,18.6 C25.8,18.2682 25.5318,18 25.2,18 Z" id="Shape"></path>
                                <path d="M28.8,18 L27.6,18 C27.2682,18 27,18.2682 27,18.6 C27,18.9318 27.2682,19.2 27.6,19.2 L28.8,19.2 C29.1318,19.2 29.4,18.9318 29.4,18.6 C29.4,18.2682 29.1318,18 28.8,18 Z" id="Shape"></path>
                                <path d="M30.774,18.174 C30.6654,18.2874 30.6,18.444 30.6,18.6 C30.6,18.756 30.6654,18.912 30.774,19.026 C30.8874,19.134 31.044,19.2 31.2,19.2 C31.356,19.2 31.512,19.134 31.626,19.026 C31.734,18.912 31.8,18.756 31.8,18.6 C31.8,18.444 31.734,18.2874 31.626,18.174 C31.398,17.952 30.996,17.952 30.774,18.174 Z" id="Shape"></path>
                                <path d="M31.2,11.4 L18,11.4 C17.6682,11.4 17.4,11.6682 17.4,12 C17.4,12.3318 17.6682,12.6 18,12.6 L31.2,12.6 C31.5318,12.6 31.8,12.3318 31.8,12 C31.8,11.6682 31.5318,11.4 31.2,11.4 Z" id="Shape"></path>
                                <path d="M31.2,15 L18,15 C17.6682,15 17.4,15.2682 17.4,15.6 C17.4,15.9318 17.6682,16.2 18,16.2 L31.2,16.2 C31.5318,16.2 31.8,15.9318 31.8,15.6 C31.8,15.2682 31.5318,15 31.2,15 Z" id="Shape"></path>
                            </g>
                        </g>
                    </g>
                </g>
            </g>
        </g>
    </g>
</svg>