<?xml version="1.0" encoding="UTF-8"?>
<svg width="53px" height="48px" viewBox="0 0 53 48" version="1.1" xmlns="http://www.w3.org/2000/svg" xmlns:xlink="http://www.w3.org/1999/xlink">
    <!-- Generator: Sketch 50.2 (55047) - http://www.bohemiancoding.com/sketch -->
    <title>warning</title>
    <desc>Created with Sketch.</desc>
    <defs></defs>
    <g id="Form" stroke="none" stroke-width="1" fill="none" fill-rule="evenodd">
        <g id="form_popup2_UI_v1" transform="translate(-657.000000, -279.000000)" fill-rule="nonzero">
            <g id="icon" transform="translate(635.000000, 255.000000)">
                <g id="warning" transform="translate(22.000000, 24.000000)">
                    <path d="M26.1766816,33.7272108 C24.7130045,33.7272108 23.4860987,34.9541166 23.4860987,36.4177937 C23.4860987,37.8814709 24.7130045,39.1083767 26.1766816,39.1083767 C27.5865471,39.1083767 28.8672646,37.8814709 28.8026906,36.4823677 C28.8672646,34.9433543 27.6511211,33.7272108 26.1766816,33.7272108 Z" id="Shape" fill="#000000"></path>
                    <path d="M51.0807175,43.2626368 C52.7704036,40.3460448 52.7811659,36.8698117 51.1022422,33.9639821 L34.2484305,4.77653812 C32.5802691,1.83842152 29.5668161,0.0949237668 26.1874439,0.0949237668 C22.8080717,0.0949237668 19.7946188,1.84918386 18.1264574,4.76577578 L1.25112108,33.9855067 C-0.427802691,36.9236233 -0.417040359,40.4213812 1.28340807,43.3379731 C2.96233184,46.222278 5.96502242,47.9550135 9.32286996,47.9550135 L42.9874439,47.9550135 C46.3560538,47.9550135 49.3802691,46.2007534 51.0807175,43.2626368 Z M47.4215247,41.1532197 C46.4852018,42.7675695 44.8278027,43.725417 42.9766816,43.725417 L9.31210762,43.725417 C7.48251121,43.725417 5.83587444,42.7890942 4.92107623,41.2070314 C3.9955157,39.6034439 3.98475336,37.6877489 4.9103139,36.0733991 L21.7856502,6.86443049 C22.7004484,5.26084305 24.3363229,4.31375785 26.1874439,4.31375785 C28.0278027,4.31375785 29.6744395,5.27160538 30.5892377,6.87519283 L47.4538117,36.0841614 C48.3578475,37.6554619 48.3470852,39.5496323 47.4215247,41.1532197 Z" id="Shape" fill="#253667"></path>
                    <path d="M25.509417,14.8393184 C24.2286996,15.2052377 23.432287,16.3675695 23.432287,17.777435 C23.496861,18.6276592 23.5506726,19.4886457 23.6152466,20.33887 C23.7982063,23.5783318 23.9811659,26.7532197 24.1641256,29.9926816 C24.2286996,31.0904395 25.0789238,31.886852 26.1766816,31.886852 C27.2744395,31.886852 28.135426,31.0366278 28.1892377,29.9281076 C28.1892377,29.260843 28.1892377,28.6473901 28.2538117,27.9693632 C28.3721973,25.8922332 28.5013453,23.8151031 28.6197309,21.7379731 C28.6843049,20.3926816 28.8026906,19.0473901 28.8672646,17.7020987 C28.8672646,17.2177937 28.8026906,16.7873004 28.6197309,16.3568072 C28.070852,15.151426 26.7901345,14.5379731 25.509417,14.8393184 Z" id="Shape" fill="#253667"></path>
                </g>
            </g>
        </g>
    </g>
</svg>