<?xml version="1.0" encoding="UTF-8"?>
<svg width="50px" height="50px" viewBox="0 0 50 50" version="1.1" xmlns="http://www.w3.org/2000/svg" xmlns:xlink="http://www.w3.org/1999/xlink">
    <!-- Generator: Sketch 50.2 (55047) - http://www.bohemiancoding.com/sketch -->
    <title>Blue tokai</title>
    <desc>Created with Sketch.</desc>
    <defs></defs>
    <g id="Home-Page" stroke="none" stroke-width="1" fill="none" fill-rule="evenodd">
        <g id="lexstart_homepage_UI_v4" transform="translate(-1056.000000, -2903.000000)">
            <g id="Group-29" transform="translate(244.000000, 2893.000000)">
                <g id="Blue-tokai" transform="translate(795.000000, 0.000000)">
                    <rect id="Rectangle-12" x="0" y="0" width="83" height="70"></rect>
                    <g id="Blue-Tokai" transform="translate(17.000000, 10.000000)">
                        <path d="M27.8300842,8.14079422 C27.8300842,8.14079422 27.7800842,8.14079422 27.8300842,8.14079422 C27.7800842,8.14079422 27.8300842,8.14079422 27.8300842,8.14079422 Z" id="Shape"></path>
                        <path d="M33.765704,17.833935 C33.865704,17.6534296 33.815704,17.4368231 33.465704,17.2021661 C33.815704,17.4368231 33.865704,17.6534296 33.765704,17.833935 Z" id="Shape"></path>
                        <path d="M31.4315884,6.84115523 C31.3815884,6.89115523 31.3315884,6.94115523 31.2815884,6.99115523 C31.3315884,6.94115523 31.3815884,6.89115523 31.4315884,6.84115523 Z" id="Shape"></path>
                        <path d="M31.2774368,6.93140794 C31.2774368,6.93140794 31.2274368,6.98140794 31.2274368,6.98140794 C31.2274368,6.93140794 31.2274368,6.93140794 31.2774368,6.93140794 Z" id="Shape"></path>
                        <path d="M33.1949458,10.433213 C33.8086643,10.7761733 33.7725632,11.2274368 33.3754513,11.299639 C33.7725632,11.2454874 33.8267148,10.7761733 33.1949458,10.433213 C33.1227437,10.3790614 33.032491,10.3429603 32.9422383,10.3068592 C33.032491,10.3429603 33.1227437,10.3971119 33.1949458,10.433213 Z" id="Shape"></path>
                        <path d="M32.7617329,10.234657 C32.9117329,10.284657 33.0617329,10.334657 33.1617329,10.434657 C33.0117329,10.334657 32.8617329,10.284657 32.7617329,10.234657 Z" id="Shape"></path>
                        <path d="M32.0938628,9.96389892 C32.2438628,10.0138989 32.3438628,10.0638989 32.4938628,10.1138989 C32.3938628,10.0638989 32.2438628,10.0138989 32.0938628,9.96389892 Z" id="Shape"></path>
                        <path d="M30.5415162,9.4765343 C30.5415162,9.4765343 30.5415162,9.4765343 30.5415162,9.4765343 C30.5776173,9.49576507 31.299639,9.68807276 32.0397112,9.9765343 C31.2815884,9.68807276 30.5415162,9.4765343 30.5415162,9.4765343 Z" id="Shape"></path>
                        <path d="M32.3465704,10.0541516 C32.4465704,10.1041516 32.5465704,10.1541516 32.6465704,10.1541516 C32.5465704,10.1541516 32.4465704,10.1041516 32.3465704,10.0541516 Z" id="Shape"></path>
                        <path d="M32.5631769,10.1444043 C32.6631769,10.1944043 32.7631769,10.2444043 32.9131769,10.2944043 C32.7631769,10.2444043 32.6631769,10.1944043 32.5631769,10.1444043 Z" id="Shape"></path>
                        <path d="M30.5595668,5.84837545 C30.866426,5.84837545 31.0830325,5.68592058 31.4079422,6.02888087 C31.5523466,6.1732852 31.5523466,6.57039711 31.3357401,6.84115523 C31.5523466,6.58844765 31.5703971,6.1732852 31.4259928,6.02888087 C31.0830325,5.68592058 30.866426,5.84837545 30.5595668,5.84837545 C30.0541516,5.84837545 29.7833935,5.25270758 29.6028881,4.89169675 C29.5126354,4.67509025 29.4043321,4.45848375 29.2960289,4.2599278 C29.4223827,4.45848375 29.5126354,4.67509025 29.6028881,4.89169675 C29.765343,5.27075812 30.0361011,5.84837545 30.5595668,5.84837545 Z" id="Shape"></path>
                        <polygon id="Shape" points="25.234657 13.7725632 22.8158845 13.7725632"></polygon>
                        <polygon id="Shape" points="25.1624549 18.6227437 25.4124549 18.1227437"></polygon>
                        <rect id="Rectangle-path" transform="translate(24.484577, 17.818628) rotate(-74.935342) translate(-24.484577, -17.818628) " x="24.3595771" y="16.934182" width="1" height="1.76889237"></rect>
                        <path d="M26.2635379,2.61732852 C25.9747292,2.52707581 25.3971119,2.45487365 25.3068592,2.41877256 C25.3068592,2.41877256 25.2888087,2.41877256 25.2888087,2.41877256 C25.3068592,2.4368231 25.9386282,2.52707581 26.2635379,2.61732852 C26.4440433,2.68953069 26.6425993,2.81588448 26.8050542,3.03249097 C26.6425993,2.81588448 26.4440433,2.67148014 26.2635379,2.61732852 Z" id="Shape"></path>
                        <rect id="Rectangle-path" transform="translate(24.330877, 15.694397) rotate(-74.935342) translate(-24.330877, -15.694397) " x="24.2058767" y="14.9543503" width="1" height="1.48009361"></rect>
                        <path d="M28.465704,2.92978339 C28.6281588,3.02978339 28.8086643,3.02978339 29.0252708,2.77978339 C28.8086643,2.97978339 28.6281588,2.97978339 28.465704,2.92978339 Z" id="Shape"></path>
                        <path d="M28.1046931,4.09747292 C28.0144404,4.45848375 27.7617329,4.76534296 27.6173285,5.14440433 C27.4909747,5.46931408 27.3826715,5.81227437 27.3285199,6.15523466 C27.166065,7.20216606 27.5451264,7.54512635 27.7256318,7.81588448 C27.833935,7.97833935 27.833935,8.0866426 27.7978339,8.14079422 C27.833935,8.0866426 27.8519856,7.97833935 27.7256318,7.79783394 C27.5451264,7.52707581 27.166065,7.20216606 27.3285199,6.13718412 C27.3826715,5.79422383 27.4729242,5.45126354 27.6173285,5.12635379 C27.7617329,4.74729242 28.032491,4.44043321 28.1046931,4.09747292 C28.1949458,3.75451264 28.1768953,3.57400722 28.267148,3.53790614 C28.267148,3.53790614 28.267148,3.53790614 28.267148,3.53790614 C28.1588448,3.55595668 28.1949458,3.73646209 28.1046931,4.09747292 Z" id="Shape"></path>
                        <path d="M27.5090253,8.59205776 L27.3285199,8.53790614 C27.2924188,8.68231047 27.2563177,8.8267148 27.1841155,8.95306859 C27.1480144,8.97111913 26.967509,8.75451264 26.8231047,8.50180505 C26.967509,8.77256318 27.166065,8.98916968 27.1841155,8.95306859 C27.2382671,8.8267148 27.2924188,8.68231047 27.3285199,8.53790614 L27.5090253,8.59205776 L27.5270758,8.12274368 L27.5631769,8.12274368 L27.5270758,8.12274368 L27.5090253,8.59205776 Z" id="Shape"></path>
                        <path d="M36.4051529,13.3393502 C36.7496841,13.3032491 36.7496841,12.8158845 36.1371841,12.3285199 C36.7496841,12.8158845 36.7496841,13.2851986 36.4051529,13.3393502 Z" id="Shape"></path>
                        <path d="M30.8483755,2.70758123 C30.7400722,3.01444043 30.4512635,3.21299639 30.1263538,3.19494585 C29.6028881,3.19494585 29.2960289,2.97833935 29.0613718,2.99638989 C28.8808664,3.01444043 28.7725632,3.06859206 28.8086643,3.14079422 C28.7906137,3.06859206 28.898917,3.01444043 29.0613718,2.99638989 C29.2960289,2.96028881 29.6028881,3.19494585 30.1263538,3.19494585 C30.4512635,3.21299639 30.7400722,3.01444043 30.8483755,2.70758123 C30.9205776,2.41877256 30.7220217,2.20216606 30.4512635,2.1299639 C30.7220217,2.20216606 30.9205776,2.41877256 30.8483755,2.70758123 Z" id="Shape"></path>
                        <path d="M30.4512635,5.10830325 C30.3068592,5 30.2527076,4.92779783 30.1444043,4.62093863 C30.0361011,4.33212996 29.8736462,4.06137184 29.6570397,3.84476534 C29.4765343,3.70036101 29.2779783,3.57400722 29.0613718,3.48375451 C29.0613718,3.48375451 28.6281588,3.33935018 28.5559567,3.41155235 C28.5379061,3.42960289 28.5379061,3.42960289 28.5559567,3.44765343 C28.5559567,3.44765343 28.5559567,3.42960289 28.5559567,3.42960289 C28.6281588,3.35740072 29.0613718,3.50180505 29.0613718,3.50180505 C29.2779783,3.59205776 29.4765343,3.71841155 29.6570397,3.86281588 C29.8736462,4.07942238 30.0361011,4.35018051 30.1444043,4.63898917 C30.2707581,4.94584838 30.3068592,5.01805054 30.4512635,5.10830325 C30.5956679,5.23465704 31.101083,5.19855596 31.299639,5 C31.3898917,4.90974729 31.4620939,4.80144404 31.4981949,4.67509025 C31.5162455,4.62093863 31.5162455,4.566787 31.5162455,4.53068592 C31.4981949,4.71119134 31.4259928,4.87364621 31.299639,5 C31.101083,5.19855596 30.6137184,5.2166065 30.4512635,5.10830325 Z" id="Shape"></path>
                        <path d="M37.5812274,37.6353791 C36.3718412,35.3790614 39.0974729,34.133574 41.0649819,29.5126354 C43.3574007,24.1696751 41.5523466,18.7906137 41.4801444,18.5740072 C41.4801444,18.5740072 41.4801444,18.5559567 41.4620939,18.5559567 C41.4620939,18.5559567 43.3935018,24.0433213 41.0469314,29.5126354 C39.0794224,34.1155235 36.3718412,35.3790614 37.5812274,37.6353791 Z" id="Shape"></path>
                        <path d="M28.532491,30.8122744 C28.251241,30.6498195 28.094991,30.433213 28.032491,30.198556 C28.094991,30.4512635 28.251241,30.6498195 28.532491,30.8122744 Z" id="Shape"></path>
                        <path d="M29.6389892,27.1480144 C29.33213,26.9133574 29.1155235,26.4079422 29.2057762,25.5776173 C29.3501805,23.9891697 29.7472924,22.4368231 30.3790614,20.9747292 C30.3790614,20.9747292 30.3790614,20.9747292 30.3790614,20.9747292 C29.7472924,22.4368231 29.3501805,23.9891697 29.2057762,25.5776173 C29.1155235,26.4079422 29.3140794,26.9133574 29.6389892,27.1480144 Z" id="Shape"></path>
                        <path d="M34.7472924,14.4584838 C34.7472924,14.4584838 34.7472924,14.4584838 34.7472924,14.4584838 C34.7472924,14.4584838 35.0541516,15 35.4873646,15.8483755 C35.0902527,15.0722022 34.7833935,14.5487365 34.7472924,14.4584838 Z" id="Shape"></path>
                        <path d="M37.7075812,22.4909747 C37.7256318,24.133574 35.9566787,24.4043321 35.4873646,22.2202166 C35.3068592,21.4079422 35.1263538,20.6137184 34.9638989,19.8916968 C35.1263538,20.5956679 35.3068592,21.3898917 35.4873646,22.2202166 C35.9566787,24.4223827 37.7075812,24.1516245 37.7075812,22.4909747 Z" id="Shape"></path>
                        <path d="M32.599278,24.8736462 C33.4296029,25.2166065 34.6209386,24.4945848 34.5306859,22.8880866 C34.6209386,24.4945848 33.4296029,25.2166065 32.599278,24.8736462 Z" id="Shape"></path>
                        <path d="M31.6787004,15.0902527 C31.6787004,15.0902527 31.6787004,15.0902527 31.6787004,15.0902527 C31.6787004,15.0902527 31.8605185,15.2902527 32.1787004,15.5902527 C31.8605185,15.2402527 31.6787004,15.0902527 31.6787004,15.0902527 Z" id="Shape"></path>
                        <path d="M29.368231,13.1046931 C29.7111913,13.6642599 30.1624549,13.4476534 30.1624549,13.032491 C30.1624549,13.4476534 29.7111913,13.6642599 29.368231,13.1046931 C28.9350181,12.400722 28.8086643,11.2093863 28.8086643,11.1913357 C28.8086643,11.2093863 28.9169675,12.3826715 29.368231,13.1046931 Z" id="Shape"></path>
                        <path d="M30.1263538,20.4693141 C29.6931408,20.8303249 29.0974729,20.4693141 29.2960289,19.2960289 C29.4765343,18.032491 29.4584838,16.732852 29.2779783,15.4693141 C29.2779783,15.4693141 29.2779783,15.4693141 29.2779783,15.4693141 C29.4765343,16.732852 29.4765343,18.032491 29.2960289,19.3140794 C29.0974729,20.4693141 29.6931408,20.8303249 30.1263538,20.4693141 Z" id="Shape"></path>
                        <path d="M30.3429603,16.3537906 C30.4693141,16.6425993 30.7039711,16.8050542 30.9205776,16.8050542 C30.7220217,16.8050542 30.4693141,16.6425993 30.3429603,16.3537906 C30,15.5776173 29.6750903,13.9169675 29.6750903,13.8808664 C29.6750903,13.8808664 29.6750903,13.8808664 29.6750903,13.8808664 C29.6750903,13.898917 30,15.5956679 30.3429603,16.3537906 Z" id="Shape"></path>
                        <path d="M32.4909747,17.5812274 C32.2382671,16.9314079 31.967509,16.0469314 31.8050542,15.5234657 C31.967509,16.0469314 32.2382671,16.9494585 32.4909747,17.5812274 Z" id="Shape"></path>
                        <path d="M32.833935,11.6245487 C33.5920578,11.8772563 34.2779783,12.2743682 34.8916968,12.7797834 C35.2527076,13.0866426 35.3971119,13.3935018 35.3790614,13.6101083 C35.3971119,13.3935018 35.2527076,13.0866426 34.8916968,12.7797834 C34.2779783,12.2743682 33.5920578,11.8772563 32.833935,11.6245487 C32.833935,11.6245487 32.833935,11.6245487 32.833935,11.6245487 Z" id="Shape"></path>
                        <path d="M36.3718412,24.6570397 C36.3718412,24.6570397 36.3718412,24.6750903 36.3537906,24.6931408 C36.2635379,25.2166065 34.9638989,33.3032491 31.0469314,35.8483755 C30.6137184,36.1191336 30.234657,36.3176895 29.8736462,36.4259928 C30.234657,36.299639 30.631769,36.1191336 31.0469314,35.8303249 C35.1083032,33.2310469 36.3718412,24.6570397 36.3718412,24.6570397 Z" id="Shape"></path>
                        <path d="M32.9783394,14.1696751 C33.5740072,14.4584838 34.0794224,14.8736462 34.4765343,15.3971119 C34.0794224,14.8736462 33.5559567,14.4584838 32.9783394,14.1696751 C32.9783394,14.1516245 32.9783394,14.1696751 32.9783394,14.1696751 Z" id="Shape"></path>
                        <path d="M37.2743682,34.0794224 C37.2743682,34.0794224 37.2743682,34.0613718 37.2743682,34.0794224 C37.2743682,34.0613718 34.2418773,37.5090253 29.7292419,37.5631769 C34.1155235,37.5090253 37.0938628,34.2779783 37.2743682,34.0794224 Z" id="Shape"></path>
                        <path d="M29.1516245,10.4805054 C29.2516245,10.3805054 29.3016245,10.3305054 29.4016245,10.1805054 C29.3516245,10.3305054 29.2516245,10.4305054 29.1516245,10.4805054 Z" id="Shape"></path>
                        <path d="M26.9855596,9.24187726 C26.9855596,9.24187726 26.9855596,9.24187726 26.9855596,9.24187726 C27.0577617,9.7833935 27.2202166,10.3068592 27.4368231,10.8122744 C27.599278,11.1552347 27.5270758,11.3898917 27.3646209,11.4259928 C27.5270758,11.3898917 27.599278,11.1552347 27.4368231,10.8122744 C27.2202166,10.3249097 27.0577617,9.7833935 26.9855596,9.24187726 Z" id="Shape"></path>
                        <path d="M29.2418773,10.4819495 C29.3418773,10.3569495 29.3418773,10.1902828 29.3418773,9.98194946 C29.3418773,10.1486161 29.2918773,10.3152828 29.2418773,10.4819495 Z" id="Shape"></path>
                        <path d="M36.8592058,18.5559567 C36.6606498,18.1407942 36.4620939,17.7256318 36.2635379,17.3285199 C36.4620939,17.7256318 36.6606498,18.1407942 36.8592058,18.5559567 C37.6353791,20.1805054 38.8086643,19.4765343 38.3935018,17.9783394 C38.7906137,19.4765343 37.6173285,20.1805054 36.8592058,18.5559567 Z" id="Shape"></path>
                        <path d="M37.2563177,33.2851986 C36.5703971,33.8929402 35.9205776,33.9163149 35.4873646,33.5189453 C35.9205776,33.9163149 36.5703971,33.8929402 37.2563177,33.2851986 Z" id="Shape"></path>
                        <path d="M29.1516245,9.71119134 C29.3516245,9.877858 29.4516245,10.0445247 29.5016245,10.2111913 C29.4516245,10.0445247 29.3516245,9.877858 29.1516245,9.71119134 Z" id="Shape"></path>
                        <path d="M33.0866426,12.7617329 C33.5559567,13.2310469 33.3574007,13.700361 33.0144404,13.7545126 C33.3574007,13.700361 33.5559567,13.2310469 33.0866426,12.7617329 C32.5631769,12.2924188 31.9855596,11.9133574 31.3537906,11.6245487 C31.967509,11.9133574 32.5631769,12.2924188 33.0866426,12.7617329 Z" id="Shape"></path>
                        <path d="M33.9169675,16.2454874 C34.2599278,16.8262404 34.6028881,16.8514905 34.7472924,16.5737391 C34.5848375,16.8514905 34.2599278,16.8262404 33.9169675,16.2454874 Z" id="Shape"></path>
                        <path d="M31.534296,4.40433213 C31.534296,4.45433213 31.534296,4.45433213 31.534296,4.50433213 C31.534296,4.45433213 31.534296,4.40433213 31.534296,4.40433213 Z" id="Shape"></path>
                        <path d="M10.3971119,22.8880866 C10.3971119,23.9350181 10.9386282,24.801444 11.7870036,24.801444 C10.9566787,24.801444 10.3971119,23.9350181 10.3971119,22.8880866 Z" id="Shape"></path>
                        <path d="M11.7870036,20.9747292 C12.0397112,20.9747292 12.2743682,21.1830626 12.4548736,21.4747292 C12.2743682,21.1413959 12.0397112,20.9747292 11.7870036,20.9747292 Z" id="Shape"></path>
                        <path d="M11.7870036,24.801444 C12.2563177,24.801444 12.6173285,24.5487365 12.8519856,24.133574 C12.6173285,24.5306859 12.2563177,24.801444 11.7870036,24.801444 Z" id="Shape"></path>
                        <path d="M31.534296,14.6639796 C31.4981949,14.6072255 31.4620939,14.5693895 31.4079422,14.5126354 C31.4440433,14.5693895 31.4981949,14.6261435 31.534296,14.6639796 C31.7870036,14.9855861 32.0397112,15.0612582 32.2021661,14.9855861 C32.0397112,15.0612582 31.7870036,14.9855861 31.534296,14.6639796 Z" id="Shape"></path>
                        <path d="M30.3610108,9.49458484 C30.3610108,9.38628159 30.2888087,9.27797834 30.1263538,9.16967509 C30.0180505,9.07942238 29.8736462,9.00722022 29.7292419,8.93501805 C29.8736462,9.00722022 30.0180505,9.09747292 30.1263538,9.16967509 C30.2888087,9.27797834 30.3429603,9.38628159 30.3610108,9.49458484 Z" id="Shape"></path>
                        <path d="M11.8231047,20.4693141 C11.8231047,20.4693141 11.8231047,20.4873646 11.8231047,20.4693141 C12.400722,20.4693141 12.8519856,20.6498195 13.1949458,20.9747292 C12.8700361,20.66787 12.400722,20.4693141 11.8231047,20.4693141 Z" id="Shape"></path>
                        <path d="M11.732852,25.3068592 C10.4512635,25.3068592 9.71119134,24.2418773 9.71119134,22.9422383 C9.71119134,24.2418773 10.433213,25.3068592 11.732852,25.3068592 Z" id="Shape"></path>
                        <polygon id="Shape" points="10.683213 14.4223827 10.683213 14.4223827 10.433213 13.7725632 10.433213 13.7725632"></polygon>
                        <path d="M12.9380866,24.0794224 C12.9380866,24.0794224 12.9380866,24.1294224 12.8880866,24.1294224 C12.8880866,24.1294224 12.8880866,24.0794224 12.9380866,24.0794224 Z" id="Shape"></path>
                        <path d="M13.700361,23.8086643 C13.8086643,23.5198556 13.8628159,23.1949458 13.8628159,22.8519856 C13.8628159,22.166065 13.700361,21.5703971 13.3574007,21.1552347 C13.700361,21.5703971 13.8628159,22.166065 13.8628159,22.8519856 C13.8628159,23.1949458 13.8086643,23.5198556 13.700361,23.8086643 Z" id="Shape"></path>
                        <path d="M13.2310469,20.9927798 C13.3310469,21.0927798 13.4310469,21.1927798 13.5310469,21.3427798 C13.4310469,21.2427798 13.3310469,21.0927798 13.2310469,20.9927798 Z" id="Shape"></path>
                        <path d="M28.1949458,8.35740072 C28.1949458,8.35740072 28.1949458,8.35740072 28.1949458,8.35740072 C28.2310469,8.40285527 28.4837545,8.58467345 28.8267148,8.85740072 C28.465704,8.5392189 28.1949458,8.35740072 28.1949458,8.35740072 Z" id="Shape"></path>
                        <path d="M28.5559567,42.0036101 C25.0902527,42.2743682 25.9566787,45.9566787 29.3501805,45.9025271 C25.9566787,45.9566787 25.0902527,42.2743682 28.5559567,42.0036101 Z" id="Shape"></path>
                        <path d="M28.5018051,10.9025271 C28.5018051,10.7942238 28.465704,10.66787 28.3935018,10.5415162 C28.1407942,10.0541516 27.8158845,9.58483755 27.4548736,9.15162455 C27.4548736,9.15162455 27.4548736,9.15162455 27.4548736,9.16967509 C27.8158845,9.60288809 28.1227437,10.0541516 28.3754513,10.5415162 C28.465704,10.6859206 28.4837545,10.7942238 28.5018051,10.9025271 Z" id="Shape"></path>
                        <polygon id="Shape" points="24.9777978 25.2944043 24.9277978 25.1444043"></polygon>
                        <path d="M38.6281588,38.8267148 C38.6281588,38.8086643 38.6462094,38.8086643 38.6281588,38.8267148 C38.6281588,38.8267148 37.2743682,40.4873646 34.33213,41.4259928 C37.1480144,40.5234657 38.5198556,38.9711191 38.6281588,38.8267148 Z" id="Shape"></path>
                        <rect id="Rectangle-path" x="5.70397112" y="20.5595668" width="3.64620939" height="1"></rect>
                        <polygon id="Shape" points="20.1805054 23.9891697 19.7111913 25.198556 19.1155235 25.198556 19.1155235 25.2166065 19.7292419 25.2166065 20.1805054 23.9891697 21.9133574 24.0072202 21.8953069 23.9891697"></polygon>
                        <rect id="Rectangle-path" x="7.20216606" y="25.2166065" width="1" height="1"></rect>
                        <path d="M33.5018051,41.7384477 C33.6836232,41.6884477 33.8199869,41.6384477 34.0018051,41.5884477 C33.8199869,41.6384477 33.6381687,41.6884477 33.5018051,41.7384477 Z" id="Shape"></path>
                        <path d="M33.9169675,41.6940433 C34.0934381,41.5940433 34.2699087,41.5440433 34.4169675,41.4440433 C34.2699087,41.5440433 34.0934381,41.6440433 33.9169675,41.6940433 Z" id="Shape"></path>
                        <path d="M33.0505415,41.782852 C33.1005415,41.782852 33.2005415,41.732852 33.2505415,41.732852 C33.1505415,41.732852 33.1005415,41.782852 33.0505415,41.782852 Z" id="Shape"></path>
                        <path d="M28.6823105,42.0355596 C28.8361566,42.0355596 29.0284643,41.9855596 29.1823105,41.9855596 C29.0284643,41.9855596 28.8361566,41.9855596 28.6823105,42.0355596 Z" id="Shape"></path>
                        <path d="M27.9241877,37.4187726 C26.1371841,37.2743682 25.3249097,38.1407942 25.3068592,39.0613718 C25.3249097,38.1407942 26.1552347,37.2743682 27.9241877,37.4187726 Z" id="Shape"></path>
                        <polygon id="Shape" points="17.8880866 16.7509025 17.8880866 16.7509025 17.8880866 14.4223827 17.7978339 13.7725632 18.5198556 13.7725632 18.5198556 13.7725632 17.7978339 13.7725632 17.8880866 14.4223827"></polygon>
                        <polygon id="Shape" points="15.7581227 22.8700361 17.5270758 25.2166065 15.7581227 22.8519856"></polygon>
                        <polygon id="Shape" points="15.0361011 20.5595668 15.2861011 21.2093863"></polygon>
                        <rect id="Rectangle-path" x="15.1263538" y="25.2166065" width="1" height="1"></rect>
                        <path d="M19.7292419,17.9963899 C20.433213,17.9963899 20.9205776,17.3826715 20.9205776,16.6425993 C20.9025271,17.400722 20.4151625,17.9963899 19.7292419,17.9963899 C19.0433213,17.9963899 18.5198556,17.4368231 18.5198556,16.6967509 C18.5198556,17.4368231 19.0252708,17.9963899 19.7292419,17.9963899 Z" id="Shape"></path>
                        <path d="M29.0740072,14.7987365 C28.9240072,14.7487365 28.7240072,14.6487365 28.5740072,14.5487365 C28.7240072,14.6487365 28.9240072,14.7487365 29.0740072,14.7987365 Z" id="Shape"></path>
                        <polygon id="Shape" points="20.3790614 23.465704 21.3898917 23.465704"></polygon>
                        <polygon id="Shape" points="21.1552347 21.8411552 21.0830325 21.5523466 21.0830325 21.5703971 21.1552347 21.8411552 21.732852 23.465704 21.732852 23.465704"></polygon>
                        <path d="M29.2599278,14.1516245 C29.2599278,14.2516245 29.2599278,14.3516245 29.2599278,14.4516245 C29.2599278,14.3516245 29.2599278,14.2516245 29.2599278,14.1516245 Z" id="Shape"></path>
                        <polygon id="Shape" points="21.3357401 20.4693141 22.7617329 24.4404332 23.1227437 25.2166065 22.3646209 25.198556 22.3826715 25.2166065 23.1407942 25.2166065 22.7797834 24.4404332"></polygon>
                        <path d="M12.1841155,15.7039711 C12.4841155,15.5054152 12.6507822,15.2527076 12.6841155,14.9819495 C12.6841155,15.2527076 12.4841155,15.5054152 12.1841155,15.7039711 C12.1841155,15.7039711 12.1841155,15.7039711 12.1841155,15.7039711 Z" id="Shape"></path>
                        <path d="M40.398556,18.8086643 C40.348556,18.8086643 40.298556,18.8586643 40.198556,18.8586643 C40.298556,18.8586643 40.348556,18.8586643 40.398556,18.8086643 Z" id="Shape"></path>
                        <polygon id="Shape" points="14.6209386 18.4296029 14.6209386 18.4296029 16.9314079 18.4296029 17.0758123 17.8880866 16.9314079 18.4296029"></polygon>
                        <path d="M30.4873646,12.4909747 C30.4873646,12.4909747 30.5373646,12.5909747 30.5373646,12.7409747 C30.5373646,12.5909747 30.4873646,12.5409747 30.4873646,12.4909747 C30.4873646,12.4909747 30.4873646,12.4909747 30.4873646,12.4909747 Z" id="Shape"></path>
                        <path d="M13.0685921,14.8375451 C13.0685921,15.234657 12.7256318,15.631769 12.5451264,15.8122744 C12.5451264,15.8122744 12.5451264,15.8122744 12.5451264,15.8122744 C12.7256318,15.631769 13.0685921,15.234657 13.0685921,14.8375451 C13.0685921,14.368231 12.7978339,14.0252708 12.3826715,13.8628159 C12.7978339,14.0252708 13.0685921,14.368231 13.0685921,14.8375451 Z" id="Shape"></path>
                        <path d="M13.3212996,16.9855596 C13.3212996,17.7436823 12.8700361,18.4296029 11.5884477,18.4296029 L10.5234657,18.4296029 L11.5884477,18.4296029 C12.8880866,18.4296029 13.3393502,17.7436823 13.3212996,16.9855596 C13.3212996,16.4801444 13.1407942,16.1913357 12.8519856,15.9927798 C13.1407942,16.1913357 13.3212996,16.4801444 13.3212996,16.9855596 Z" id="Shape"></path>
                        <path d="M39.133574,17.7075812 C38.7725632,15.6137184 36.534296,13.8086643 36.534296,13.8086643 C36.534296,13.8086643 38.7725632,15.6137184 39.133574,17.7075812 C39.2960289,18.6281588 39.7833935,18.9350181 40.198556,18.8447653 C39.7833935,18.9530686 39.2960289,18.6281588 39.133574,17.7075812 Z" id="Shape"></path>
                        <polygon id="Shape" points="15.7581227 22.7797834 17.1841155 21.0288809 17.400722 20.5595668 18.3032491 20.5595668 18.3032491 20.5595668 17.400722 20.5595668 17.1841155 21.0288809 15.7581227 22.7617329"></polygon>
                        <path d="M11.1552347,15.6498195 L11.1552347,14.2779783 C11.2635379,14.2599278 11.3718412,14.2599278 11.4620939,14.2599278 C11.4620939,14.2599278 11.4620939,14.2599278 11.4620939,14.2599278 C11.3718412,14.2599278 11.2635379,14.2599278 11.1552347,14.2779783 L11.1552347,15.6498195 L11.6606498,15.6498195 C11.8231047,15.6498195 11.9855596,15.66787 12.1480144,15.7039711 C11.9855596,15.66787 11.8231047,15.6498195 11.6606498,15.6498195 L11.1552347,15.6498195 Z" id="Shape"></path>
                        <path d="M11.6787004,17.9241877 L11.1552347,17.9241877 L11.6787004,17.9241877 C12.4368231,17.9241877 12.6534296,17.4909747 12.6534296,17.0577617 C12.6534296,17.0577617 12.6534296,17.0577617 12.6534296,17.0577617 C12.6534296,17.4729242 12.4368231,17.9241877 11.6787004,17.9241877 Z" id="Shape"></path>
                        <path d="M31.0288809,11.101083 C31.5162455,11.6967509 31.967509,11.0649819 31.4981949,10.6137184 C31.0288809,10.1624549 30.0361011,10.0902527 30.0361011,10.0902527 C30.3790614,10.4151625 30.7220217,10.7400722 31.0288809,11.101083 Z" id="Shape" fill="#0FB3C6" fill-rule="nonzero"></path>
                        <path d="M36.3537906,24.6931408 C36.2093863,25.1444043 34.1877256,31.0288809 29.6570397,32.5090253 C26.4801444,33.5559567 26.967509,37.400722 29.8736462,36.4259928 C30.234657,36.299639 30.6137184,36.1191336 31.0469314,35.8483755 C34.9638989,33.3032491 36.2815884,25.2166065 36.3537906,24.6931408 Z" id="Shape" fill="#0FB3C6" fill-rule="nonzero"></path>
                        <path d="M37.2563177,33.2851986 C37.7436823,32.9422383 38.2310469,32.3826715 38.6642599,31.534296 C42.1841155,24.6931408 39.1696751,19.1516245 39.1696751,19.1516245 C39.1696751,19.1516245 40.1624549,25.4151625 35.8844765,30.4873646 C34.7472924,31.8411552 34.8555957,33.0144404 35.4873646,33.4837545 C35.9205776,33.7545126 36.5703971,33.7545126 37.2563177,33.2851986 Z" id="Shape" fill="#0FB3C6" fill-rule="nonzero"></path>
                        <path d="M28.5018051,10.9025271 C28.4837545,10.7942238 28.465704,10.66787 28.3935018,10.5415162 C28.1407942,10.0541516 27.8158845,9.58483755 27.4729242,9.16967509 C27.4909747,9.2599278 27.7075812,10.7942238 27.9241877,11.1913357 C28.1046931,11.5162455 28.5379061,11.3537906 28.5018051,10.9025271 Z" id="Shape" fill="#0FB3C6" fill-rule="nonzero"></path>
                        <path d="M36.534296,13.8086643 C36.534296,13.8086643 38.7725632,15.6137184 39.133574,17.7075812 C39.2960289,18.6281588 39.7833935,18.9350181 40.198556,18.8447653 C40.198556,18.8447653 40.2166065,18.8447653 40.2166065,18.8447653 C40.234657,18.8447653 40.2527076,18.8267148 40.2888087,18.8267148 C40.7761733,18.6281588 41.1191336,17.8519856 40.6137184,16.8231047 C39.6209386,14.8916968 36.6425993,13.8808664 36.534296,13.8086643 Z" id="Shape" fill="#0FB3C6" fill-rule="nonzero"></path>
                        <path d="M29.6750903,9.65703971 C29.9097473,9.98194946 30.3971119,9.7833935 30.3610108,9.49458484 C30.3429603,9.38628159 30.2888087,9.27797834 30.1263538,9.16967509 C30.0180505,9.07942238 29.8736462,9.00722022 29.7292419,8.93501805 C29.4404332,8.79061372 29.1155235,8.66425993 28.8267148,8.57400722 C28.5018051,8.46570397 28.2310469,8.39350181 28.2129964,8.37545126 C28.2490975,8.39350181 29.33213,9.20577617 29.6750903,9.65703971 Z" id="Shape" fill="#0FB3C6" fill-rule="nonzero"></path>
                        <path d="M29.1516245,10.2888087 C29.1877256,10.2527076 29.2057762,10.234657 29.2418773,10.1805054 C29.2779783,10.1263538 29.2779783,10.0541516 29.2779783,9.96389892 C29.2599278,9.87364621 29.2238267,9.80144404 29.1516245,9.69314079 C29.133574,9.65703971 29.0974729,9.63898917 29.0794224,9.60288809 C28.7364621,9.27797834 28.3574007,8.98916968 27.9241877,8.77256318 C27.9241877,8.77256318 28.3754513,9.89169675 28.7184116,10.234657 C28.8447653,10.3971119 29.0433213,10.3971119 29.1516245,10.2888087 Z" id="Shape" fill="#0FB3C6" fill-rule="nonzero"></path>
                        <path d="M27.4368231,10.8122744 C27.2202166,10.3068592 27.0577617,9.7833935 26.9855596,9.24187726 C26.9494585,9.29602888 26.5703971,10.0361011 26.8050542,10.7400722 C26.967509,11.2635379 27.2202166,11.4620939 27.3826715,11.4259928 C27.5270758,11.4079422 27.599278,11.1732852 27.4368231,10.8122744 Z" id="Shape" fill="#0FB3C6" fill-rule="nonzero"></path>
                        <path d="M29.3501805,45.9025271 C29.4584838,45.9025271 29.5848375,45.9025271 29.7111913,45.8844765 C35.3068592,45.3790614 38.5559567,38.9891697 38.6281588,38.8267148 C38.5018051,38.9711191 37.1299639,40.5415162 34.33213,41.4259928 C34.2960289,41.4440433 34.2779783,41.4440433 34.2418773,41.4620939 C34.133574,41.4981949 34.0252708,41.534296 33.9350181,41.5523466 C33.8628159,41.5703971 33.7906137,41.5884477 33.700361,41.6064982 C33.6281588,41.6245487 33.5740072,41.6425993 33.5018051,41.6606498 C33.3754513,41.6967509 33.2490975,41.7148014 33.1227437,41.7509025 C33.1046931,41.7509025 33.0685921,41.7689531 33.0505415,41.7689531 C31.967509,41.9855596 30.7400722,42.0938628 29.33213,42.0216606 C29.1877256,42.0216606 29.0613718,42.0036101 28.9350181,42.0036101 C28.8447653,42.0036101 28.7725632,42.0036101 28.700361,42.0216606 C28.6642599,42.0216606 28.6101083,42.0216606 28.5740072,42.0216606 C25.0902527,42.2743682 25.9566787,45.9566787 29.3501805,45.9025271 Z" id="Shape" fill="#0FB3C6" fill-rule="nonzero"></path>
                        <path d="M41.0649819,29.5126354 C39.0974729,34.1155235 36.3718412,35.3790614 37.5812274,37.6353791 C38.700361,39.7111913 43.1407942,36.7148014 43.9711191,29.4765343 C44.3862816,25.8483755 44.2960289,22.1841155 41.4801444,18.5740072 C41.5523466,18.7906137 43.3574007,24.1516245 41.0649819,29.5126354 Z" id="Shape" fill="#0FB3C6" fill-rule="nonzero"></path>
                        <path d="M36.1371841,12.3285199 C35.4512635,11.7509025 34.1155235,11.4259928 34.1155235,11.4259928 C34.6209386,11.8772563 35.1083032,12.3646209 35.5776173,12.8700361 C35.9205776,13.2490975 36.2274368,13.3754513 36.4079422,13.3393502 C36.7148014,13.2851986 36.7148014,12.8158845 36.1371841,12.3285199 Z" id="Shape" fill="#0FB3C6" fill-rule="nonzero"></path>
                        <path d="M34.8916968,12.7797834 C34.2779783,12.2743682 33.5920578,11.8772563 32.833935,11.6245487 C33.267148,12.3465704 33.7906137,13.0144404 34.4043321,13.6101083 C34.9458484,14.0974729 35.3790614,13.9711191 35.3790614,13.6101083 C35.3971119,13.3935018 35.2527076,13.0866426 34.8916968,12.7797834 Z" id="Shape" fill="#0FB3C6" fill-rule="nonzero"></path>
                        <path d="M33.1949458,10.433213 C33.1227437,10.3971119 33.032491,10.3429603 32.9422383,10.3068592 C32.9241877,10.3068592 32.9241877,10.2888087 32.9061372,10.2888087 C32.8519856,10.2707581 32.8158845,10.2527076 32.7617329,10.2166065 C32.7436823,10.198556 32.7075812,10.198556 32.6895307,10.1805054 C32.6534296,10.1624549 32.6173285,10.1444043 32.5631769,10.1263538 C32.5270758,10.1083032 32.4909747,10.1083032 32.4548736,10.0902527 C32.4187726,10.0722022 32.3826715,10.0541516 32.3465704,10.0541516 C32.3104693,10.0361011 32.2743682,10.0361011 32.2563177,10.0180505 C32.2021661,10 32.166065,9.98194946 32.1119134,9.96389892 C32.0938628,9.96389892 32.0758123,9.94584838 32.0577617,9.94584838 C31.3176895,9.67509025 30.5956679,9.49458484 30.5595668,9.4765343 C31.2274368,10.0541516 31.9314079,10.5956679 32.6714801,11.0830325 C32.9602888,11.2635379 33.2129964,11.3176895 33.3935018,11.2815884 C33.7725632,11.2274368 33.8267148,10.7761733 33.1949458,10.433213 Z" id="Shape" fill="#0FB3C6" fill-rule="nonzero"></path>
                        <path d="M27.8880866,41.1191336 C34.5126354,41.1191336 37.166065,34.3501805 37.2743682,34.0613718 C37.0938628,34.2599278 34.1155235,37.5090253 29.7292419,37.5451264 C29.2599278,37.5451264 28.7725632,37.5270758 28.2851986,37.4368231 C28.1588448,37.4187726 28.032491,37.400722 27.9241877,37.400722 C26.1371841,37.2563177 25.3249097,38.1227437 25.3068592,39.0433213 C25.2888087,40.0541516 26.2093863,41.1191336 27.8880866,41.1191336 Z" id="Shape" fill="#0FB3C6" fill-rule="nonzero"></path>
                        <path d="M34.5126354,22.8880866 C34.5126354,22.8700361 34.5126354,22.8700361 34.5126354,22.8519856 C34.3501805,20.5956679 31.3718412,17.3285199 31.3176895,17.2743682 C31.3357401,17.3285199 31.7509025,19.7111913 31.8050542,23.4115523 C31.8050542,24.2057762 32.1480144,24.6750903 32.599278,24.8555957 C33.4296029,25.2166065 34.6209386,24.4945848 34.5126354,22.8880866 Z" id="Shape" fill="#0FB3C6" fill-rule="nonzero"></path>
                        <path d="M30.7400722,11.3718412 C30.3429603,10.9747292 29.8375451,10.6859206 29.2960289,10.5234657 C29.5126354,11.0469314 29.801444,11.534296 30.1624549,11.967509 C30.66787,12.5090253 31.3898917,12.0216606 30.7400722,11.3718412 Z" id="Shape" fill="#0FB3C6" fill-rule="nonzero"></path>
                        <path d="M30.4873646,12.4909747 C30.4873646,12.4909747 30.5054152,12.5270758 30.5054152,12.5812274 C30.5956679,12.8700361 30.9025271,13.8267148 31.4079422,14.5126354 C31.4440433,14.566787 31.4801444,14.6209386 31.534296,14.6570397 C31.7870036,14.9458484 32.0397112,15.0180505 32.2021661,14.9638989 C32.4909747,14.8555957 32.5812274,14.3501805 32.1480144,13.8808664 C31.6606498,13.3574007 31.101083,12.8880866 30.4873646,12.4909747 Z" id="Shape" fill="#0FB3C6" fill-rule="nonzero"></path>
                        <path d="M31.8592058,15.2527076 C31.732852,15.1444043 31.6606498,15.0722022 31.6606498,15.0722022 C31.6606498,15.0902527 31.7148014,15.2527076 31.7870036,15.5054152 C31.9494585,16.0288809 32.2382671,16.9133574 32.4729242,17.5631769 C32.5090253,17.6534296 32.5451264,17.7256318 32.5631769,17.7978339 C32.8519856,18.4837545 33.4476534,18.3393502 33.5559567,17.8158845 C33.5920578,17.6353791 33.5559567,17.4187726 33.4476534,17.1841155 C33.1407942,16.4620939 32.2563177,15.6137184 31.8592058,15.2527076 Z" id="Shape" fill="#0FB3C6" fill-rule="nonzero"></path>
                        <path d="M28.465704,2.83393502 C28.3032491,2.79783394 28.1949458,2.74368231 28.1227437,2.70758123 L27.5090253,2.3465704 C27.3285199,2.25631769 27.1119134,2.20216606 26.9133574,2.18411552 C26.6245487,2.18411552 26.2454874,2.38267148 26.1191336,2.38267148 C26.0108303,2.38267148 25.3971119,2.38267148 25.3068592,2.40072202 C25.3971119,2.4368231 25.9747292,2.50902527 26.2635379,2.59927798 C26.4440433,2.6534296 26.6425993,2.79783394 26.8050542,3.01444043 C26.967509,3.23104693 27.0938628,3.5198556 27.1480144,3.88086643 C27.2021661,4.20577617 27.0758123,5.28880866 26.8953069,6.15523466 C26.7148014,6.94945848 26.6245487,7.8700361 26.7148014,8.21299639 C26.732852,8.3032491 26.7870036,8.39350181 26.8231047,8.48375451 C26.967509,8.73646209 27.166065,8.97111913 27.1841155,8.93501805 C27.2382671,8.80866426 27.2924188,8.66425993 27.3285199,8.5198556 L27.5090253,8.57400722 L27.5270758,8.10469314 L27.5631769,8.10469314 L27.7797834,8.14079422 C27.7797834,8.14079422 27.7797834,8.14079422 27.7978339,8.12274368 C27.7978339,8.12274368 27.7978339,8.10469314 27.8158845,8.10469314 C27.8158845,8.10469314 27.8158845,8.10469314 27.8158845,8.10469314 C27.833935,8.05054152 27.8519856,7.94223827 27.7436823,7.77978339 C27.5631769,7.50902527 27.1841155,7.18411552 27.3465704,6.11913357 C27.400722,5.77617329 27.4909747,5.433213 27.6353791,5.10830325 C27.7797834,4.72924188 28.032491,4.42238267 28.1227437,4.06137184 C28.2129964,3.70036101 28.1768953,3.53790614 28.2851986,3.50180505 C28.2851986,3.50180505 28.2851986,3.50180505 28.2851986,3.50180505 C28.2851986,3.50180505 28.2851986,3.50180505 28.3032491,3.50180505 C28.4115523,3.48375451 29.133574,3.93501805 29.4223827,4.89169675 C29.765343,5.97472924 30.3249097,7.22021661 31.0830325,6.98555957 C31.1371841,6.96750903 31.1913357,6.94945848 31.2274368,6.9133574 C31.2274368,6.9133574 31.2454874,6.89530686 31.2454874,6.89530686 C31.2635379,6.87725632 31.2815884,6.87725632 31.2815884,6.85920578 C31.299639,6.84115523 31.3176895,6.82310469 31.3357401,6.80505415 C31.3357401,6.80505415 31.3357401,6.80505415 31.3357401,6.80505415 C31.5523466,6.55234657 31.5703971,6.15523466 31.4079422,5.99277978 C31.0649819,5.64981949 30.8483755,5.81227437 30.5595668,5.81227437 C30.0361011,5.81227437 29.765343,5.23465704 29.5848375,4.87364621 C29.4945848,4.65703971 29.4043321,4.44043321 29.2779783,4.24187726 C29.2238267,4.13357401 29.1516245,4.0433213 29.0794224,3.95306859 C28.8447653,3.64620939 28.5379061,3.50180505 28.5379061,3.42960289 C28.5379061,3.41155235 28.5379061,3.41155235 28.5379061,3.39350181 C28.6101083,3.32129964 29.0433213,3.46570397 29.0433213,3.46570397 C29.2599278,3.55595668 29.4584838,3.68231047 29.6389892,3.8267148 C29.8555957,4.0433213 30.0180505,4.31407942 30.1263538,4.60288809 C30.234657,4.90974729 30.2707581,4.98194946 30.433213,5.09025271 C30.5776173,5.19855596 31.0830325,5.16245487 31.2815884,4.96389892 C31.4259928,4.83754513 31.4981949,4.67509025 31.4981949,4.49458484 C31.4981949,4.45848375 31.4981949,4.44043321 31.4981949,4.40433213 C31.4981949,4.38628159 31.4981949,4.38628159 31.4981949,4.36823105 C31.4620939,4.09747292 31.2815884,3.88086643 31.0108303,3.80866426 C30.7761733,3.71841155 30.2707581,3.73646209 30,3.66425993 C29.8194946,3.6101083 29.6209386,3.55595668 29.4404332,3.48375451 C29.1516245,3.37545126 29.0794224,3.39350181 28.8808664,3.23104693 C28.8267148,3.19494585 28.8086643,3.14079422 28.7906137,3.12274368 C28.7545126,3.03249097 28.8628159,2.99638989 29.0433213,2.97833935 C29.2779783,2.94223827 29.5848375,3.17689531 30.1083032,3.17689531 C30.433213,3.19494585 30.7220217,2.99638989 30.8303249,2.68953069 C30.9025271,2.40072202 30.7039711,2.18411552 30.433213,2.11191336 C30.198556,2.05776173 29.8916968,2.09386282 29.6750903,2.31046931 C29.4404332,2.54512635 29.2238267,2.67148014 29.0433213,2.74368231 C29.0433213,2.74368231 29.0252708,2.74368231 29.0252708,2.74368231 C29.0252708,2.74368231 29.0252708,2.74368231 29.0252708,2.74368231 C28.8086643,2.85198556 28.6281588,2.85198556 28.465704,2.83393502 Z" id="Shape" fill="#0FB3C6" fill-rule="nonzero"></path>
                        <path d="M29.6389892,27.1480144 C30.3249097,27.6714801 31.534296,26.8592058 31.3357401,25.2527076 C31.1552347,23.8086643 30.8303249,22.3646209 30.3610108,20.9927798 C29.7292419,22.4548736 29.33213,24.0072202 29.1877256,25.5956679 C29.1155235,26.4079422 29.3140794,26.9133574 29.6389892,27.1480144 Z" id="Shape" fill="#0FB3C6" fill-rule="nonzero"></path>
                        <path d="M30.9205776,16.8050542 C31.2815884,16.8231047 31.5703971,16.4620939 31.1732852,15.6859206 C30.8303249,14.9638989 30.3068592,14.3501805 29.6570397,13.8808664 C29.6570397,13.9169675 30,15.5956679 30.3429603,16.3537906 C30.4693141,16.6425993 30.7220217,16.8050542 30.9205776,16.8050542 Z" id="Shape" fill="#0FB3C6" fill-rule="nonzero"></path>
                        <path d="M37.7075812,22.4909747 C37.7075812,22.2563177 37.6714801,21.9855596 37.5812274,21.6967509 C37.5631769,21.6064982 37.5270758,21.534296 37.5090253,21.4620939 C37.1119134,20.2707581 36.3537906,19.2599278 35.66787,18.5379061 C35.631769,18.4837545 35.5776173,18.4476534 35.5415162,18.3935018 C34.8916968,17.7256318 34.33213,17.3285199 34.33213,17.3285199 C34.33213,17.3646209 34.6209386,18.4296029 34.9638989,19.8736462 C35.1263538,20.5776173 35.3068592,21.3718412 35.4873646,22.2021661 C35.9566787,24.4223827 37.7075812,24.1516245 37.7075812,22.4909747 Z" id="Shape" fill="#0FB3C6" fill-rule="nonzero"></path>
                        <path d="M30.1624549,13.032491 C30.1624549,12.8880866 30.1083032,12.7256318 29.9819495,12.5631769 C29.4765343,11.9133574 28.8086643,11.1913357 28.8086643,11.1913357 C28.8086643,11.2093863 28.9350181,12.400722 29.368231,13.1046931 C29.7111913,13.6642599 30.1624549,13.4476534 30.1624549,13.032491 Z" id="Shape" fill="#0FB3C6" fill-rule="nonzero"></path>
                        <path d="M36.2635379,17.3285199 C36.4620939,17.7256318 36.6606498,18.1227437 36.8592058,18.5559567 C37.6353791,20.1805054 38.7906137,19.4765343 38.3935018,17.9783394 C38.3574007,17.833935 38.3032491,17.6895307 38.2310469,17.5270758 C37.4548736,15.7581227 34.8375451,14.5126354 34.7472924,14.4765343 C34.7833935,14.5487365 35.0902527,15.0902527 35.4873646,15.866426 C35.7220217,16.2815884 35.9747292,16.7870036 36.2635379,17.3285199 Z" id="Shape" fill="#0FB3C6" fill-rule="nonzero"></path>
                        <path d="M32.9783394,14.1696751 C32.9963899,14.2779783 33.2490975,15.4512635 33.9169675,16.2454874 C34.2599278,16.6606498 34.6028881,16.6787004 34.7472924,16.4801444 C34.8916968,16.2815884 34.8555957,15.866426 34.4765343,15.3971119 C34.0794224,14.8916968 33.5559567,14.4584838 32.9783394,14.1696751 Z" id="Shape" fill="#0FB3C6" fill-rule="nonzero"></path>
                        <path d="M33.0866426,12.7617329 C32.5631769,12.2924188 31.9855596,11.9133574 31.3537906,11.6245487 C31.3537906,11.6245487 31.3537906,11.6245487 31.3537906,11.6245487 C31.3537906,11.6245487 31.967509,12.9061372 32.5090253,13.5198556 C32.6714801,13.700361 32.8700361,13.7725632 33.032491,13.7545126 C33.3574007,13.700361 33.5559567,13.2310469 33.0866426,12.7617329 Z" id="Shape" fill="#0FB3C6" fill-rule="nonzero"></path>
                        <path d="M28.5740072,14.5306859 C28.6281588,14.5848375 28.700361,14.6028881 28.7545126,14.6209386 C28.7906137,14.6209386 28.8086643,14.6389892 28.8447653,14.6389892 C28.9350181,14.6389892 29.0072202,14.6209386 29.0794224,14.566787 C29.0974729,14.5487365 29.1155235,14.5306859 29.1516245,14.5126354 C29.1877256,14.4765343 29.2238267,14.4223827 29.2418773,14.3501805 C29.2599278,14.3140794 29.2599278,14.2779783 29.2599278,14.2418773 C29.2599278,14.2057762 29.2599278,14.1696751 29.2599278,14.133574 C29.2599278,14.0974729 29.2599278,14.0433213 29.2418773,14.0072202 C29.2418773,13.9711191 29.2238267,13.9169675 29.2057762,13.8628159 C29.1877256,13.8086643 29.1696751,13.7725632 29.1516245,13.7184116 C28.7545126,12.9061372 27.7797834,11.6787004 27.7797834,11.6787004 C27.7797834,11.6787004 27.9963899,13.6823105 28.4115523,14.3140794 C28.465704,14.4223827 28.5198556,14.4945848 28.5740072,14.5306859 Z" id="Shape" fill="#0FB3C6" fill-rule="nonzero"></path>
                        <path d="M30.2527076,30.9566787 C33.2310469,29.8375451 34.8375451,24.9097473 34.8375451,24.9097473 C34.8375451,24.9097473 33.4476534,27.1299639 29.4945848,28.2310469 C28.4296029,28.5379061 27.9241877,29.4765343 28.032491,30.2166065 C28.0685921,30.4512635 28.1588448,30.6498195 28.3212996,30.8303249 C28.6642599,31.1732852 29.2960289,31.3176895 30.2527076,30.9566787 Z" id="Shape" fill="#0FB3C6" fill-rule="nonzero"></path>
                        <path d="M29.2960289,19.2960289 C29.0974729,20.4693141 29.6931408,20.8303249 30.1263538,20.4693141 C30.3971119,20.2527076 30.5956679,19.7833935 30.5415162,19.0613718 C30.3971119,17.1841155 29.2960289,15.5054152 29.2599278,15.4512635 C29.4584838,16.732852 29.4765343,18.0144404 29.2960289,19.2960289 Z" id="Shape" fill="#0FB3C6" fill-rule="nonzero"></path>
                        <path d="M24.9819495,0 C24.9819495,0 24.9819495,0 24.9819495,0 C11.1913357,0 0,11.1913357 0,24.9819495 C0,38.7725632 11.1913357,49.9638989 24.9819495,49.9638989 C38.4476534,49.9638989 49.9638989,39.1877256 49.9638989,24.9819495 C49.9638989,11.1913357 38.7725632,0 24.9819495,0 Z M41.4801444,18.5559567 C41.4801444,18.5559567 41.4801444,18.5559567 41.4801444,18.5559567 C44.3140794,22.1841155 44.4043321,25.8483755 43.9711191,29.4765343 C43.1407942,36.7148014 38.7184116,39.7292419 37.5812274,37.6353791 C36.3718412,35.3790614 39.0794224,34.133574 41.0649819,29.5126354 C43.3935018,24.0433213 41.4801444,18.5559567 41.4801444,18.5559567 Z M27.9241877,37.4187726 C28.0505415,37.4368231 28.1588448,37.4368231 28.2851986,37.4548736 C28.7906137,37.5270758 29.2599278,37.5631769 29.7292419,37.5631769 C34.2418773,37.5090253 37.2743682,34.0613718 37.2743682,34.0613718 C37.2743682,34.0613718 37.2743682,34.0613718 37.2743682,34.0794224 C37.166065,34.368231 34.5126354,41.1371841 27.8880866,41.1371841 C26.2093863,41.1371841 25.2888087,40.0722022 25.3068592,39.0794224 C25.3249097,38.1407942 26.1552347,37.2743682 27.9241877,37.4187726 Z M24.9277978,25.1444043 L24.9277978,25.198556 L24.2238267,25.198556 L24.2238267,21.2093863 L24.133574,20.5595668 L24.8555957,20.5595668 L24.8555957,24.6750903 L24.9277978,25.1444043 Z M27.4548736,9.15162455 C27.8158845,9.58483755 28.1227437,10.0361011 28.3935018,10.5415162 C28.465704,10.6859206 28.5018051,10.7942238 28.5018051,10.9025271 C28.5379061,11.3537906 28.1046931,11.5162455 27.9241877,11.1913357 C27.6895307,10.7942238 27.4729242,9.2599278 27.4548736,9.15162455 C27.4548736,9.16967509 27.4548736,9.15162455 27.4548736,9.15162455 Z M28.1949458,8.35740072 C28.1949458,8.35740072 28.465704,8.42960289 28.8267148,8.55595668 C29.1155235,8.64620939 29.4404332,8.77256318 29.7292419,8.91696751 C29.8736462,8.98916968 30.0180505,9.07942238 30.1263538,9.15162455 C30.2888087,9.2599278 30.3429603,9.38628159 30.3610108,9.4765343 C30.3790614,9.7833935 29.9097473,9.98194946 29.6570397,9.63898917 C29.33213,9.20577617 28.2490975,8.39350181 28.1949458,8.35740072 C28.1949458,8.35740072 28.1949458,8.35740072 28.1949458,8.35740072 Z M40.2707581,18.8086643 C40.2527076,18.8086643 40.234657,18.8267148 40.198556,18.8267148 C40.198556,18.8267148 40.1805054,18.8267148 40.1805054,18.8267148 C39.765343,18.9350181 39.2779783,18.6281588 39.1155235,17.7075812 C38.7545126,15.6137184 36.5162455,13.7906137 36.5162455,13.7906137 C36.6245487,13.8628159 39.6209386,14.8736462 40.5776173,16.8050542 C41.1191336,17.833935 40.7581227,18.6281588 40.2707581,18.8086643 Z M29.1516245,13.7364621 C29.1696751,13.7906137 29.2057762,13.8267148 29.2057762,13.8808664 C29.2238267,13.9350181 29.2418773,13.9711191 29.2418773,14.0252708 C29.2418773,14.0613718 29.2599278,14.1155235 29.2599278,14.1516245 C29.2599278,14.1877256 29.2599278,14.2238267 29.2599278,14.2599278 C29.2599278,14.2960289 29.2418773,14.33213 29.2418773,14.368231 C29.2238267,14.4223827 29.1877256,14.4765343 29.1516245,14.5306859 C29.133574,14.5487365 29.1155235,14.566787 29.0794224,14.5848375 C29.0072202,14.6389892 28.9350181,14.6570397 28.8447653,14.6570397 C28.8086643,14.6570397 28.7906137,14.6570397 28.7545126,14.6389892 C28.700361,14.6209386 28.6281588,14.5848375 28.5740072,14.5487365 C28.5198556,14.4945848 28.465704,14.4404332 28.4115523,14.368231 C27.9963899,13.7364621 27.7797834,11.732852 27.7797834,11.732852 C27.7797834,11.732852 28.7545126,12.9422383 29.1516245,13.7364621 Z M31.4801444,10.631769 C31.9494585,11.0830325 31.4981949,11.6967509 31.0108303,11.1191336 C30.7039711,10.7581227 30.3790614,10.433213 30.0180505,10.1263538 C30.0361011,10.1083032 31.0288809,10.1805054 31.4801444,10.631769 Z M34.4765343,15.3971119 C34.8555957,15.8483755 34.8916968,16.2635379 34.7472924,16.4801444 C34.6028881,16.6787004 34.2779783,16.6787004 33.9169675,16.2454874 C33.2490975,15.4512635 32.9963899,14.2779783 32.9783394,14.1696751 C32.9783394,14.1696751 32.9783394,14.1516245 32.9783394,14.1516245 C33.5559567,14.4584838 34.0794224,14.8736462 34.4765343,15.3971119 Z M34.7472924,14.4584838 C34.8375451,14.4945848 37.4368231,15.7581227 38.2310469,17.5090253 C38.3032491,17.6714801 38.3574007,17.8158845 38.3935018,17.9602888 C38.8086643,19.4584838 37.6353791,20.1624549 36.8592058,18.5559567 C36.6606498,18.1407942 36.4620939,17.7256318 36.2635379,17.3285199 C35.9927798,16.7870036 35.7220217,16.2815884 35.5054152,15.8483755 C35.0541516,15.0180505 34.7472924,14.4584838 34.7472924,14.4584838 C34.7472924,14.4584838 34.7472924,14.4584838 34.7472924,14.4584838 Z M29.1877256,25.5776173 C29.33213,23.9891697 29.7292419,22.4368231 30.3610108,20.9747292 C30.3610108,20.9747292 30.3610108,20.9747292 30.3610108,20.9747292 C30.8303249,22.3646209 31.1552347,23.7906137 31.3357401,25.234657 C31.534296,26.8411552 30.3249097,27.6534296 29.6389892,27.1299639 C29.3140794,26.9133574 29.1155235,26.4079422 29.1877256,25.5776173 Z M33.4837545,17.2021661 C33.5920578,17.4368231 33.6101083,17.6534296 33.5920578,17.833935 C33.5018051,18.3574007 32.8880866,18.5018051 32.599278,17.8158845 C32.5631769,17.7436823 32.5451264,17.6714801 32.5090253,17.5812274 C32.2563177,16.9494585 31.9855596,16.0469314 31.8231047,15.5234657 C31.7509025,15.2707581 31.6967509,15.0902527 31.6967509,15.0902527 C31.6967509,15.0902527 31.6967509,15.0902527 31.6967509,15.0902527 C31.6967509,15.0902527 31.7689531,15.1624549 31.8953069,15.2707581 C32.2563177,15.6137184 33.1407942,16.4620939 33.4837545,17.2021661 Z M32.2021661,14.9638989 C32.0216606,15.0361011 31.7870036,14.9638989 31.534296,14.6570397 C31.4981949,14.6028881 31.4620939,14.566787 31.4079422,14.5126354 C30.9025271,13.8447653 30.5956679,12.8700361 30.5054152,12.5812274 C30.4873646,12.5270758 30.4873646,12.4909747 30.4873646,12.4909747 C30.4873646,12.4909747 30.4873646,12.4909747 30.4873646,12.4909747 C31.0830325,12.8880866 31.6425993,13.3393502 32.1299639,13.8628159 C32.5812274,14.3501805 32.4909747,14.8555957 32.2021661,14.9638989 Z M32.599278,24.8736462 C32.166065,24.6931408 31.8231047,24.2238267 31.8050542,23.4296029 C31.7689531,19.7111913 31.3357401,17.3285199 31.3176895,17.2924188 C31.3718412,17.3465704 34.3501805,20.6137184 34.5126354,22.8700361 C34.5126354,22.8880866 34.5126354,22.8880866 34.5126354,22.9061372 C34.6209386,24.4945848 33.4296029,25.2166065 32.599278,24.8736462 Z M29.6750903,13.8808664 C30.3249097,14.33213 30.8483755,14.9638989 31.1913357,15.6859206 C31.5703971,16.4620939 31.2815884,16.8411552 30.9386282,16.8050542 C30.7220217,16.7870036 30.4873646,16.6425993 30.3610108,16.3537906 C30,15.5956679 29.6750903,13.898917 29.6750903,13.8808664 C29.6570397,13.8808664 29.6570397,13.8808664 29.6750903,13.8808664 Z M29.2599278,15.4512635 C29.2599278,15.4512635 29.2599278,15.4693141 29.2599278,15.4512635 C29.2960289,15.4873646 30.3971119,17.166065 30.5415162,19.0613718 C30.5956679,19.7833935 30.3790614,20.2527076 30.1263538,20.4693141 C29.6931408,20.8303249 29.0974729,20.4693141 29.2960289,19.2960289 C29.4765343,18.0144404 29.4584838,16.732852 29.2599278,15.4512635 Z M29.4945848,28.2310469 C33.4476534,27.1299639 34.8375451,24.9097473 34.8375451,24.9097473 C34.8375451,24.9097473 33.2310469,29.8375451 30.2527076,30.9566787 C29.2960289,31.3176895 28.6642599,31.1732852 28.3212996,30.8122744 C28.1588448,30.6498195 28.0685921,30.433213 28.032491,30.198556 C27.9241877,29.4765343 28.4296029,28.5379061 29.4945848,28.2310469 Z M35.4873646,22.2202166 C35.3068592,21.4079422 35.1263538,20.5956679 34.9638989,19.8916968 C34.6209386,18.4296029 34.33213,17.3646209 34.33213,17.3465704 C34.33213,17.3465704 34.8916968,17.7256318 35.5415162,18.4115523 C35.5776173,18.465704 35.631769,18.5018051 35.66787,18.5559567 C36.3357401,19.2779783 37.0938628,20.2707581 37.5090253,21.4801444 C37.5270758,21.5523466 37.5631769,21.6425993 37.5812274,21.7148014 C37.6714801,22.0036101 37.7075812,22.2743682 37.7075812,22.5090253 C37.7075812,24.1516245 35.9566787,24.4223827 35.4873646,22.2202166 Z M30.7400722,11.3718412 C31.3898917,12.0216606 30.66787,12.5090253 30.1624549,11.967509 C29.801444,11.534296 29.5126354,11.0469314 29.2960289,10.5234657 C29.8375451,10.6859206 30.3249097,10.9747292 30.7400722,11.3718412 Z M28.8086643,11.2093863 C28.8086643,11.2093863 29.4765343,11.9133574 29.9819495,12.5812274 C30.1083032,12.7436823 30.1624549,12.9061372 30.1624549,13.0505415 C30.1624549,13.465704 29.7111913,13.6823105 29.368231,13.1227437 C28.9169675,12.3826715 28.8086643,11.2093863 28.8086643,11.2093863 Z M29.6570397,32.5270758 C34.1877256,31.0288809 36.2093863,25.1444043 36.3537906,24.6931408 C36.3537906,24.6750903 36.3718412,24.6570397 36.3718412,24.6570397 C36.3718412,24.6570397 35.1083032,33.2129964 31.0469314,35.8483755 C30.6137184,36.1191336 30.2166065,36.3176895 29.8736462,36.4440433 C26.967509,37.400722 26.4801444,33.5740072 29.6570397,32.5270758 Z M35.8844765,30.4693141 C40.1624549,25.3971119 39.1696751,19.133574 39.1696751,19.133574 C39.1696751,19.133574 42.2021661,24.6750903 38.6642599,31.5162455 C38.2310469,32.3646209 37.7256318,32.9422383 37.2563177,33.267148 C36.5703971,33.7364621 35.9205776,33.7545126 35.4873646,33.4476534 C34.8555957,32.9963899 34.7472924,31.8231047 35.8844765,30.4693141 Z M34.8916968,12.7797834 C35.2527076,13.0866426 35.3971119,13.3935018 35.3790614,13.6101083 C35.3610108,13.9711191 34.9277978,14.0974729 34.4043321,13.6101083 C33.8086643,13.0144404 33.267148,12.3465704 32.833935,11.6245487 C32.833935,11.6245487 32.833935,11.6245487 32.833935,11.6245487 C33.5920578,11.8772563 34.2779783,12.2743682 34.8916968,12.7797834 Z M33.0866426,12.7617329 C33.5559567,13.2310469 33.3574007,13.700361 33.0144404,13.7545126 C32.8519856,13.7725632 32.6714801,13.7184116 32.4909747,13.5198556 C31.9494585,12.9061372 31.3357401,11.6245487 31.3357401,11.6245487 C31.3357401,11.6245487 31.3357401,11.6245487 31.3357401,11.6245487 C31.967509,11.9133574 32.5631769,12.2924188 33.0866426,12.7617329 Z M29.0613718,9.62093863 C29.0974729,9.65703971 29.133574,9.67509025 29.1516245,9.71119134 C29.2238267,9.80144404 29.2599278,9.89169675 29.2779783,9.98194946 C29.2960289,10.0722022 29.2779783,10.1444043 29.2418773,10.198556 C29.2238267,10.234657 29.1877256,10.2707581 29.1516245,10.3068592 C29.0252708,10.3971119 28.8447653,10.4151625 28.700361,10.2527076 C28.3574007,9.90974729 27.9061372,8.79061372 27.9061372,8.79061372 C28.3393502,9.00722022 28.7184116,9.29602888 29.0613718,9.62093863 Z M27.3646209,11.4259928 C27.2021661,11.4620939 26.9494585,11.2635379 26.7870036,10.7400722 C26.5703971,10.0361011 26.9494585,9.29602888 26.967509,9.24187726 C26.967509,9.24187726 26.967509,9.24187726 26.967509,9.24187726 C27.0397112,9.7833935 27.2021661,10.3068592 27.4187726,10.8122744 C27.6173285,11.1732852 27.5270758,11.4079422 27.3646209,11.4259928 Z M36.3898917,13.3393502 C36.2093863,13.3574007 35.9025271,13.2310469 35.5595668,12.8700361 C35.1083032,12.3646209 34.6209386,11.8772563 34.0974729,11.4259928 C34.0974729,11.4259928 35.4512635,11.7509025 36.1191336,12.3285199 C36.732852,12.8158845 36.7148014,13.3032491 36.3898917,13.3393502 Z M33.3935018,11.299639 C33.2129964,11.3357401 32.9602888,11.2815884 32.6714801,11.101083 C31.9314079,10.6137184 31.2274368,10.0722022 30.5595668,9.49458484 C30.5595668,9.49458484 30.5595668,9.49458484 30.5595668,9.49458484 C30.5595668,9.49458484 31.299639,9.69314079 32.0577617,9.96389892 C32.0758123,9.96389892 32.0938628,9.98194946 32.1119134,9.98194946 C32.166065,10 32.2021661,10.0180505 32.2563177,10.0361011 C32.2924188,10.0541516 32.3285199,10.0541516 32.3465704,10.0722022 C32.3826715,10.0902527 32.4187726,10.1083032 32.4548736,10.1083032 C32.4909747,10.1263538 32.5270758,10.1263538 32.5631769,10.1444043 C32.599278,10.1624549 32.6353791,10.1805054 32.6895307,10.198556 C32.7075812,10.2166065 32.7436823,10.2166065 32.7617329,10.234657 C32.8158845,10.2527076 32.8700361,10.2707581 32.9061372,10.3068592 C32.9241877,10.3068592 32.9241877,10.3249097 32.9422383,10.3249097 C33.032491,10.3610108 33.1227437,10.4151625 33.1949458,10.4512635 C33.8267148,10.7761733 33.7725632,11.2454874 33.3935018,11.299639 Z M29.0433213,2.77978339 C29.0433213,2.77978339 29.0433213,2.77978339 29.0433213,2.77978339 C29.2599278,2.70758123 29.4765343,2.5631769 29.6931408,2.3465704 C29.9097473,2.1299639 30.198556,2.07581227 30.4512635,2.14801444 C30.7220217,2.22021661 30.9205776,2.4368231 30.8483755,2.72563177 C30.7581227,3.03249097 30.4512635,3.23104693 30.1263538,3.21299639 C29.6209386,3.21299639 29.2960289,2.99638989 29.0613718,3.01444043 C28.898917,3.03249097 28.7906137,3.06859206 28.8086643,3.15884477 C28.8086643,3.19494585 28.8447653,3.23104693 28.898917,3.26714801 C29.0794224,3.42960289 29.1696751,3.41155235 29.4584838,3.5198556 C29.6389892,3.59205776 29.8194946,3.64620939 30.0180505,3.70036101 C30.2888087,3.75451264 30.7942238,3.73646209 31.0288809,3.84476534 C31.299639,3.91696751 31.4981949,4.15162455 31.5162455,4.40433213 C31.5162455,4.42238267 31.5162455,4.42238267 31.5162455,4.44043321 C31.5162455,4.4765343 31.5162455,4.49458484 31.5162455,4.53068592 C31.5162455,4.58483755 31.5162455,4.63898917 31.4981949,4.67509025 C31.4620939,4.80144404 31.3898917,4.90974729 31.299639,5 C31.101083,5.19855596 30.5956679,5.23465704 30.4512635,5.12635379 C30.3068592,5.01805054 30.2527076,4.94584838 30.1444043,4.63898917 C30.0361011,4.35018051 29.8736462,4.07942238 29.6570397,3.86281588 C29.4765343,3.71841155 29.2779783,3.59205776 29.0613718,3.50180505 C29.0613718,3.50180505 28.6281588,3.35740072 28.5559567,3.42960289 C28.5559567,3.42960289 28.5559567,3.44765343 28.5559567,3.44765343 C28.5559567,3.5198556 28.8628159,3.68231047 29.0974729,3.97111913 C29.1696751,4.06137184 29.2238267,4.16967509 29.2960289,4.2599278 C29.4223827,4.45848375 29.5306859,4.67509025 29.6028881,4.89169675 C29.7833935,5.25270758 30.0541516,5.83032491 30.5776173,5.83032491 C30.8844765,5.83032491 31.101083,5.68592058 31.4259928,6.01083032 C31.5703971,6.15523466 31.5523466,6.57039711 31.3357401,6.82310469 C31.3357401,6.82310469 31.3357401,6.82310469 31.3357401,6.82310469 C31.3176895,6.84115523 31.299639,6.85920578 31.2815884,6.87725632 C31.2635379,6.89530686 31.2454874,6.89530686 31.2454874,6.9133574 C31.2454874,6.9133574 31.2274368,6.93140794 31.2274368,6.93140794 C31.1732852,6.96750903 31.1371841,6.98555957 31.0830325,7.00361011 C30.3068592,7.23826715 29.7472924,6.01083032 29.4223827,4.90974729 C29.133574,3.95306859 28.3935018,3.48375451 28.3032491,3.5198556 C28.3032491,3.5198556 28.3032491,3.5198556 28.2851986,3.5198556 C28.1949458,3.55595668 28.2129964,3.73646209 28.1407942,4.06137184 C28.0505415,4.42238267 27.7978339,4.72924188 27.6534296,5.10830325 C27.5090253,5.433213 27.4187726,5.77617329 27.3646209,6.11913357 C27.2021661,7.16606498 27.5812274,7.50902527 27.7617329,7.77978339 C27.8880866,7.96028881 27.8519856,8.06859206 27.833935,8.12274368 C27.833935,8.12274368 27.833935,8.12274368 27.833935,8.12274368 C27.833935,8.12274368 27.833935,8.14079422 27.8158845,8.14079422 C27.7978339,8.15884477 27.7978339,8.15884477 27.7978339,8.15884477 L27.5812274,8.12274368 L27.5451264,8.12274368 L27.5270758,8.59205776 L27.3465704,8.53790614 C27.3104693,8.68231047 27.2743682,8.8267148 27.2021661,8.95306859 C27.166065,8.98916968 26.967509,8.75451264 26.8411552,8.50180505 C26.7870036,8.41155235 26.7509025,8.32129964 26.732852,8.23104693 C26.6245487,7.8700361 26.732852,6.94945848 26.9133574,6.1732852 C27.0938628,5.28880866 27.2202166,4.22382671 27.166065,3.89891697 C27.1119134,3.53790614 26.9855596,3.24909747 26.8231047,3.03249097 C26.6606498,2.81588448 26.4801444,2.67148014 26.2815884,2.63537906 C25.9566787,2.54512635 25.3429603,2.45487365 25.3068592,2.41877256 C25.3068592,2.41877256 25.3068592,2.41877256 25.3249097,2.41877256 C25.4151625,2.40072202 26.0288809,2.40072202 26.1371841,2.40072202 C26.2635379,2.40072202 26.6245487,2.20216606 26.9314079,2.20216606 C27.1480144,2.22021661 27.3465704,2.27436823 27.5270758,2.36462094 L28.1407942,2.72563177 C28.2129964,2.76173285 28.3393502,2.83393502 28.4837545,2.85198556 C28.6281588,2.85198556 28.8086643,2.85198556 29.0433213,2.77978339 C29.0433213,2.77978339 29.0433213,2.77978339 29.0433213,2.77978339 Z M25.234657,13.7725632 L25.234657,14.2960289 L23.5379061,14.2960289 L23.5379061,15.7761733 L25.0180505,15.7761733 L24.8736462,16.299639 L23.5379061,16.299639 L23.5379061,17.8880866 L25.3068592,17.8880866 L25.2527076,18.1046931 L25.1805054,18.4115523 L22.9241877,18.4115523 L22.9241877,14.4223827 L22.833935,13.7725632 L25.234657,13.7725632 Z M23.1407942,25.2166065 L22.3826715,25.2166065 L22.3826715,25.198556 L22.3646209,25.198556 L21.9314079,23.9891697 L20.2166065,23.9891697 L19.765343,25.198556 L19.1516245,25.198556 L19.133574,25.198556 L20.9386282,20.5415162 L21.3718412,20.4512635 L21.3898917,20.4512635 L22.833935,24.4223827 L23.1407942,25.2166065 Z M18.5198556,13.7725632 L18.5198556,16.6967509 C18.5198556,17.4368231 19.0252708,17.9963899 19.7292419,17.9963899 C20.433213,17.9963899 20.9205776,17.3826715 20.9205776,16.6425993 L20.9205776,14.4223827 L20.8303249,13.7725632 L21.5162455,13.7725632 L21.5162455,16.5703971 C21.5162455,17.7075812 20.7581227,18.5198556 19.6028881,18.5198556 C17.9422383,18.5198556 17.8880866,16.8592058 17.8880866,16.7509025 C17.8880866,16.7509025 17.8880866,16.7509025 17.8880866,16.7509025 L17.8880866,14.4223827 L17.7978339,13.7725632 L18.5198556,13.7725632 Z M17.400722,20.5595668 L18.3032491,20.5595668 L18.3212996,20.5595668 L16.4801444,22.7617329 L18.3754513,25.198556 L17.5270758,25.198556 L15.7581227,22.8519856 L15.7581227,24.6570397 L15.8303249,25.1805054 L15.1263538,25.1805054 L15.1263538,21.1732852 L15.0361011,20.5234657 L15.7581227,20.5234657 L15.7581227,22.7256318 L17.1841155,20.9747292 L17.400722,20.5595668 Z M14.5306859,13.7725632 L15.2527076,13.7725632 L15.2527076,17.8880866 L17.0758123,17.8880866 L16.9314079,18.4296029 L14.6209386,18.4296029 L14.6209386,14.4223827 L14.5306859,13.7725632 Z M10.433213,13.7725632 L11.5523466,13.7364621 C11.8592058,13.7184116 12.1480144,13.7725632 12.3826715,13.8628159 C12.8158845,14.0252708 13.0685921,14.368231 13.0685921,14.8375451 C13.0685921,15.2166065 12.7256318,15.6137184 12.5451264,15.8122744 C12.6534296,15.866426 12.7617329,15.9205776 12.8700361,15.9927798 C13.1588448,16.1913357 13.3574007,16.4801444 13.3574007,16.9855596 C13.3574007,17.7436823 12.9061372,18.4296029 11.6245487,18.4296029 L10.5595668,18.4296029 L10.5595668,14.4223827 L10.433213,13.7725632 Z M11.8231047,20.4693141 C11.8231047,20.4693141 11.8231047,20.4873646 11.8231047,20.4693141 C11.8231047,20.4873646 11.8231047,20.4693141 11.8231047,20.4693141 C12.400722,20.4693141 12.8700361,20.6498195 13.1949458,20.9747292 C13.1949458,20.9747292 13.2129964,20.9927798 13.2129964,20.9927798 C13.2490975,21.0288809 13.2851986,21.0649819 13.3212996,21.1191336 C13.3212996,21.1371841 13.3393502,21.1371841 13.3574007,21.1552347 C13.700361,21.5703971 13.8628159,22.166065 13.8628159,22.8519856 C13.8628159,23.1949458 13.8086643,23.5198556 13.700361,23.8086643 C13.3754513,24.6931408 12.6353791,25.3068592 11.732852,25.3068592 C10.433213,25.3068592 9.71119134,24.2418773 9.71119134,22.9422383 C9.71119134,21.5523466 10.6137184,20.4693141 11.8231047,20.4693141 Z M5.70397112,20.5595668 L9.35018051,20.5595668 L9.35018051,21.101083 L7.81588448,21.101083 L7.81588448,24.6931408 L7.88808664,25.2166065 L7.18411552,25.2166065 L7.18411552,21.101083 L5.70397112,21.101083 L5.70397112,20.5595668 Z M28.5559567,42.0036101 C28.5920578,42.0036101 28.6462094,42.0036101 28.6823105,42.0036101 C28.7545126,42.0036101 28.8447653,41.9855596 28.9169675,41.9855596 C29.0433213,41.9855596 29.1877256,41.9855596 29.3140794,42.0036101 C30.7220217,42.0758123 31.967509,41.967509 33.032491,41.7509025 C33.0505415,41.7509025 33.0866426,41.732852 33.1046931,41.732852 C33.2310469,41.7148014 33.3574007,41.6787004 33.4837545,41.6425993 C33.5559567,41.6245487 33.6101083,41.6064982 33.6823105,41.5884477 C33.7545126,41.5703971 33.8447653,41.5523466 33.9169675,41.534296 C34.0252708,41.4981949 34.133574,41.4801444 34.2238267,41.4440433 C34.2599278,41.4259928 34.2960289,41.4259928 34.3140794,41.4079422 C37.2563177,40.4873646 38.6101083,38.8086643 38.6101083,38.8086643 C38.6101083,38.8086643 38.6101083,38.8086643 38.6101083,38.8086643 C38.5379061,38.9711191 35.2888087,45.3429603 29.6931408,45.866426 C29.566787,45.8844765 29.4584838,45.8844765 29.33213,45.8844765 C25.9386282,45.9566787 25.0902527,42.2743682 28.5559567,42.0036101 Z" id="Shape" fill="#000000" fill-rule="nonzero"></path>
                        <polygon id="Shape" fill="#0FB3C6" fill-rule="nonzero" points="14.6209386 18.4296029 14.6209386 18.4296029 16.9314079 18.4296029 17.0758123 17.8880866 15.2527076 17.8880866 15.2527076 13.7725632 14.5306859 13.7725632 14.5306859 13.7725632 14.6209386 14.4223827"></polygon>
                        <polygon id="Shape" fill="#0FB3C6" fill-rule="nonzero" points="17.1841155 21.0288809 15.7581227 22.7797834 15.7581227 22.7617329 15.7581227 20.5595668 15.7581227 20.5595668 15.0361011 20.5595668 15.1263538 21.2093863 15.1263538 25.2166065 15.8303249 25.2166065 15.8303249 25.2166065 15.7581227 24.6750903 15.7581227 22.8700361 15.7581227 22.8519856 17.5270758 25.2166065 18.3754513 25.2166065 16.4801444 22.7617329 18.3032491 20.5595668 18.3032491 20.5595668 17.400722 20.5595668"></polygon>
                        <path d="M17.8880866,14.4223827 L17.8880866,16.7509025 C17.8880866,16.8592058 17.9241877,18.5198556 19.6028881,18.5198556 C20.7581227,18.5198556 21.5162455,17.7075812 21.5162455,16.5703971 L21.5162455,13.7725632 L20.8303249,13.7725632 L20.9205776,14.4223827 L20.9205776,16.6425993 C20.9205776,17.400722 20.433213,17.9963899 19.7292419,17.9963899 C19.0252708,17.9963899 18.5198556,17.4368231 18.5198556,16.6967509 L18.5198556,13.7725632 L17.7978339,13.7725632 L17.8880866,14.4223827 Z" id="Shape" fill="#0FB3C6" fill-rule="nonzero"></path>
                        <path d="M10.5234657,14.4223827 L10.5234657,18.4115523 L11.5884477,18.4115523 C12.8700361,18.4115523 13.3212996,17.7256318 13.3212996,16.967509 C13.3212996,16.4620939 13.1407942,16.1732852 12.8519856,15.9747292 C12.7617329,15.9025271 12.6534296,15.8483755 12.5270758,15.7942238 C12.5270758,15.7942238 12.5270758,15.7942238 12.5270758,15.7942238 C12.7075812,15.6137184 13.0505415,15.2166065 13.0505415,14.8194946 C13.0505415,14.3501805 12.7797834,14.0072202 12.3646209,13.8447653 C12.1299639,13.7545126 11.8592058,13.700361 11.534296,13.7184116 L10.4151625,13.7545126 L10.5234657,14.4223827 Z M12.6534296,17.0397112 C12.6534296,17.0577617 12.6534296,17.0577617 12.6534296,17.0397112 C12.6534296,17.0577617 12.6534296,17.0577617 12.6534296,17.0397112 C12.6534296,17.4729242 12.4368231,17.9061372 11.6787004,17.9061372 L11.1552347,17.9061372 L11.1552347,16.1552347 L11.5523466,16.1552347 C12.2743682,16.1732852 12.6534296,16.4079422 12.6534296,17.0397112 Z M12.1841155,15.7039711 C12.1841155,15.7039711 12.1841155,15.7039711 12.1841155,15.7039711 C12.1841155,15.7039711 12.1841155,15.7039711 12.1841155,15.7039711 C12.166065,15.7039711 12.166065,15.7039711 12.166065,15.7039711 C12.0036101,15.66787 11.8411552,15.66787 11.6787004,15.6498195 L11.1732852,15.6498195 L11.1732852,14.2599278 C11.2635379,14.2599278 11.3718412,14.2599278 11.4620939,14.2599278 C11.4620939,14.2599278 11.4620939,14.2599278 11.4620939,14.2599278 C11.4620939,14.2599278 11.4620939,14.2599278 11.4620939,14.2599278 C12.1480144,14.2599278 12.4548736,14.4945848 12.4548736,14.9819495 C12.4548736,15.2527076 12.3465704,15.5054152 12.1841155,15.7039711 Z" id="Shape" fill="#0FB3C6" fill-rule="nonzero"></path>
                        <path d="M11.732852,25.3068592 C12.6353791,25.3068592 13.3935018,24.6931408 13.700361,23.8086643 C13.8086643,23.5198556 13.8628159,23.1949458 13.8628159,22.8519856 C13.8628159,22.166065 13.700361,21.5703971 13.3574007,21.1552347 C13.3574007,21.1371841 13.3393502,21.1371841 13.3212996,21.1191336 C13.2851986,21.0830325 13.2490975,21.0288809 13.2129964,20.9927798 C13.2129964,20.9927798 13.1949458,20.9747292 13.1949458,20.9747292 C12.8700361,20.66787 12.400722,20.4693141 11.8231047,20.4693141 C11.8231047,20.4693141 11.8231047,20.4693141 11.8231047,20.4693141 C10.6137184,20.4693141 9.71119134,21.5523466 9.71119134,22.9241877 C9.71119134,24.2418773 10.4512635,25.3068592 11.732852,25.3068592 Z M13.1768953,22.8880866 C13.1768953,23.3393502 13.0685921,23.7545126 12.8880866,24.0794224 C12.8880866,24.0794224 12.8880866,24.0974729 12.8700361,24.0974729 C12.8700361,24.1155235 12.8519856,24.1155235 12.8519856,24.133574 C12.6173285,24.5306859 12.2382671,24.801444 11.7870036,24.801444 C10.9386282,24.801444 10.3971119,23.9530686 10.3971119,22.8880866 C10.3971119,22.8158845 10.3971119,22.7617329 10.3971119,22.6895307 C10.3971119,22.6895307 10.3971119,22.6714801 10.3971119,22.6714801 C10.4693141,21.7148014 10.9927798,20.9747292 11.7870036,20.9747292 C12.0397112,20.9747292 12.2563177,21.0649819 12.4548736,21.1913357 C12.9061372,21.5162455 13.1768953,22.1480144 13.1768953,22.8880866 Z" id="Shape" fill="#0FB3C6" fill-rule="nonzero"></path>
                        <polygon id="Shape" fill="#0FB3C6" fill-rule="nonzero" points="24.8555957 20.5595668 24.133574 20.5595668 24.2238267 21.2093863 24.2238267 25.198556 24.2238267 25.2166065 24.9458484 25.2166065 24.9458484 25.198556 24.9277978 25.1444043 24.8736462 24.6750903 24.8736462 20.5595668"></polygon>
                        <polygon id="Shape" fill="#0FB3C6" fill-rule="nonzero" points="7.20216606 25.2166065 7.90613718 25.2166065 7.90613718 25.2166065 7.83393502 24.6750903 7.83393502 21.101083 9.35018051 21.101083 9.35018051 21.101083 9.35018051 20.5595668 9.35018051 20.5595668 5.70397112 20.5595668 5.70397112 21.101083 7.20216606 21.101083"></polygon>
                        <polygon id="Shape" fill="#0FB3C6" fill-rule="nonzero" points="22.9061372 18.4296029 22.9061372 18.4296029 25.1624549 18.4296029 25.1624549 18.4296029 25.2527076 18.1227437 25.3068592 17.9061372 25.3068592 17.9061372 23.5379061 17.9061372 23.5379061 17.9061372 23.5379061 16.299639 24.8736462 16.299639 25.0180505 15.7761733 25.0180505 15.7761733 23.5379061 15.7761733 23.5379061 15.7761733 23.5379061 14.2960289 25.234657 14.2960289 25.234657 13.7725632 25.234657 13.7725632 22.8158845 13.7725632 22.9061372 14.4223827"></polygon>
                        <path d="M22.7617329,24.4404332 L21.3176895,20.4693141 L20.8844765,20.5595668 L19.0794224,25.2166065 L19.0974729,25.2166065 L19.6931408,25.2166065 L20.1444043,24.0072202 L21.8772563,24.0072202 L21.8772563,24.0252708 L22.3104693,25.234657 L22.3285199,25.234657 L23.0866426,25.234657 L22.7617329,24.4404332 Z M21.732852,23.465704 L21.3898917,23.465704 L20.3610108,23.465704 L20.9927798,21.8411552 L21.0830325,21.5523466 L21.1552347,21.8231047 L21.732852,23.465704 Z" id="Shape" fill="#0FB3C6" fill-rule="nonzero"></path>
                        <polygon id="Shape" fill="#000000" fill-rule="nonzero" points="21.0830325 21.5703971 21.0830325 21.5523466 20.9927798 21.8411552 20.3790614 23.465704 20.3790614 23.465704 21.3898917 23.465704 21.732852 23.465704 21.732852 23.465704 21.1552347 21.8411552"></polygon>
                        <path d="M11.1552347,16.1732852 L11.1552347,17.9241877 L11.6787004,17.9241877 C12.4368231,17.9241877 12.6534296,17.4909747 12.6534296,17.0577617 C12.6534296,17.0577617 12.6534296,17.0577617 12.6534296,17.0577617 C12.6534296,16.4079422 12.2743682,16.1913357 11.5523466,16.1913357 L11.1552347,16.1913357 L11.1552347,16.1732852 Z" id="Shape" fill="#000000" fill-rule="nonzero"></path>
                        <path d="M11.7870036,20.9747292 C11.0108303,20.9747292 10.4693141,21.7148014 10.3971119,22.6714801 C10.3971119,22.6714801 10.3971119,22.6895307 10.3971119,22.6895307 C10.3971119,22.7617329 10.3971119,22.8158845 10.3971119,22.8880866 C10.3971119,23.9350181 10.9566787,24.801444 11.7870036,24.801444 C12.2382671,24.801444 12.6173285,24.5487365 12.8519856,24.133574 C12.8519856,24.1155235 12.8700361,24.1155235 12.8700361,24.0974729 C12.8700361,24.0974729 12.8700361,24.0794224 12.8880866,24.0794224 C13.0685921,23.7545126 13.1768953,23.3393502 13.1768953,22.8880866 C13.1768953,22.1480144 12.9061372,21.5162455 12.4548736,21.1913357 C12.2743682,21.0649819 12.0397112,20.9747292 11.7870036,20.9747292 Z" id="Shape" fill="#000000" fill-rule="nonzero"></path>
                        <path d="M11.4620939,14.2599278 C11.4620939,14.2599278 11.4620939,14.2599278 11.4620939,14.2599278 C11.3718412,14.2599278 11.2635379,14.2599278 11.1552347,14.2779783 L11.1552347,15.6498195 L11.6606498,15.6498195 C11.8231047,15.6498195 11.9855596,15.66787 12.1480144,15.7039711 C12.1480144,15.7039711 12.166065,15.7039711 12.166065,15.7039711 C12.166065,15.7039711 12.166065,15.7039711 12.166065,15.7039711 C12.3285199,15.5054152 12.4368231,15.2527076 12.4368231,14.9819495 C12.4548736,14.4945848 12.1480144,14.2599278 11.4620939,14.2599278 Z" id="Shape" fill="#000000" fill-rule="nonzero"></path>
                    </g>
                </g>
            </g>
        </g>
    </g>
</svg>