<?xml version="1.0" encoding="UTF-8"?>
<svg width="24px" height="24px" viewBox="0 0 24 24" version="1.1" xmlns="http://www.w3.org/2000/svg" xmlns:xlink="http://www.w3.org/1999/xlink">
    <!-- Generator: Sketch 50.2 (55047) - http://www.bohemiancoding.com/sketch -->
    <title>Call</title>
    <desc>Created with Sketch.</desc>
    <defs></defs>
    <g id="Home-Page" stroke="none" stroke-width="1" fill="none" fill-rule="evenodd">
        <g id="lexstart_homepage_UI_v4" transform="translate(-593.000000, -3615.000000)">
            <g id="Footer" transform="translate(0.000000, 3392.000000)">
                <g id="Call" transform="translate(587.000000, 217.000000)">
                    <g>
                        <rect id="Rectangle-11" opacity="0" x="0" y="0" width="36" height="36"></rect>
                        <g id="phone-call-2" transform="translate(6.000000, 6.000000)" fill="#FDFDFD" fill-rule="nonzero">
                            <path d="M19.116,23.7848 C18.1264,23.7848 16.9312,23.5368 15.6168,23.0408 C12.7352,21.9544 9.6,19.8072 6.7888,16.996 C3.9768,14.184 1.8296,11.048 0.7424,8.1664 C-0.2456,5.5464 -0.248,3.396 0.7368,2.412 C0.8784,2.2704 1.0224,2.1184 1.1712,1.9616 C2.0696,1.0168 3.0848,-0.0464 4.4304,0.0016 C5.3576,0.04 6.256,0.616 7.176,1.7608 C9.8944,5.1416 8.6688,6.3464 7.2504,7.7432 L7,7.9912 C6.768,8.2232 6.3296,9.2976 10.408,13.376 C11.7392,14.7072 12.8744,15.6816 13.7816,16.2712 C14.3528,16.6424 15.3744,17.204 15.7936,16.7848 L16.0456,16.5304 C17.4408,15.1152 18.6456,13.8936 22.024,16.6096 C23.1688,17.5296 23.744,18.4272 23.7824,19.356 C23.8376,20.7008 22.7664,21.7184 21.8208,22.616 C21.6648,22.7648 21.5128,22.9088 21.3712,23.0496 C20.8824,23.5392 20.1008,23.7848 19.116,23.7848 Z M4.3344,0.8 C3.3784,0.8 2.5152,1.7088 1.7512,2.5128 C1.5976,2.6744 1.4488,2.8312 1.3024,2.9776 C0.5688,3.7104 0.6432,5.636 1.4912,7.8848 C2.5392,10.6624 4.6216,13.6976 7.3552,16.4312 C10.088,19.1632 13.1216,21.2456 15.9,22.2928 C18.1488,23.1424 20.0744,23.2144 20.8064,22.4824 C20.9528,22.336 21.1096,22.1872 21.2712,22.0344 C22.0928,21.2536 23.0248,20.3688 22.984,19.3872 C22.956,18.7128 22.4648,17.9872 21.524,17.2312 C18.7088,14.9672 17.9216,15.7664 16.616,17.0904 L16.36,17.3488 C15.736,17.9736 14.7224,17.8352 13.3464,16.9408 C12.392,16.32 11.2128,15.3104 9.8432,13.94 C6.4584,10.556 5.376,8.4848 6.4352,7.4232 L6.6904,7.1712 C8.0176,5.8656 8.8184,5.0776 6.5536,2.2608 C5.796,1.3208 5.0712,0.8296 4.3968,0.8008 C4.376,0.8 4.3552,0.8 4.3344,0.8 Z" id="Shape"></path>
                        </g>
                    </g>
                </g>
            </g>
        </g>
    </g>
</svg>