<?xml version="1.0" encoding="UTF-8"?>
<svg width="64px" height="42px" viewBox="0 0 64 42" version="1.1" xmlns="http://www.w3.org/2000/svg" xmlns:xlink="http://www.w3.org/1999/xlink">
    <!-- Generator: Sketch 50.2 (55047) - http://www.bohemiancoding.com/sketch -->
    <title>Complaince</title>
    <desc>Created with Sketch.</desc>
    <defs></defs>
    <g id="Home-Page" stroke="none" stroke-width="1" fill="none" fill-rule="evenodd">
        <g id="lexstart_homepage_UI_v4" transform="translate(-1027.000000, -1823.000000)">
            <g id="Group-10" transform="translate(135.000000, 1745.000000)">
                <g id="Group-7" transform="translate(757.000000, 1.000000)">
                    <g id="Group-4" transform="translate(20.000000, 50.000000)">
                        <g id="Group-21" transform="translate(99.000000, 0.000000)">
                            <g id="Complaince" transform="translate(16.000000, 27.000000)">
                                <path d="M55.5,24.35175 L51.057125,26.749375 L42.118125,18.03975 L42.995875,18.03975 C43.68625,18.03975 44.245875,17.48 44.245875,16.78975 C44.245875,16.0995 43.68625,15.53975 42.995875,15.53975 L34.782875,15.53975 C34.567375,15.53975 34.355625,15.595375 34.168,15.7015 L23.964125,21.466375 C23.199125,21.89875 22.238375,21.75925 21.627625,21.1275 C20.896625,20.371375 20.91025,19.1545 21.657875,18.414875 L31.122,9.05075 C32.913625,7.278 35.2885,6.301875 37.808875,6.301875 L55.5,6.301875 L55.5,24.35175 Z" id="Path" fill="#7ACCFF"></path>
                                <path d="M52.091625,33.533875 C51.4615,34.182375 50.4215,34.197125 49.773125,33.567125 L45.62875,29.539375 C45.624125,29.534875 45.619125,29.53125 45.6145,29.52675 L41.53175,25.559 C41.03675,25.07775 40.24525,25.08925 39.764125,25.584125 C39.283,26.07925 39.29425,26.870625 39.789375,27.35175 L46.277125,33.656875 C46.9255,34.287 46.940375,35.327125 46.31025,35.9755 C45.68025,36.624 44.640125,36.63875 43.99175,36.00875 L37.503875,29.703625 C37.490875,29.690875 37.47675,29.68 37.46325,29.668 L34.346125,26.63875 C33.851125,26.157625 33.05975,26.169 32.5785,26.663875 C32.097375,27.159 32.108625,27.950375 32.60375,28.4315 L39.0915,34.736625 C39.739875,35.36675 39.75475,36.406875 39.124625,37.05525 C38.819375,37.369375 38.410125,37.54575 37.97225,37.552 C37.53675,37.559875 37.120375,37.3935 36.806125,37.08825 L34.989125,35.3225 C34.948375,35.282875 34.904875,35.247875 34.860375,35.214875 C34.837125,35.194875 34.814625,35.174125 34.79075,35.1545 C33.97675,34.484125 32.973625,34.193375 31.996375,34.25925 C31.874,33.2875 31.3965,32.3585 30.582625,31.688 C29.76925,31.018 28.76675,30.727125 27.790125,30.792625 C27.663125,29.78175 27.16425,28.872 26.3745,28.2215 C25.58475,27.571 24.595875,27.25525 23.579875,27.324375 C23.457125,26.35325 22.97975,25.425 22.166375,24.754875 C21.346625,24.07975 20.3135,23.764625 19.255875,23.86625 C18.19875,23.968375 17.24475,24.476125 16.5695,25.295875 L15.552875,26.529875 C15.4675,26.6335 15.3885,26.74025 15.315375,26.849625 C14.471625,26.26575 13.50675,25.87 12.499625,25.6895 L12.499625,6.98625 L17.234375,6.98625 C17.31475,6.98625 17.394875,6.9785 17.473875,6.963 L27.68975,4.9695 C29.423,4.631375 31.17425,4.5955 32.885875,4.851875 C31.592625,5.4335 30.4005,6.247625 29.3635,7.27375 L19.899375,16.637875 C18.183125,18.335875 18.152,21.1295 19.83,22.865125 C20.687125,23.752 21.84475,24.21625 23.016625,24.216125 C23.761125,24.216 24.511375,24.028625 25.19375,23.643125 L35.111375,18.039875 L38.535625,18.039875 L52.058375,31.215625 C52.3725,31.52075 52.548875,31.93 52.555125,32.368 C52.561625,32.80575 52.396875,33.219875 52.091625,33.533875 Z" id="Path" fill="#7ACCFF"></path>
                                <g id="Compliance" fill-rule="nonzero">
                                    <path d="M62.75,10.7935 C63.440375,10.7935 64,10.23375 64,9.5435 L64,1.31575 C64,0.6255 63.440375,0.06575 62.75,0.06575 L56,0.06575 C54.888,0.06575 53.944125,0.796 53.620375,1.801875 L36.031125,1.801875 C36.017875,1.79525 36.0055,1.78775 35.991875,1.781625 C32.59775,0.2395 28.86975,-0.198375 25.21125,0.515875 L15.114,2.48625 L10.496,2.48625 C10.453375,1.14475 9.351625,0.06575 8,0.06575 L1.25,0.06575 C0.559625,0.06575 0,0.6255 0,1.31575 L0,9.35175 C0,10.042 0.559625,10.60175 1.25,10.60175 C1.940375,10.60175 2.5,10.042 2.5,9.35175 L2.5,2.56575 L8,2.56575 L8,26.26425 L2.5,26.26425 L2.5,19.60175 C2.5,18.9115 1.940375,18.35175 1.25,18.35175 C0.559625,18.35175 0,18.9115 0,19.60175 L0,27.51425 C0,28.2045 0.559625,28.76425 1.25,28.76425 L8,28.76425 C9.3785,28.76425 10.5,27.64275 10.5,26.26425 L10.5,26.2505 C11.073625,26.4115 11.616375,26.681 12.090125,27.048 L12.67375,27.5 C12.784625,28.492 13.264875,29.443625 14.09425,30.126875 C14.8335,30.73575 15.7285,31.03225 16.61875,31.03225 C16.70825,31.03225 16.797625,31.028125 16.886875,31.022125 C17.01375,32.033125 17.51275,32.94275 18.3025,33.59325 C19.04175,34.202125 19.93675,34.49875 20.827125,34.498625 C20.916625,34.498625 21.005875,34.494625 21.095125,34.488625 C21.222,35.499625 21.721125,36.40925 22.510875,37.059875 C23.229625,37.65175 24.1125,37.9675 25.03175,37.9675 C25.122625,37.9675 25.214,37.96325 25.3055,37.957 C25.42825,38.928125 25.905625,39.856375 26.719,40.5265 C27.43775,41.118375 28.320625,41.434125 29.239875,41.434125 C29.369125,41.434125 29.49925,41.42775 29.629625,41.41525 C30.68675,41.313125 31.64075,40.805375 32.316,39.985625 L33.3325,38.751625 C33.631625,38.388625 33.85475,37.98775 34.005,37.5685 C34.596875,37.8845 35.26,38.052375 35.948,38.052375 C35.96825,38.052375 35.9885,38.052125 36.00875,38.051875 C37.114375,38.036125 38.147625,37.59075 38.91825,36.79775 C39.32475,36.3795 39.62425,35.896375 39.818625,35.382625 L40.25,35.801875 C41.053125,36.582375 42.094125,36.970875 43.1345,36.970875 C44.214375,36.970875 45.293375,36.551875 46.103625,35.71825 C46.56375,35.244875 46.88675,34.6885 47.075,34.0985 C47.653375,34.38525 48.2845,34.52925 48.91575,34.52925 C49.995625,34.52925 51.074625,34.110375 51.884875,33.276625 C52.6555,32.483625 53.07125,31.438125 53.055375,30.332375 C53.039625,29.22675 52.59425,28.1935 51.802375,27.424 L50.933875,26.57775 L53.5,25.192625 L53.5,26.26425 C53.5,27.64275 54.6215,28.76425 56,28.76425 L62.75,28.76425 C63.440375,28.76425 64,28.2045 64,27.51425 L64,19.22675 C64,18.5365 63.440375,17.97675 62.75,17.97675 C62.059625,17.97675 61.5,18.5365 61.5,19.22675 L61.5,26.26425 L56,26.26425 L56,23.10475 C56,23.101375 56,23.098 56,23.094625 L56,2.56575 L61.5,2.56575 L61.5,9.5435 C61.5,10.23375 62.059625,10.7935 62.75,10.7935 Z M18.778,26.76225 L17.7615,27.99625 C17.244,28.624625 16.312,28.714875 15.68375,28.197125 C15.0555,27.679625 14.965375,26.7475 15.482875,26.119375 L16.4995,24.885375 C16.750125,24.581 17.104375,24.3925 17.49675,24.354625 C17.545125,24.349875 17.593375,24.3475 17.641375,24.3475 C17.9825,24.3475 18.3105,24.46475 18.577125,24.6845 C19.205375,25.202 19.295375,26.134125 18.778,26.76225 Z M22.986125,30.229 L21.969625,31.463 C21.45225,32.091125 20.52,32.181375 19.891875,31.66375 C19.5875,31.413125 19.399125,31.059 19.361125,30.6665 C19.32325,30.274 19.440375,29.890375 19.691125,29.586 L20.70775,28.351875 C20.958375,28.0475 21.3125,27.859125 21.705,27.82125 C21.753375,27.8165 21.801625,27.814125 21.849625,27.814125 C22.19075,27.814125 22.51875,27.931375 22.785375,28.151125 C23.08975,28.40175 23.278125,28.756 23.316125,29.1485 C23.354,29.540875 23.236875,29.924375 22.986125,30.229 Z M27.1945,33.695125 L26.177875,34.92925 C25.92725,35.233625 25.573125,35.422 25.180625,35.459875 C24.78775,35.49825 24.40425,35.380875 24.100125,35.130125 C23.79575,34.8795 23.60725,34.52525 23.56925,34.13275 C23.531375,33.740375 23.6485,33.35675 23.89925,33.05225 L24.91575,31.81825 C25.20725,31.4645 25.630125,31.281375 26.056375,31.281375 C26.386875,31.281375 26.71925,31.3915 26.993625,31.6175 C27.621875,32.135 27.712,33.067 27.1945,33.695125 Z M31.4025,37.161875 L30.385875,38.395875 C30.13525,38.70025 29.781,38.88875 29.388625,38.926625 C28.99575,38.965125 28.612375,38.847375 28.308125,38.596625 C27.679875,38.079125 27.58975,37.147 28.10725,36.518875 L29.123875,35.284875 C29.3745,34.9805 29.72875,34.792125 30.12125,34.75425 C30.169625,34.7495 30.217875,34.747125 30.265875,34.747125 C30.607125,34.747125 30.935,34.864375 31.20175,35.084125 C31.506125,35.33475 31.6945,35.688875 31.7325,36.081375 C31.770375,36.473875 31.65325,36.8575 31.4025,37.161875 Z M50.091625,31.533875 C49.4615,32.182375 48.4215,32.197125 47.773125,31.567125 L43.62875,27.539375 C43.624125,27.534875 43.619125,27.53125 43.6145,27.52675 L39.53175,23.559 C39.03675,23.07775 38.24525,23.08925 37.764125,23.584125 C37.283,24.07925 37.29425,24.870625 37.789375,25.35175 L44.277125,31.656875 C44.9255,32.287 44.940375,33.327125 44.31025,33.9755 C43.68025,34.624 42.640125,34.63875 41.99175,34.00875 L35.503875,27.703625 C35.490875,27.690875 35.47675,27.68 35.46325,27.668 L32.346125,24.63875 C31.851125,24.157625 31.05975,24.169 30.5785,24.663875 C30.097375,25.159 30.108625,25.950375 30.60375,26.4315 L37.0915,32.736625 C37.739875,33.36675 37.75475,34.406875 37.124625,35.05525 C36.819375,35.369375 36.410125,35.54575 35.97225,35.552 C35.53675,35.559875 35.120375,35.3935 34.806125,35.08825 L32.989125,33.3225 C32.948375,33.282875 32.904875,33.247875 32.860375,33.214875 C32.837125,33.194875 32.814625,33.174125 32.79075,33.1545 C31.97675,32.484125 30.973625,32.193375 29.996375,32.25925 C29.874,31.2875 29.3965,30.3585 28.582625,29.688 C27.76925,29.018 26.76675,28.727125 25.790125,28.792625 C25.663125,27.78175 25.16425,26.872 24.3745,26.2215 C23.58475,25.571 22.595875,25.25525 21.579875,25.324375 C21.457125,24.35325 20.97975,23.425 20.166375,22.754875 C19.346625,22.07975 18.3135,21.764625 17.255875,21.86625 C16.19875,21.968375 15.24475,22.476125 14.5695,23.295875 L13.552875,24.529875 C13.4675,24.6335 13.3885,24.74025 13.315375,24.849625 C12.471625,24.26575 11.50675,23.87 10.499625,23.6895 L10.499625,4.98625 L15.234375,4.98625 C15.31475,4.98625 15.394875,4.9785 15.473875,4.963 L25.68975,2.9695 C27.423,2.631375 29.17425,2.5955 30.885875,2.851875 C29.592625,3.4335 28.4005,4.247625 27.3635,5.27375 L17.899375,14.637875 C16.183125,16.335875 16.152,19.1295 17.83,20.865125 C18.687125,21.752 19.84475,22.21625 21.016625,22.216125 C21.761125,22.216 22.511375,22.028625 23.19375,21.643125 L33.111375,16.039875 L36.535625,16.039875 L50.058375,29.215625 C50.3725,29.52075 50.548875,29.93 50.555125,30.368 C50.561625,30.80575 50.396875,31.219875 50.091625,31.533875 Z M53.5,22.35175 L49.057125,24.749375 L40.118125,16.03975 L40.995875,16.03975 C41.68625,16.03975 42.245875,15.48 42.245875,14.78975 C42.245875,14.0995 41.68625,13.53975 40.995875,13.53975 L32.782875,13.53975 C32.567375,13.53975 32.355625,13.595375 32.168,13.7015 L21.964125,19.466375 C21.199125,19.89875 20.238375,19.75925 19.627625,19.1275 C18.896625,18.371375 18.91025,17.1545 19.657875,16.414875 L29.122,7.05075 C30.913625,5.278 33.2885,4.301875 35.808875,4.301875 L53.5,4.301875 L53.5,22.35175 Z" id="Shape" fill="#253667"></path>
                                    <path d="M63.63375,13.53175 C63.40125,13.298 63.07875,13.1655 62.75,13.1655 C62.42125,13.1655 62.09875,13.298 61.86625,13.53175 C61.63375,13.76425 61.5,14.085625 61.5,14.4155 C61.5,14.74425 61.63375,15.06675 61.86625,15.29925 C62.09875,15.531625 62.42125,15.6655 62.75,15.6655 C63.07875,15.6655 63.40125,15.53175 63.63375,15.29925 C63.86625,15.0655 64,14.74425 64,14.4155 C64,14.0855 63.86625,13.76425 63.63375,13.53175 Z" id="Shape" fill="#3AA5F8"></path>
                                    <path d="M2.13375,13.53175 C1.90125,13.298 1.57875,13.1655 1.25,13.1655 C0.92125,13.1655 0.59875,13.298 0.36625,13.53175 C0.13375,13.76425 0,14.085625 0,14.4155 C0,14.74425 0.13375,15.0655 0.36625,15.29925 C0.59875,15.53175 0.92125,15.6655 1.25,15.6655 C1.57875,15.6655 1.90125,15.53175 2.13375,15.29925 C2.36625,15.0655 2.5,14.74425 2.5,14.4155 C2.5,14.0855 2.36625,13.76425 2.13375,13.53175 Z" id="Shape" fill="#3AA5F8"></path>
                                </g>
                            </g>
                        </g>
                    </g>
                </g>
            </g>
        </g>
    </g>
</svg>