<?xml version="1.0" encoding="UTF-8"?>
<svg width="24px" height="18px" viewBox="0 0 24 18" version="1.1" xmlns="http://www.w3.org/2000/svg" xmlns:xlink="http://www.w3.org/1999/xlink">
    <!-- Generator: Sketch 50.2 (55047) - http://www.bohemiancoding.com/sketch -->
    <title>Email</title>
    <desc>Created with Sketch.</desc>
    <defs></defs>
    <g id="Home-Page" stroke="none" stroke-width="1" fill="none" fill-rule="evenodd">
        <g id="lexstart_homepage_UI_v4" transform="translate(-593.000000, -3674.000000)">
            <g id="Footer" transform="translate(0.000000, 3392.000000)">
                <g id="Email" transform="translate(587.000000, 273.000000)">
                    <g>
                        <rect id="Rectangle-11" opacity="0.0800000057" x="0" y="0" width="36" height="36"></rect>
                        <g id="envelope" transform="translate(6.000000, 9.000000)" fill="#FFFFFF" fill-rule="nonzero">
                            <path d="M20.697561,0.0365853659 L2.88292683,0.0365853659 C1.29268293,0.0365853659 0,1.32926829 0,2.9195122 L0,15.095122 C0,16.6853659 1.29268293,17.9780488 2.88292683,17.9780488 L20.6926829,17.9780488 C22.2829268,17.9780488 23.5756098,16.6853659 23.5756098,15.095122 L23.5756098,2.92439024 C23.5804878,1.33414634 22.2878049,0.0365853659 20.697561,0.0365853659 Z M22.2634146,15.095122 C22.2634146,15.9585366 21.5609756,16.6609756 20.697561,16.6609756 L2.88292683,16.6609756 C2.0195122,16.6609756 1.31707317,15.9585366 1.31707317,15.095122 L1.31707317,2.92439024 C1.31707317,2.06097561 2.0195122,1.35853659 2.88292683,1.35853659 L20.6926829,1.35853659 C21.5560976,1.35853659 22.2585366,2.06097561 22.2585366,2.92439024 L22.2585366,15.095122 L22.2634146,15.095122 Z" id="Shape"></path>
                            <path d="M14.8682927,8.85609756 L20.6341463,3.68536585 C20.902439,3.44146341 20.9268293,3.02682927 20.6829268,2.75365854 C20.4390244,2.48536585 20.0243902,2.46097561 19.7512195,2.70487805 L11.8,9.84146341 L10.2487805,8.45609756 C10.2439024,8.45121951 10.2390244,8.44634146 10.2390244,8.44146341 C10.204878,8.40731707 10.1707317,8.37804878 10.1317073,8.34878049 L3.8195122,2.7 C3.54634146,2.45609756 3.13170732,2.4804878 2.88780488,2.75365854 C2.64390244,3.02682927 2.66829268,3.44146341 2.94146341,3.68536585 L8.77560976,8.9 L2.96585366,14.3390244 C2.70243902,14.5878049 2.68780488,15.002439 2.93658537,15.2707317 C3.06829268,15.4073171 3.24390244,15.4804878 3.4195122,15.4804878 C3.5804878,15.4804878 3.74146341,15.4219512 3.86829268,15.304878 L9.76585366,9.78780488 L11.3658537,11.2170732 C11.4926829,11.3292683 11.6487805,11.3829268 11.804878,11.3829268 C11.9609756,11.3829268 12.1219512,11.3243902 12.2439024,11.2121951 L13.8878049,9.73902439 L19.7512195,15.3097561 C19.8780488,15.4317073 20.0439024,15.4902439 20.204878,15.4902439 C20.3804878,15.4902439 20.5512195,15.4219512 20.6829268,15.2853659 C20.9317073,15.0219512 20.9219512,14.602439 20.6585366,14.3536585 L14.8682927,8.85609756 Z" id="Shape"></path>
                        </g>
                    </g>
                </g>
            </g>
        </g>
    </g>
</svg>