<?xml version="1.0" encoding="UTF-8"?>
<svg width="42px" height="49px" viewBox="0 0 42 49" version="1.1" xmlns="http://www.w3.org/2000/svg" xmlns:xlink="http://www.w3.org/1999/xlink">
    <!-- Generator: Sketch 50.2 (55047) - http://www.bohemiancoding.com/sketch -->
    <title>ESOP</title>
    <desc>Created with Sketch.</desc>
    <defs></defs>
    <g id="Home-Page" stroke="none" stroke-width="1" fill="none" fill-rule="evenodd">
        <g id="lexstart_homepage_UI_v4" transform="translate(-667.000000, -1816.000000)">
            <g id="Group-10" transform="translate(135.000000, 1745.000000)">
                <g id="Group-8" transform="translate(376.000000, 0.000000)">
                    <g id="Group-5" transform="translate(15.000000, 50.000000)">
                        <g id="Group-22" transform="translate(115.000000, 0.000000)">
                            <g id="ESOP" transform="translate(16.000000, 16.000000)">
                                <rect id="Rectangle-8" x="0" y="0" width="64" height="64"></rect>
                                <path d="M44.6999307,52.9383229 L22.047124,52.9383229 C18.245045,52.9383229 15.15149,49.8447678 15.15149,46.0426888 C15.15149,39.6460152 17.4966043,33.5786556 22.1069993,28.0102564 C25.0209286,24.4875953 27.984754,22.3021483 28.8828829,21.6634789 L37.8442134,21.6634789 C38.7523216,22.2921691 41.7061677,24.4875953 44.620097,28.0102564 C49.2404712,33.5786556 51.5756064,39.636036 51.5756064,46.0426888 C51.5955648,49.8447678 48.5020097,52.9383229 44.6999307,52.9383229 Z" id="Path" fill="#7ACCFF"></path>
                                <path d="M23.9431739,11.3848926 C25.1007623,10.3869716 26.2084546,9.94788635 27.5356895,9.94788635 C28.9527374,9.94788635 30.5494109,10.4268884 32.6749827,11.215246 C33.1140679,11.3749134 33.5830908,11.4547471 34.0620929,11.4547471 C35.2296604,11.4547471 36.3473319,10.9957034 37.4151074,10.5466389 C38.442966,10.1175329 39.4209286,9.70838531 40.3689536,9.70838531 C40.8279972,9.70838531 41.4766459,9.78821899 42.2949411,10.3670132 L37.5049203,19.2684685 L29.1623008,19.2684685 L23.9431739,11.3848926 Z" id="Path" fill="#7ACCFF"></path>
                                <path d="M32.9901594,35.4605683 L30.2458766,35.4605683 C29.2479556,35.4605683 28.4396396,34.6522523 28.4396396,33.6543313 C28.4396396,32.6564103 29.2479556,31.8480942 30.2458766,31.8480942 L35.0758143,31.8480942 C35.7344421,31.8480942 36.2733195,31.3092169 36.2733195,30.6505891 C36.2733195,29.9919612 35.7344421,29.4530839 35.0758143,29.4530839 L32.8105336,29.4530839 L32.8105336,27.7865558 C32.8105336,27.1279279 32.2716563,26.5890506 31.6130284,26.5890506 C30.9544006,26.5890506 30.4155232,27.1279279 30.4155232,27.7865558 L30.4155232,29.4530839 L30.2458766,29.4530839 C27.9306999,29.4530839 26.0446292,31.3391545 26.0446292,33.6543313 C26.0446292,35.969508 27.9306999,37.8555787 30.2458766,37.8555787 L32.9901594,37.8555787 C33.9880804,37.8555787 34.7963964,38.6638947 34.7963964,39.6618157 C34.7963964,40.6597367 33.9880804,41.4680527 32.9901594,41.4680527 L28.0704089,41.4680527 C27.411781,41.4680527 26.8729037,42.00693 26.8729037,42.6655579 C26.8729037,43.3241857 27.411781,43.8630631 28.0704089,43.8630631 L30.4255024,43.8630631 L30.4255024,45.569508 C30.4255024,46.2281358 30.9643798,46.7670132 31.6230076,46.7670132 C32.2816355,46.7670132 32.8205128,46.2281358 32.8205128,45.569508 L32.8205128,43.8630631 L33.020097,43.8630631 C33.0300762,43.8630631 33.0400554,43.8630631 33.0500347,43.8630631 C35.3452529,43.8331254 37.1914068,41.957034 37.1914068,39.6618157 C37.1914068,37.3466389 35.3053361,35.4605683 32.9901594,35.4605683 Z" id="Shape" fill="#253667" fill-rule="nonzero"></path>
                                <path d="M49.6155232,32.7462231 C48.3581428,29.8522523 46.6217602,27.0480942 44.426334,24.423562 C41.7718642,21.2302148 39.1273735,19.0946639 37.7801802,18.1067221 L42.8695773,8.66638947 C43.1190575,8.1973666 43.0392238,7.61857242 42.6500347,7.24934165 C41.3327789,5.96202356 39.9356895,5.33333333 38.3789328,5.33333333 C36.9519058,5.33333333 35.6446292,5.87221067 34.5069993,6.35121275 C33.6088704,6.72044352 32.7606376,7.07969508 32.0720721,7.07969508 C31.8625087,7.07969508 31.6828829,7.04975745 31.5032571,6.97990298 C29.1282051,6.11171171 27.3020097,5.57283437 25.5356895,5.57283437 C23.3003465,5.57283437 21.3943174,6.47096327 19.5282051,8.38697159 C19.1390159,8.78613999 19.0791407,9.41483021 19.3884962,9.88385308 L24.8770617,18.1765766 C23.5198891,19.1844768 20.9252945,21.3000693 18.3207207,24.423562 C16.1352737,27.0480942 14.388912,29.8522523 13.1315315,32.7462231 C11.5548164,36.3886348 10.7564796,40.1907138 10.7564796,44.0426888 C10.7564796,49.1620236 14.9277893,53.3333333 20.047124,53.3333333 L42.6999307,53.3333333 C47.8192654,53.3333333 51.9905752,49.1620236 51.9905752,44.0426888 C51.9905752,40.1907138 51.1922384,36.3886348 49.6155232,32.7462231 Z M21.9431739,9.38489258 C23.1007623,8.38697159 24.2084546,7.94788635 25.5356895,7.94788635 C26.9527374,7.94788635 28.5494109,8.42688843 30.6749827,9.21524602 C31.1140679,9.37491337 31.5830908,9.45474705 32.0620929,9.45474705 C33.2296604,9.45474705 34.3473319,8.9957034 35.4151074,8.54663895 C36.442966,8.11753292 37.4209286,7.70838531 38.3689536,7.70838531 C38.8279972,7.70838531 39.4766459,7.78821899 40.2949411,8.36701317 L35.5049203,17.2684685 L27.1623008,17.2684685 L21.9431739,9.38489258 Z M42.6999307,50.9383229 L20.047124,50.9383229 C16.245045,50.9383229 13.15149,47.8447678 13.15149,44.0426888 C13.15149,37.6460152 15.4966043,31.5786556 20.1069993,26.0102564 C23.0209286,22.4875953 25.984754,20.3021483 26.8828829,19.6634789 L35.8442134,19.6634789 C36.7523216,20.2921691 39.7061677,22.4875953 42.620097,26.0102564 C47.2404712,31.5786556 49.5756064,37.636036 49.5756064,44.0426888 C49.5955648,47.8447678 46.5020097,50.9383229 42.6999307,50.9383229 Z" id="Shape" fill="#253667" fill-rule="nonzero"></path>
                            </g>
                        </g>
                    </g>
                </g>
            </g>
        </g>
    </g>
</svg>