<?xml version="1.0" encoding="UTF-8"?>
<svg width="28px" height="28px" viewBox="0 0 28 28" version="1.1" xmlns="http://www.w3.org/2000/svg" xmlns:xlink="http://www.w3.org/1999/xlink">
    <!-- Generator: Sketch 50.2 (55047) - http://www.bohemiancoding.com/sketch -->
    <title>facebook-logo</title>
    <desc>Created with Sketch.</desc>
    <defs></defs>
    <g id="Home-Page" stroke="none" stroke-width="1" fill="none" fill-rule="evenodd">
        <g id="lexstart_homepage_UI_v4" transform="translate(-1060.000000, -3659.000000)" fill="#FFFFFF" fill-rule="nonzero">
            <g id="Footer" transform="translate(0.000000, 3392.000000)">
                <g id="Group" transform="translate(1060.000000, 120.000000)">
                    <g id="Group-15" transform="translate(0.000000, 147.000000)">
                        <g id="Group-9">
                            <g id="Group-8">
                                <g id="facebook-logo">
                                    <path d="M28,4.66697778 C28,2.2148 25.7861333,0 23.3333333,0 L4.66666667,0 C2.21386667,0 0,2.2148 0,4.66697778 L0,23.3330222 C0,25.7852 2.21386667,28 4.66697778,28 L14,28 L14,17.4222222 L10.5777778,17.4222222 L10.5777778,12.7555556 L14,12.7555556 L14,10.9374222 C14,7.80173333 16.3544889,4.97777778 19.25,4.97777778 L23.0222222,4.97777778 L23.0222222,9.64444444 L19.25,9.64444444 C18.8371556,9.64444444 18.3555556,10.1456444 18.3555556,10.8963556 L18.3555556,12.7555556 L23.0222222,12.7555556 L23.0222222,17.4222222 L18.3555556,17.4222222 L18.3555556,28 L23.3333333,28 C25.7861333,28 28,25.7852 28,23.3330222 L28,4.66697778 Z" id="Facebook__x28_alt_x29_"></path>
                                </g>
                            </g>
                        </g>
                    </g>
                </g>
            </g>
        </g>
    </g>
</svg>