<?xml version="1.0" encoding="UTF-8"?>
<svg width="344px" height="418px" viewBox="0 0 344 418" version="1.1" xmlns="http://www.w3.org/2000/svg" xmlns:xlink="http://www.w3.org/1999/xlink">
    <!-- Generator: Sketch 50.2 (55047) - http://www.bohemiancoding.com/sketch -->
    <title>Fill 1</title>
    <desc>Created with Sketch.</desc>
    <defs></defs>
    <g id="Terms-&amp;-Conditions" stroke="none" stroke-width="1" fill="none" fill-rule="evenodd">
        <g id="T_&amp;_C_UI_v1" transform="translate(-1022.000000, -175.000000)" fill="#FAFAFA">
            <path d="M1256.53027,394.122784 L1256.53027,287.828688 L1256.56169,287.828688 L1256.56169,263.61812 L1112.01882,263.61812 L1112.01882,501.700461 L1232.89287,501.700461 L1232.89287,477.489892 L1136.08876,477.489892 L1136.08876,287.828688 L1233.01128,287.828688 L1233.01128,394.122784 L1256.53027,394.122784 Z M1279.13828,456.439655 L1379.40271,456.439655 L1379.40271,455.557193 L1379.42204,455.557193 L1379.09824,370.947832 L1302.75393,370.947832 L1302.75393,331.908017 L1379.42204,331.908017 L1379.42204,308.237135 L1278.75165,308.237135 L1278.75165,393.940457 L1355.0718,394.037698 L1354.92923,432.224224 L1280.91193,432.224224 L1280.91193,432.073501 L1182.70387,432.073501 L1182.83194,308.39029 L1158.58077,308.39029 L1158.61219,455.21685 L1158.63393,455.21685 L1158.63393,456.291362 L1279.13828,456.291362 L1279.13828,456.439655 Z M1022,175 L1022,593 L1277.97357,593 L1277.97357,568.782138 L1046.06994,568.782138 L1046.06994,244.369271 L1066.79072,244.369271 L1066.79072,549.168636 L1471.34741,549.168636 L1471.34741,524.958068 L1090.84616,524.958068 L1090.84616,244.369271 L1256.76708,244.369271 L1256.76708,220.161134 L1046.06994,220.161134 L1046.06994,199.205707 L1446.15384,199.205707 L1446.15384,220.161134 L1278.67433,220.161134 L1278.67433,287.828688 L1400.92091,287.828688 L1400.92091,477.489892 L1256.56169,477.489892 L1256.56169,501.700461 L1424.96185,501.700461 L1424.96185,263.61812 L1302.75393,263.61812 L1302.75393,244.369271 L1446.15384,244.369271 L1446.15384,501.700461 L1471.34741,501.615375 L1471.34741,199.120621 L1490.92764,199.205707 L1490.92764,568.782138 L1302.75393,568.782138 L1302.75393,593 L1514.96859,593 L1514.96859,586.244184 L1515,586.244184 L1515,175 L1022,175 Z" id="Fill-1"></path>
        </g>
    </g>
</svg>