<?xml version="1.0" encoding="UTF-8"?>
<svg width="80px" height="68px" viewBox="0 0 80 68" version="1.1" xmlns="http://www.w3.org/2000/svg" xmlns:xlink="http://www.w3.org/1999/xlink">
    <!-- Generator: Sketch 50.2 (55047) - http://www.bohemiancoding.com/sketch -->
    <title>Lex_logo</title>
    <desc>Created with Sketch.</desc>
    <defs>
        <path d="M37.7405038,35.2707479 L37.7405038,18.1612891 L37.7455589,18.1612891 L37.7455589,14.2642737 L14.4857866,14.2642737 L14.4857866,52.5868163 L33.9367843,52.5868163 L33.9367843,48.6898009 L18.3591101,48.6898009 L18.3591101,18.1612891 L33.9558379,18.1612891 L33.9558379,35.2707479 L37.7405038,35.2707479 Z M41.3785738,45.3014832 L57.5130795,45.3014832 L57.5130795,45.1594392 L57.5161903,45.1594392 L57.4640846,31.5404289 L45.1787937,31.5404289 L45.1787937,25.2564475 L57.5161903,25.2564475 L57.5161903,21.4463021 L41.316358,21.4463021 L41.316358,35.2414 L53.5977604,35.2570522 L53.5748183,41.4036852 L41.6639888,41.4036852 L41.6639888,41.3794242 L25.8603935,41.3794242 L25.8810024,21.4709543 L21.9785153,21.4709543 L21.9835703,45.1046563 L21.98707,45.1046563 L21.98707,45.2776135 L41.3785738,45.2776135 L41.3785738,45.3014832 Z M0,0 L0,67.2827004 L41.1911486,67.2827004 L41.1911486,63.3845111 L3.8733235,63.3845111 L3.8733235,11.1659136 L7.20770248,11.1659136 L7.20770248,60.2274552 L72.3087787,60.2274552 L72.3087787,56.3304398 L11.0786929,56.3304398 L11.0786929,11.1659136 L37.778611,11.1659136 L37.778611,7.26928957 L3.8733235,7.26928957 L3.8733235,3.89623277 L68.2546405,3.89623277 L68.2546405,7.26928957 L41.3039148,7.26928957 L41.3039148,18.1612891 L60.9757786,18.1612891 L60.9757786,48.6898009 L37.7455589,48.6898009 L37.7455589,52.5868163 L64.8444359,52.5868163 L64.8444359,14.2642737 L45.1787937,14.2642737 L45.1787937,11.1659136 L68.2546405,11.1659136 L68.2546405,52.5868163 L72.3087787,52.5731206 L72.3087787,3.88253707 L75.459621,3.89623277 L75.459621,63.3845111 L45.1787937,63.3845111 L45.1787937,67.2827004 L79.3282783,67.2827004 L79.3282783,66.1952613 L79.3333333,66.1952613 L79.3333333,0 L0,0 Z" id="path-1"></path>
    </defs>
    <g id="Home-Page" stroke="none" stroke-width="1" fill="none" fill-rule="evenodd">
        <g id="lexstart_homepage_UI_v4" transform="translate(-1124.000000, -3512.000000)">
            <g id="Footer" transform="translate(0.000000, 3392.000000)">
                <g id="Group" transform="translate(1060.000000, 120.000000)">
                    <g id="Lex_logo" transform="translate(64.000000, 0.000000)">
                        <mask id="mask-2" fill="white">
                            <use xlink:href="#path-1"></use>
                        </mask>
                        <g id="Clip-2"></g>
                        <path d="M37.7405038,35.2707479 L37.7405038,18.1612891 L37.7455589,18.1612891 L37.7455589,14.2642737 L14.4857866,14.2642737 L14.4857866,52.5868163 L33.9367843,52.5868163 L33.9367843,48.6898009 L18.3591101,48.6898009 L18.3591101,18.1612891 L33.9558379,18.1612891 L33.9558379,35.2707479 L37.7405038,35.2707479 Z M41.3785738,45.3014832 L57.5130795,45.3014832 L57.5130795,45.1594392 L57.5161903,45.1594392 L57.4640846,31.5404289 L45.1787937,31.5404289 L45.1787937,25.2564475 L57.5161903,25.2564475 L57.5161903,21.4463021 L41.316358,21.4463021 L41.316358,35.2414 L53.5977604,35.2570522 L53.5748183,41.4036852 L41.6639888,41.4036852 L41.6639888,41.3794242 L25.8603935,41.3794242 L25.8810024,21.4709543 L21.9785153,21.4709543 L21.9835703,45.1046563 L21.98707,45.1046563 L21.98707,45.2776135 L41.3785738,45.2776135 L41.3785738,45.3014832 Z M0,67.2827004 L41.1911486,67.2827004 L41.1911486,63.3845111 L3.8733235,63.3845111 L3.8733235,11.1659136 L7.20770248,11.1659136 L7.20770248,60.2274552 L72.3087787,60.2274552 L72.3087787,56.3304398 L11.0786929,56.3304398 L11.0786929,11.1659136 L37.778611,11.1659136 L37.778611,7.26928957 L3.8733235,7.26928957 L3.8733235,3.89623277 L68.2546405,3.89623277 L68.2546405,7.26928957 L41.3039148,7.26928957 L41.3039148,18.1612891 L60.9757786,18.1612891 L60.9757786,48.6898009 L37.7455589,48.6898009 L37.7455589,52.5868163 L64.8444359,52.5868163 L64.8444359,14.2642737 L45.1787937,14.2642737 L45.1787937,11.1659136 L68.2546405,11.1659136 L68.2546405,52.5868163 L72.3087787,52.5731206 L72.3087787,3.88253707 L75.459621,3.89623277 L75.459621,63.3845111 L45.1787937,63.3845111 L45.1787937,67.2827004 L79.3282783,67.2827004 L79.3282783,66.1952613 L79.3333333,0 L0,0 L0,67.2827004 Z" id="Fill-1" fill="#FFFFFF" mask="url(#mask-2)"></path>
                    </g>
                </g>
            </g>
        </g>
    </g>
</svg>