<?xml version="1.0" encoding="UTF-8"?>
<svg width="56px" height="48px" viewBox="0 0 56 48" version="1.1" xmlns="http://www.w3.org/2000/svg" xmlns:xlink="http://www.w3.org/1999/xlink">
    <!-- Generator: Sketch 50.2 (55047) - http://www.bohemiancoding.com/sketch -->
    <title>Lex_logo</title>
    <desc>Created with Sketch.</desc>
    <defs>
        <path d="M26.6403556,24.8969986 L26.6403556,12.8197335 L26.6439239,12.8197335 L26.6439239,10.0688991 L10.2252611,10.0688991 L10.2252611,37.1201056 L23.9553771,37.1201056 L23.9553771,34.3692712 L12.9593718,34.3692712 L12.9593718,12.8197335 L23.9688267,12.8197335 L23.9688267,24.8969986 L26.6403556,24.8969986 Z M29.208405,31.9775176 L40.5974679,31.9775176 L40.5974679,31.8772512 L40.5996638,31.8772512 L40.5628832,22.2638321 L31.8909132,22.2638321 L31.8909132,17.8280806 L40.5996638,17.8280806 L40.5996638,15.1385662 L29.164488,15.1385662 L29.164488,24.8762824 L37.8337132,24.887331 L37.8175188,29.2261307 L29.4098745,29.2261307 L29.4098745,29.2090053 L18.2543954,29.2090053 L18.2689429,15.1559678 L15.5142461,15.1559678 L15.5178143,31.8385809 L15.5202847,31.8385809 L15.5202847,31.9606684 L29.208405,31.9606684 L29.208405,31.9775176 Z M0,0 L0,47.4936709 L29.0761049,47.4936709 L29.0761049,44.7420078 L2.7341107,44.7420078 L2.7341107,7.8818214 L5.08778998,7.8818214 L5.08778998,42.5134978 L51.0414908,42.5134978 L51.0414908,39.7626634 L7.8202538,39.7626634 L7.8202538,7.8818214 L26.6672548,7.8818214 L26.6672548,5.13126323 L2.7341107,5.13126323 L2.7341107,2.75028196 L48.1797462,2.75028196 L48.1797462,5.13126323 L29.1557046,5.13126323 L29.1557046,12.8197335 L43.0417261,12.8197335 L43.0417261,34.3692712 L26.6439239,34.3692712 L26.6439239,37.1201056 L45.772543,37.1201056 L45.772543,10.0688991 L31.8909132,10.0688991 L31.8909132,7.8818214 L48.1797462,7.8818214 L48.1797462,37.1201056 L51.0414908,37.1104381 L51.0414908,2.7406144 L53.2656148,2.75028196 L53.2656148,44.7420078 L31.8909132,44.7420078 L31.8909132,47.4936709 L55.9964317,47.4936709 L55.9964317,46.7260668 L56,46.7260668 L56,0 L0,0 Z" id="path-1"></path>
    </defs>
    <g id="Home-Page" stroke="none" stroke-width="1" fill="none" fill-rule="evenodd">
        <g id="lexstart_homepage_UI_v5" transform="translate(-60.000000, -11.000000)">
            <g id="Navigation_Bar" transform="translate(60.000000, 10.000000)">
                <g id="Lex_logo" transform="translate(0.000000, 1.000000)">
                    <mask id="mask-2" fill="white">
                        <use xlink:href="#path-1"></use>
                    </mask>
                    <g id="Clip-2"></g>
                    <path d="M26.6403556,24.8969986 L26.6403556,12.8197335 L26.6439239,12.8197335 L26.6439239,10.0688991 L10.2252611,10.0688991 L10.2252611,37.1201056 L23.9553771,37.1201056 L23.9553771,34.3692712 L12.9593718,34.3692712 L12.9593718,12.8197335 L23.9688267,12.8197335 L23.9688267,24.8969986 L26.6403556,24.8969986 Z M29.208405,31.9775176 L40.5974679,31.9775176 L40.5974679,31.8772512 L40.5996638,31.8772512 L40.5628832,22.2638321 L31.8909132,22.2638321 L31.8909132,17.8280806 L40.5996638,17.8280806 L40.5996638,15.1385662 L29.164488,15.1385662 L29.164488,24.8762824 L37.8337132,24.887331 L37.8175188,29.2261307 L29.4098745,29.2261307 L29.4098745,29.2090053 L18.2543954,29.2090053 L18.2689429,15.1559678 L15.5142461,15.1559678 L15.5178143,31.8385809 L15.5202847,31.8385809 L15.5202847,31.9606684 L29.208405,31.9606684 L29.208405,31.9775176 Z M0,0 L0,47.4936709 L29.0761049,47.4936709 L29.0761049,44.7420078 L2.7341107,44.7420078 L2.7341107,7.8818214 L5.08778998,7.8818214 L5.08778998,42.5134978 L51.0414908,42.5134978 L51.0414908,39.7626634 L7.8202538,39.7626634 L7.8202538,7.8818214 L26.6672548,7.8818214 L26.6672548,5.13126323 L2.7341107,5.13126323 L2.7341107,2.75028196 L48.1797462,2.75028196 L48.1797462,5.13126323 L29.1557046,5.13126323 L29.1557046,12.8197335 L43.0417261,12.8197335 L43.0417261,34.3692712 L26.6439239,34.3692712 L26.6439239,37.1201056 L45.772543,37.1201056 L45.772543,10.0688991 L31.8909132,10.0688991 L31.8909132,7.8818214 L48.1797462,7.8818214 L48.1797462,37.1201056 L51.0414908,37.1104381 L51.0414908,2.7406144 L53.2656148,2.75028196 L53.2656148,44.7420078 L31.8909132,44.7420078 L31.8909132,47.4936709 L55.9964317,47.4936709 L55.9964317,46.7260668 L56,46.7260668 L56,0 L0,0 Z" id="Fill-1" fill="#FFFFFF" mask="url(#mask-2)"></path>
                </g>
            </g>
        </g>
    </g>
</svg>