<?xml version="1.0" encoding="UTF-8"?>
<svg width="28px" height="28px" viewBox="0 0 28 28" version="1.1" xmlns="http://www.w3.org/2000/svg" xmlns:xlink="http://www.w3.org/1999/xlink">
    <!-- Generator: Sketch 50.2 (55047) - http://www.bohemiancoding.com/sketch -->
    <title>linkedin</title>
    <desc>Created with Sketch.</desc>
    <defs></defs>
    <g id="Home-Page" stroke="none" stroke-width="1" fill="none" fill-rule="evenodd">
        <g id="lexstart_homepage_UI_v4" transform="translate(-1118.000000, -3659.000000)" fill="#FFFFFF" fill-rule="nonzero">
            <g id="Footer" transform="translate(0.000000, 3392.000000)">
                <g id="Group" transform="translate(1060.000000, 120.000000)">
                    <g id="Group-15" transform="translate(0.000000, 147.000000)">
                        <g id="Group-9">
                            <g id="Group-8">
                                <g id="linkedin" transform="translate(58.000000, 0.000000)">
                                    <path d="M25.4671728,0 L2.53282723,0 C1.134,0 0,1.134 0,2.53282723 L0,25.4670995 C0,26.866 1.134,28 2.53282723,28 L25.4670995,28 C26.866,28 28,26.866 28,25.4670995 L28,2.53282723 C28,1.134 26.866,0 25.4671728,0 Z M8.66438743,24.1770471 C8.66438743,24.5841466 8.33439791,24.9141361 7.92729843,24.9141361 L4.78968586,24.9141361 C4.38258639,24.9141361 4.05259686,24.5841466 4.05259686,24.1770471 L4.05259686,11.0243037 C4.05259686,10.6172042 4.38258639,10.2872147 4.78968586,10.2872147 L7.92729843,10.2872147 C8.33439791,10.2872147 8.66438743,10.6172042 8.66438743,11.0243037 L8.66438743,24.1770471 Z M6.35849215,9.04737173 C4.71228272,9.04737173 3.37773822,7.71282723 3.37773822,6.0666178 C3.37773822,4.42040838 4.71228272,3.08586387 6.35849215,3.08586387 C8.00470157,3.08586387 9.33924607,4.42040838 9.33924607,6.0666178 C9.33924607,7.71282723 8.00477487,9.04737173 6.35849215,9.04737173 Z M25.061466,24.2364188 C25.061466,24.6106806 24.7580105,24.9141361 24.3837487,24.9141361 L21.0168586,24.9141361 C20.6425969,24.9141361 20.3391414,24.6106806 20.3391414,24.2364188 L20.3391414,18.0670366 C20.3391414,17.1467016 20.6090995,14.0340838 17.934,14.0340838 C15.8589948,14.0340838 15.4381152,16.1645759 15.3536021,17.1206806 L15.3536021,24.2364188 C15.3536021,24.6106806 15.0502199,24.9141361 14.6758848,24.9141361 L11.4195288,24.9141361 C11.045267,24.9141361 10.7418115,24.6106806 10.7418115,24.2364188 L10.7418115,10.9649319 C10.7418115,10.5906702 11.045267,10.2872147 11.4195288,10.2872147 L14.6758848,10.2872147 C15.0501466,10.2872147 15.3536021,10.5906702 15.3536021,10.9649319 L15.3536021,12.1124188 C16.1230157,10.9577487 17.2664712,10.0665131 19.7010785,10.0665131 C25.0923246,10.0665131 25.061466,15.103288 25.061466,17.8707435 L25.061466,24.2364188 Z" id="Shape"></path>
                                </g>
                            </g>
                        </g>
                    </g>
                </g>
            </g>
        </g>
    </g>
</svg>