<?xml version="1.0" encoding="UTF-8"?>
<svg width="16px" height="16px" viewBox="0 0 16 16" version="1.1" xmlns="http://www.w3.org/2000/svg" xmlns:xlink="http://www.w3.org/1999/xlink">
    <!-- Generator: Sketch 50.2 (55047) - http://www.bohemiancoding.com/sketch -->
    <title>Search</title>
    <desc>Created with Sketch.</desc>
    <defs></defs>
    <g id="Contact-us" stroke="none" stroke-width="1" fill="none" fill-rule="evenodd">
        <g id="contact_us_UI_v1" transform="translate(-826.000000, -24.000000)">
            <g id="Navigation_Bar">
                <g id="Group-2" transform="translate(508.000000, 10.000000)">
                    <g id="Search" transform="translate(318.000000, 14.000000)">
                        <path d="M7.74285714,13.1436735 C4.76163265,13.1436735 2.33877551,10.7208163 2.33877551,7.74285714 C2.33877551,4.76489796 4.76163265,2.33877551 7.74285714,2.33877551 C10.7208163,2.33877551 13.1469388,4.76489796 13.1469388,7.74285714 C13.1469388,10.7208163 10.7208163,13.1436735 7.74285714,13.1436735 Z" id="Path" fill="#7FADFA"></path>
                        <path d="M15.8040816,14.8636735 L11.957551,11.0171429 C12.9110204,9.85469388 13.4857143,8.36571429 13.4857143,6.74285714 C13.4857143,3.02040816 10.4653061,0 6.74285714,0 C3.01714286,0 0,3.02040816 0,6.74285714 C0,10.4653061 3.01714286,13.4857143 6.74285714,13.4857143 C8.36571429,13.4857143 9.85142857,12.9142857 11.0138776,11.9608163 L14.8604082,15.8040816 C15.1216327,16.0653061 15.5428571,16.0653061 15.8040816,15.8040816 C16.0653061,15.5461224 16.0653061,15.1216327 15.8040816,14.8636735 Z M6.74285714,12.1436735 C3.76163265,12.1436735 1.33877551,9.72081633 1.33877551,6.74285714 C1.33877551,3.76489796 3.76163265,1.33877551 6.74285714,1.33877551 C9.72081633,1.33877551 12.1469388,3.76489796 12.1469388,6.74285714 C12.1469388,9.72081633 9.72081633,12.1436735 6.74285714,12.1436735 Z" id="Shape" fill="#253667" fill-rule="nonzero"></path>
                    </g>
                </g>
            </g>
        </g>
    </g>
</svg>