<?xml version="1.0" encoding="UTF-8"?>
<svg width="49px" height="48px" viewBox="0 0 49 48" version="1.1" xmlns="http://www.w3.org/2000/svg" xmlns:xlink="http://www.w3.org/1999/xlink">
    <!-- Generator: Sketch 50.2 (55047) - http://www.bohemiancoding.com/sketch -->
    <title>startup</title>
    <desc>Created with Sketch.</desc>
    <defs></defs>
    <g id="Home-Page" stroke="none" stroke-width="1" fill="none" fill-rule="evenodd">
        <g id="lexstart_homepage_UI_v4" transform="translate(-283.000000, -1820.000000)">
            <g id="Group-10" transform="translate(135.000000, 1745.000000)">
                <g id="Group-9" transform="translate(0.000000, 1.000000)">
                    <g id="Group-6" transform="translate(20.000000, 50.000000)">
                        <g id="startup" transform="translate(120.000000, 16.000000)">
                            <rect id="Rectangle-8" x="0" y="0" width="64" height="64"></rect>
                            <path d="M55.2755765,11.7086118 C54.8963765,19.4542118 51.1651765,26.6231529 45.0386824,31.3773176 L30.2189176,42.8774588 C28.9899294,42.1593412 27.8444235,41.3114353 26.7960471,40.3507765 L31.7923765,35.3544471 C32.1613176,34.9855059 32.1613176,34.3871059 31.7923765,34.0180706 C31.4233412,33.6490353 30.8250353,33.6490353 30.456,34.0180706 L25.4643765,39.0096941 C24.5466353,37.9936941 23.7338353,36.8881882 23.0417882,35.7057882 L35.1929412,20.7458824 C39.8453647,15.0179765 46.7374118,11.4631529 54.1018353,10.9931294 L54.9816471,10.9370353 C55.0969412,10.9298824 55.1741176,10.9871059 55.2096941,11.0221176 C55.2451765,11.0570353 55.3038118,11.1329882 55.2981647,11.2488471 L55.2755765,11.7086118 Z" id="Path" fill="#7ACCFF"></path>
                            <path d="M26.3904941,43.0940235 C25.8972235,43.5055059 25.3915294,43.9275294 24.9222588,44.3135059 C24.0145882,43.8219294 23.1935059,43.2085647 22.4759529,42.4849882 C21.7809882,41.7842824 21.1894588,40.9864471 20.7124706,40.1075765 L22.7525647,37.6856471 C23.3694118,38.5132235 24.0446118,39.2971294 24.7740235,40.0315294 C24.7745882,40.0320941 24.7751529,40.0325647 24.7757176,40.0331294 C24.7759059,40.0333176 24.7760941,40.0336 24.7762824,40.0337882 C24.7765647,40.0340706 24.7768471,40.0342588 24.7771294,40.0345412 C25.5858824,40.8484706 26.4558118,41.5953882 27.3786353,42.2708706 C27.0528,42.5413647 26.7189647,42.8199529 26.3904941,43.0940235 Z" id="Path" fill="#7ACCFF"></path>
                            <path d="M13.1174588,32.0420706 L17.1656471,27.9938824 C19.8447059,25.3148235 23.4059294,23.8379294 27.1941647,23.8342588 L31.1551059,23.9505882 L24.1235765,32.6075294 L13.1174588,32.0420706 Z" id="Path" fill="#7ACCFF"></path>
                            <path d="M42.1176471,39.7456 C42.1176471,43.5390118 40.6404706,47.1053176 37.9580235,49.7877647 L33.9098353,53.8359529 L33.3449412,42.8437647 L42.1175529,36.0362353 L42.1175529,39.7456 L42.1176471,39.7456 Z" id="Path" fill="#7ACCFF"></path>
                            <circle id="Oval" fill="#253667" fill-rule="nonzero" cx="8.94682353" cy="55.0066824" r="1"></circle>
                            <circle id="Oval" fill="#253667" fill-rule="nonzero" cx="33.1298824" cy="30.9936941" r="1"></circle>
                            <path d="M45.5039059,19.0147765 C44.7442824,18.2550588 43.7343059,17.8368 42.6600471,17.8368 C41.5857882,17.8368 40.5757176,18.2552471 39.8161882,19.0147765 C38.2480941,20.5829647 38.2480941,23.1344941 39.8161882,24.7025882 C40.6003765,25.4866824 41.6300235,25.8785882 42.6600471,25.8785882 C43.6897882,25.8785882 44.7199059,25.4864941 45.5039059,24.7025882 C47.072,23.1344 47.072,20.5828706 45.5039059,19.0147765 Z M44.1677176,23.3662118 C43.3363765,24.1974588 41.9836235,24.1974588 41.1524706,23.3662118 C40.3211294,22.5349647 40.3211294,21.1823059 41.1524706,20.3509647 C41.5552,19.9482353 42.0905412,19.7264941 42.6600471,19.7264941 C43.2295529,19.7264941 43.7648941,19.9482353 44.1676235,20.3509647 C44.9989647,21.1823059 44.9989647,22.5349647 44.1677176,23.3662118 Z" id="Shape" fill="#253667" fill-rule="nonzero"></path>
                            <path d="M19.8032,46.6305882 C19.336,46.3979294 18.7688471,46.5881412 18.5361882,47.0552471 L17.4107294,49.3154824 C16.9213176,50.2981647 15.9370353,50.9552941 14.8416941,51.0302118 L13.5327059,51.1198118 C13.3114353,51.1345882 13.1659294,51.0243765 13.0986353,50.9570824 C13.0313412,50.8897882 12.9208471,50.744 12.9359059,50.5229176 L13.0255059,49.2140235 C13.1005176,48.1187765 13.7576471,47.1344 14.7402353,46.6449882 L17.0003765,45.5195294 C17.4675765,45.2868706 17.6576941,44.7196235 17.4250353,44.2525176 C17.1924706,43.7854118 16.6252235,43.5952 16.1580235,43.8278588 L13.8978824,44.9533176 C12.3174588,45.7403294 11.2607059,47.3233882 11.1400471,49.0848941 L11.0504471,50.3937882 C11.0020706,51.1003294 11.2614588,51.7926588 11.7621647,52.2933647 C12.2231529,52.7543529 12.8466824,53.0109176 13.4942118,53.0109176 C13.5498353,53.0109176 13.6058353,53.0090353 13.6617412,53.0051765 L14.9707294,52.9155765 C16.7322353,52.7950118 18.3152941,51.7383529 19.1023059,50.1577412 L20.2277647,47.8976 C20.4604235,47.4304 20.2703059,46.8632471 19.8032,46.6305882 Z" id="Shape" fill="#253667" fill-rule="nonzero"></path>
                            <path d="M55.536,8.67576471 C55.0926118,8.23896471 54.4817882,8.01054118 53.8613647,8.05091765 L52.9815529,8.10701176 C45.0927059,8.61063529 37.7098353,12.4185412 32.7260235,18.5544471 L30.6550588,21.104 L25.2354824,20.9448471 C25.2262588,20.9445647 25.2169412,20.9444706 25.2078118,20.9444706 C20.9096471,20.9444706 16.8687059,22.6182588 13.8293647,25.6575059 L8.27849412,31.2084706 C8.01449412,31.4724706 7.93063529,31.8672941 8.06465882,32.2157176 C8.19868235,32.5642353 8.52527059,32.8012235 8.89816471,32.8202353 L20.6481882,33.4239059 L20.1691294,34.0137412 C19.9277176,34.3110588 19.8895059,34.7246118 20.0725647,35.0609882 C20.2566588,35.3994353 20.4496,35.7325176 20.6508235,36.0602353 L17.8643765,39.3681882 C17.6261647,39.6510118 17.5748706,40.0468706 17.7328941,40.3811765 C18.3415529,41.6672941 19.1493647,42.8228706 20.1342118,43.8158118 C21.1429647,44.8330353 22.3225412,45.6648471 23.64,46.2883765 C23.7687529,46.3493647 23.9068235,46.3792 24.0440471,46.3792 C24.2568471,46.3792 24.4678588,46.3072941 24.6395294,46.1680941 C25.2398118,45.6811294 25.9318588,45.1035294 26.6012235,44.5450353 C27.0783059,44.1469176 27.5664,43.7396706 28.0225882,43.3641412 C28.2948706,43.528 28.5705412,43.6868706 28.8503529,43.8390588 C28.9919059,43.9160471 29.1471059,43.9539765 29.3017412,43.9539765 C29.5074824,43.9539765 29.7119059,43.8869647 29.8811294,43.7555765 L30.5251765,43.2558118 L31.1314824,55.0553412 C31.1506824,55.4282353 31.3875765,55.7548235 31.736,55.8888471 C31.8463059,55.9312 31.9609412,55.9519059 32.0748235,55.9519059 C32.3209412,55.9519059 32.5626353,55.8556235 32.7431529,55.6750118 L38.2941176,50.1240471 C41.3334588,47.0847059 43.0071529,43.0438588 43.0071529,38.7456 L43.0071529,33.5696 L45.1969882,31.8703059 C51.7597176,26.7776 55.7566118,19.0981647 56.1628235,10.8009412 L56.1853176,10.3410824 C56.216,9.71952941 55.9792,9.11265882 55.536,8.67576471 Z M11.1174588,31.0420706 L15.1656471,26.9938824 C17.8447059,24.3148235 21.4059294,22.8379294 25.1941647,22.8342588 L29.1551059,22.9505882 L22.1235765,31.6075294 L11.1174588,31.0420706 Z M25.3904941,43.0940235 C24.8972235,43.5055059 24.3915294,43.9275294 23.9222588,44.3135059 C23.0145882,43.8219294 22.1935059,43.2085647 21.4759529,42.4849882 C20.7809882,41.7842824 20.1894588,40.9864471 19.7124706,40.1075765 L21.7525647,37.6856471 C22.3694118,38.5132235 23.0446118,39.2971294 23.7740235,40.0315294 C23.7745882,40.0320941 23.7751529,40.0325647 23.7757176,40.0331294 C23.7759059,40.0333176 23.7760941,40.0336 23.7762824,40.0337882 C23.7765647,40.0340706 23.7768471,40.0342588 23.7771294,40.0345412 C24.5858824,40.8484706 25.4558118,41.5953882 26.3786353,42.2708706 C26.0528,42.5413647 25.7189647,42.8199529 25.3904941,43.0940235 Z M36.9580235,48.7877647 L32.9098353,52.8359529 L32.3449412,41.8437647 L41.1175529,35.0362353 L41.1175529,38.7456 C41.1176471,42.5390118 39.6404706,46.1053176 36.9580235,48.7877647 Z M54.2755765,10.7086118 C53.8963765,18.4542118 50.1651765,25.6231529 44.0386824,30.3773176 L29.2189176,41.8774588 C27.9899294,41.1593412 26.8444235,40.3114353 25.7960471,39.3507765 L30.7923765,34.3544471 C31.1613176,33.9855059 31.1613176,33.3871059 30.7923765,33.0180706 C30.4233412,32.6490353 29.8250353,32.6490353 29.456,33.0180706 L24.4643765,38.0096941 C23.5466353,36.9936941 22.7338353,35.8881882 22.0417882,34.7057882 L34.1929412,19.7458824 C38.8453647,14.0179765 45.7374118,10.4631529 53.1018353,9.99312941 L53.9816471,9.93703529 C54.0969412,9.92988235 54.1741176,9.98710588 54.2096941,10.0221176 C54.2451765,10.0570353 54.3038118,10.1329882 54.2981647,10.2488471 L54.2755765,10.7086118 Z" id="Shape" fill="#132149" fill-rule="nonzero"></path>
                        </g>
                    </g>
                </g>
            </g>
        </g>
    </g>
</svg>