<?xml version="1.0" encoding="UTF-8"?>
<svg width="50px" height="50px" viewBox="0 0 50 50" version="1.1" xmlns="http://www.w3.org/2000/svg" xmlns:xlink="http://www.w3.org/1999/xlink">
    <!-- Generator: Sketch 50.2 (55047) - http://www.bohemiancoding.com/sketch -->
    <title>Support</title>
    <desc>Created with Sketch.</desc>
    <defs></defs>
    <g id="Contact-us" stroke="none" stroke-width="1" fill="none" fill-rule="evenodd">
        <g id="contact_us_UI_v1" transform="translate(-719.000000, -806.000000)">
            <g id="Group-4" transform="translate(417.000000, 804.000000)">
                <g id="Group" transform="translate(303.000000, 3.000000)">
                    <g id="Support">
                        <circle id="Oval" stroke="#E6E5E5" fill="#FFFFFF" cx="24" cy="24" r="24"></circle>
                        <g id="envelope" transform="translate(10.000000, 13.000000)">
                            <path d="M27.4033058,18.9020661 C27.4033058,19.9260331 26.5702479,20.7590909 25.546281,20.7590909 L4.41900826,20.7590909 C3.39504132,20.7590909 2.56198347,19.9260331 2.56198347,18.9020661 L2.56198347,4.46818182 C2.56198347,3.44421488 3.39504132,2.61115702 4.41900826,2.61115702 L25.5404959,2.61115702 C26.5644628,2.61115702 27.3975207,3.44421488 27.3975207,4.46818182 L27.3975207,18.9020661 L27.4033058,18.9020661 Z" id="Path" fill="#99B9F0"></path>
                            <path d="M24.546281,0.0433884298 L3.41900826,0.0433884298 C1.53305785,0.0433884298 0,1.57644628 0,3.46239669 L0,17.9020661 C0,19.7880165 1.53305785,21.3210744 3.41900826,21.3210744 L24.5404959,21.3210744 C26.4264463,21.3210744 27.9595041,19.7880165 27.9595041,17.9020661 L27.9595041,3.46818182 C27.9652893,1.5822314 26.4322314,0.0433884298 24.546281,0.0433884298 Z M26.4033058,17.9020661 C26.4033058,18.9260331 25.5702479,19.7590909 24.546281,19.7590909 L3.41900826,19.7590909 C2.39504132,19.7590909 1.56198347,18.9260331 1.56198347,17.9020661 L1.56198347,3.46818182 C1.56198347,2.44421488 2.39504132,1.61115702 3.41900826,1.61115702 L24.5404959,1.61115702 C25.5644628,1.61115702 26.3975207,2.44421488 26.3975207,3.46818182 L26.3975207,17.9020661 L26.4033058,17.9020661 Z" id="Shape" fill="#253667" fill-rule="nonzero"></path>
                            <path d="M17.6330579,10.5028926 L24.4710744,4.37066116 C24.7892562,4.08140496 24.8181818,3.58966942 24.5289256,3.26570248 C24.2396694,2.94752066 23.7479339,2.91859504 23.4239669,3.20785124 L13.9942149,11.6714876 L12.1545455,10.0285124 C12.1487603,10.0227273 12.1429752,10.0169421 12.1429752,10.011157 C12.1024793,9.97066116 12.0619835,9.93595041 12.0157025,9.90123967 L4.52975207,3.20206612 C4.20578512,2.91280992 3.71404959,2.94173554 3.42479339,3.26570248 C3.13553719,3.58966942 3.16446281,4.08140496 3.48842975,4.37066116 L10.407438,10.5549587 L3.51735537,17.0053719 C3.20495868,17.3004132 3.18760331,17.7921488 3.48264463,18.1103306 C3.63884298,18.272314 3.84710744,18.3590909 4.0553719,18.3590909 C4.24628099,18.3590909 4.43719008,18.2896694 4.58760331,18.1508264 L11.5818182,11.6078512 L13.4793388,13.3028926 C13.6297521,13.4359504 13.814876,13.4995868 14,13.4995868 C14.185124,13.4995868 14.3760331,13.4301653 14.5206612,13.2971074 L16.4702479,11.55 L23.4239669,18.1566116 C23.5743802,18.3012397 23.7710744,18.3706612 23.9619835,18.3706612 C24.1702479,18.3706612 24.3727273,18.2896694 24.5289256,18.127686 C24.8239669,17.8152893 24.8123967,17.3177686 24.5,17.0227273 L17.6330579,10.5028926 Z" id="Shape" fill="#253667" fill-rule="nonzero"></path>
                        </g>
                    </g>
                </g>
            </g>
        </g>
    </g>
</svg>