<?xml version="1.0" encoding="UTF-8"?>
<svg width="34px" height="28px" viewBox="0 0 34 28" version="1.1" xmlns="http://www.w3.org/2000/svg" xmlns:xlink="http://www.w3.org/1999/xlink">
    <!-- Generator: Sketch 50.2 (55047) - http://www.bohemiancoding.com/sketch -->
    <title>twitter</title>
    <desc>Created with Sketch.</desc>
    <defs></defs>
    <g id="Home-Page" stroke="none" stroke-width="1" fill="none" fill-rule="evenodd">
        <g id="lexstart_homepage_UI_v4" transform="translate(-1234.000000, -3659.000000)" fill="#FFFFFF" fill-rule="nonzero">
            <g id="Footer" transform="translate(0.000000, 3392.000000)">
                <g id="Group" transform="translate(1060.000000, 120.000000)">
                    <g id="Group-15" transform="translate(0.000000, 147.000000)">
                        <g id="Group-9">
                            <g id="Group-8">
                                <g id="twitter" transform="translate(174.000000, 0.000000)">
                                    <path d="M33.1286879,3.25726831 C32.3807245,3.58891237 31.6042804,3.85055089 30.8075635,4.03996799 C31.6854541,3.20581054 32.3455136,2.16245717 32.7178949,0.997886703 C32.824184,0.665421941 32.4630472,0.377931431 32.1628113,0.555940828 C31.0544497,1.21331993 29.8605644,1.70647736 28.6142322,2.0218716 C28.5419228,2.04017317 28.4673152,2.04944705 28.3924614,2.04944705 C28.1654377,2.04944705 27.9447339,1.96516137 27.771142,1.81218326 C26.4451135,0.643591374 24.7396451,0 22.969008,0 C22.2028235,0 21.4292522,0.11941156 20.6697159,0.354951887 C18.3164174,1.08479862 16.5006382,3.02583147 15.930945,5.42062824 C15.7172177,6.31888221 15.6593537,7.21795687 15.7588305,8.09282094 C15.7702391,8.19335645 15.7227168,8.26352613 15.6934155,8.29643612 C15.6419535,8.35413119 15.5689874,8.38720532 15.4932308,8.38720532 C15.4847769,8.38720532 15.4760768,8.38679497 15.4674588,8.38597427 C10.3161712,7.90742527 5.6709675,5.42588071 2.38749565,1.39855147 C2.22005951,1.19313076 1.8989761,1.21832619 1.76551965,1.44721886 C1.12253206,2.55023698 0.7827352,3.81181395 0.7827352,5.09554977 C0.7827352,7.06292702 1.57321432,8.91696588 2.94627271,10.2685734 C2.36886427,10.131681 1.81000513,9.91608363 1.29087104,9.62777242 C1.03971684,9.48825376 0.730698675,9.66757627 0.727169384,9.95482057 C0.691219861,12.8774903 2.40251565,15.4781181 4.9660942,16.6491721 C4.91446806,16.6504032 4.86284192,16.6509777 4.8111337,16.6509777 C4.40477277,16.6509777 3.99332309,16.6117483 3.58835745,16.5343565 C3.30552171,16.4803545 3.06791013,16.7486407 3.15573203,17.0228359 C3.98782396,19.6204272 6.22457374,21.5351156 8.90125375,21.9698393 C6.67977021,23.4609656 4.09279985,24.2475225 1.40027906,24.2475225 L0.560882321,24.2470301 C0.302259154,24.2470301 0.0835251834,24.4156015 0.0176177244,24.6660785 C-0.0473048162,24.9127803 0.0722806978,25.1730237 0.292820352,25.3012988 C3.32686161,27.0668664 6.78761878,28 10.3024644,28 C13.3791034,28 16.257035,27.3894828 18.856399,26.1855188 C21.2393271,25.081762 23.3450827,23.5039701 25.1151453,21.4959683 C26.7640629,19.6254334 28.0534853,17.4660949 28.9474629,15.0780279 C29.7996636,12.8016578 30.2500996,10.37272 30.2500996,8.05375572 L30.2500996,7.94328977 C30.2500176,7.57093908 30.4184386,7.22058311 30.7122726,6.98208827 C31.8272824,6.07685837 32.7982478,5.01126408 33.5980837,3.8149326 C33.8092666,3.49904594 33.4762,3.10314122 33.1286879,3.25726831 Z" id="Shape"></path>
                                </g>
                            </g>
                        </g>
                    </g>
                </g>
            </g>
        </g>
    </g>
</svg>