<?xml version="1.0" encoding="UTF-8"?>
<svg width="55px" height="48px" viewBox="0 0 55 48" version="1.1" xmlns="http://www.w3.org/2000/svg" xmlns:xlink="http://www.w3.org/1999/xlink">
    <!-- Generator: Sketch 50.2 (55047) - http://www.bohemiancoding.com/sketch -->
    <title>few_details</title>
    <desc>Created with Sketch.</desc>
    <defs></defs>
    <g id="Home-Page" stroke="none" stroke-width="1" fill="none" fill-rule="evenodd">
        <g id="directors_kyc2_UI_v1" transform="translate(-346.000000, -998.000000)">
            <g id="Few-Details-" transform="translate(243.000000, 960.000000)">
                <g id="few_details" transform="translate(94.000000, 26.000000)">
                    <rect id="Rectangle" x="0" y="0" width="72" height="72"></rect>
                    <g id="id-card" transform="translate(9.000000, 12.000000)" fill="#253667" fill-rule="nonzero">
                        <path d="M47.3244706,1.64705882 L5.82352941,1.64705882 C5.36894118,1.64705882 5,1.27811765 5,0.823529412 C5,0.368941176 5.36894118,0 5.82352941,0 L47.3244706,0 C47.7790588,0 48.148,0.368941176 48.148,0.823529412 C48.148,1.27811765 47.7790588,1.64705882 47.3244706,1.64705882 Z" id="Shape"></path>
                        <g id="Group" transform="translate(0.000000, 5.000000)">
                            <g id="Shape">
                                <path d="M50.3242353,42.4298824 L4.11764706,42.4298824 C1.84635294,42.4298824 0,40.5818824 0,38.3122353 L0,4.94941176 C0,2.67976471 1.84635294,0.831764706 4.11764706,0.831764706 L50.3242353,0.831764706 C52.5955294,0.831764706 54.4418824,2.67976471 54.4418824,4.94941176 L54.4418824,38.3138824 C54.4418824,40.5835294 52.5955294,42.4298824 50.3242353,42.4298824 Z M4.11764706,2.47882353 C2.75552941,2.47882353 1.64705882,3.58729412 1.64705882,4.94941176 L1.64705882,38.3138824 C1.64705882,39.676 2.75552941,40.7844706 4.11764706,40.7844706 L50.3242353,40.7844706 C51.6863529,40.7844706 52.7948235,39.676 52.7948235,38.3138824 L52.7948235,4.94941176 C52.7948235,3.58729412 51.6863529,2.47882353 50.3242353,2.47882353 L4.11764706,2.47882353 Z"></path>
                                <path d="M41.12,2.64705882 L12.8235294,2.64705882 C12.3689412,2.64705882 12,2.27811765 12,1.82352941 C12,1.36894118 12.3689412,1 12.8235294,1 L41.1216471,1 C41.5762353,1 41.9451765,1.36894118 41.9451765,1.82352941 C41.9451765,2.27811765 41.5762353,2.64705882 41.12,2.64705882 Z"></path>
                            </g>
                            <path d="M28.1498824,34.3197647 L8.77388235,34.3197647 C8.31929412,34.3197647 7.95035294,33.9508235 7.95035294,33.4962353 L7.95035294,31.2924706 C7.95035294,29.9188235 8.75247059,28.6489412 9.996,28.0609412 L14.3574118,25.3795294 C12.9491765,24.2381176 12.0745882,22.5432941 12.0037647,20.7084706 L11.8374118,16.3668235 C11.8374118,13.048 14.5484706,10.3748235 17.8837647,10.3748235 L19.0334118,10.3748235 C22.3670588,10.3748235 25.0814118,13.0496471 25.0814118,16.3355294 L24.9134118,20.7084706 C24.8425882,22.5465882 23.968,24.2430588 22.5548235,25.3828235 L26.9623529,28.0807059 C28.1828235,28.6769412 28.9701176,29.9336471 28.9701176,31.2941176 L28.9701176,33.4962353 C28.9734118,33.9508235 28.6044706,34.3197647 28.1498824,34.3197647 Z M9.59741176,32.6727059 L27.3263529,32.6727059 L27.3263529,31.2941176 C27.3263529,30.5512941 26.8915294,29.8677647 26.2195294,29.5498824 C26.1931765,29.5367059 26.1668235,29.5235294 26.1421176,29.5070588 L20.5832941,26.1042353 C20.328,25.9477647 20.1764706,25.6661176 20.1896471,25.3663529 C20.2044706,25.0665882 20.3774118,24.7981176 20.6442353,24.6647059 C22.1990588,23.8889412 23.2054118,22.3489412 23.2696471,20.6442353 L23.4376471,16.3025882 C23.4376471,13.9555294 21.4644706,12.0202353 19.0367059,12.0202353 L17.8870588,12.0202353 C15.4609412,12.0202353 13.4877647,13.9555294 13.4877647,16.3338824 L13.6541176,20.6442353 C13.7183529,22.344 14.7197647,23.884 16.2712941,24.6614118 C16.5381176,24.7948235 16.7127059,25.0632941 16.7242353,25.3614118 C16.7357647,25.6611765 16.5858824,25.9428235 16.3322353,26.0992941 L10.7816471,29.5054118 C10.0322353,29.8661176 9.59905882,30.5496471 9.59905882,31.2908235 L9.59905882,32.6727059 L9.59741176,32.6727059 Z" id="Shape"></path>
                            <g transform="translate(34.588235, 14.176471)" id="Shape">
                                <path d="M11.1967059,1.67976471 L1.02282353,1.67976471 C0.568235294,1.67976471 0.199294118,1.31082353 0.199294118,0.856235294 C0.199294118,0.401647059 0.568235294,0.0327058824 1.02282353,0.0327058824 L11.1967059,0.0327058824 C11.6512941,0.0327058824 12.0202353,0.401647059 12.0202353,0.856235294 C12.0202353,1.31082353 11.6512941,1.67976471 11.1967059,1.67976471 Z"></path>
                                <path d="M11.1967059,8.99105882 L1.02282353,8.99105882 C0.568235294,8.99105882 0.199294118,8.62211765 0.199294118,8.16752941 C0.199294118,7.71294118 0.568235294,7.344 1.02282353,7.344 L11.1967059,7.344 C11.6512941,7.344 12.0202353,7.71294118 12.0202353,8.16752941 C12.0202353,8.62211765 11.6512941,8.99105882 11.1967059,8.99105882 Z"></path>
                                <path d="M11.1967059,16.3072941 L1.02282353,16.3072941 C0.568235294,16.3072941 0.199294118,15.9383529 0.199294118,15.4837647 C0.199294118,15.0291765 0.568235294,14.6602353 1.02282353,14.6602353 L11.1967059,14.6602353 C11.6512941,14.6602353 12.0202353,15.0291765 12.0202353,15.4837647 C12.0202353,15.9383529 11.6512941,16.3072941 11.1967059,16.3072941 Z"></path>
                            </g>
                        </g>
                    </g>
                </g>
            </g>
        </g>
    </g>
</svg>