<?xml version="1.0" encoding="UTF-8"?>
<svg width="31px" height="36px" viewBox="0 0 31 36" version="1.1" xmlns="http://www.w3.org/2000/svg" xmlns:xlink="http://www.w3.org/1999/xlink">
    <!-- Generator: Sketch 50.2 (55047) - http://www.bohemiancoding.com/sketch -->
    <title>money-bag</title>
    <desc>Created with Sketch.</desc>
    <defs></defs>
    <g id="Home-Page" stroke="none" stroke-width="1" fill="none" fill-rule="evenodd">
        <g id="directors_kyc2_UI_v1" transform="translate(-121.000000, -2843.000000)">
            <g id="Other-Products" transform="translate(0.000000, 2634.000000)">
                <g id="Group-12" transform="translate(101.000000, 193.000000)">
                    <g id="Group-8">
                        <g id="Product-1">
                            <g id="ESOP_icon">
                                <g id="money-bag" transform="translate(12.000000, 12.000000)">
                                    <rect id="Rectangle-8" x="0" y="0" width="48" height="48"></rect>
                                    <path d="M24.7426195,26.5954262 L22.6844075,26.5954262 C21.9359667,26.5954262 21.3297297,25.9891892 21.3297297,25.2407484 C21.3297297,24.4923077 21.9359667,23.8860707 22.6844075,23.8860707 L26.3068607,23.8860707 C26.8008316,23.8860707 27.2049896,23.4819127 27.2049896,22.9879418 C27.2049896,22.4939709 26.8008316,22.0898129 26.3068607,22.0898129 L24.6079002,22.0898129 L24.6079002,20.8399168 C24.6079002,20.3459459 24.2037422,19.9417879 23.7097713,19.9417879 C23.2158004,19.9417879 22.8116424,20.3459459 22.8116424,20.8399168 L22.8116424,22.0898129 L22.6844075,22.0898129 C20.9480249,22.0898129 19.5334719,23.5043659 19.5334719,25.2407484 C19.5334719,26.977131 20.9480249,28.391684 22.6844075,28.391684 L24.7426195,28.391684 C25.4910603,28.391684 26.0972973,28.997921 26.0972973,29.7463617 C26.0972973,30.4948025 25.4910603,31.1010395 24.7426195,31.1010395 L21.0528067,31.1010395 C20.5588358,31.1010395 20.1546778,31.5051975 20.1546778,31.9991684 C20.1546778,32.4931393 20.5588358,32.8972973 21.0528067,32.8972973 L22.8191268,32.8972973 L22.8191268,34.177131 C22.8191268,34.6711019 23.2232848,35.0752599 23.7172557,35.0752599 C24.2112266,35.0752599 24.6153846,34.6711019 24.6153846,34.177131 L24.6153846,32.8972973 L24.7650728,32.8972973 C24.7725572,32.8972973 24.7800416,32.8972973 24.787526,32.8972973 C26.5089397,32.8748441 27.8935551,31.4677755 27.8935551,29.7463617 C27.8935551,28.0099792 26.4790021,26.5954262 24.7426195,26.5954262 Z" id="Shape" fill="#253667" fill-rule="nonzero"></path>
                                    <path d="M37.2116424,24.5596674 C36.2686071,22.3891892 34.9663202,20.2860707 33.3197505,18.3176715 C31.3288981,15.9226611 29.3455301,14.3209979 28.3351351,13.5800416 L32.152183,6.4997921 C32.3392931,6.14802495 32.2794179,5.71392931 31.987526,5.43700624 C30.9995842,4.47151767 29.9517672,4 28.7841996,4 C27.7139293,4 26.7334719,4.404158 25.8802495,4.76340956 C25.2066528,5.04033264 24.5704782,5.30977131 24.0540541,5.30977131 C23.8968815,5.30977131 23.7621622,5.28731809 23.6274428,5.23492723 C21.8461538,4.58378378 20.4765073,4.17962578 19.1517672,4.17962578 C17.4752599,4.17962578 16.045738,4.85322245 14.6461538,6.29022869 C14.354262,6.58960499 14.3093555,7.06112266 14.5413721,7.41288981 L18.6577963,13.6324324 C17.6399168,14.3883576 15.6939709,15.975052 13.7405405,18.3176715 C12.1014553,20.2860707 10.791684,22.3891892 9.84864865,24.5596674 C8.66611227,27.2914761 8.06735967,30.1430353 8.06735967,33.0320166 C8.06735967,36.8715177 11.195842,40 15.035343,40 L32.024948,40 C35.8644491,40 38.9929314,36.8715177 38.9929314,33.0320166 C38.9929314,30.1430353 38.3941788,27.2914761 37.2116424,24.5596674 Z M16.4573805,7.03866944 C17.3255717,6.29022869 18.156341,5.96091476 19.1517672,5.96091476 C20.214553,5.96091476 21.4120582,6.32016632 23.006237,6.91143451 C23.3355509,7.03118503 23.6873181,7.09106029 24.0465696,7.09106029 C24.9222453,7.09106029 25.760499,6.74677755 26.5613306,6.40997921 C27.3322245,6.08814969 28.0656965,5.78128898 28.7767152,5.78128898 C29.1209979,5.78128898 29.6074844,5.84116424 30.2212058,6.27525988 L26.6286902,12.9513514 L20.3717256,12.9513514 L16.4573805,7.03866944 Z M32.024948,38.2037422 L15.035343,38.2037422 C12.1837838,38.2037422 9.86361746,35.8835759 9.86361746,33.0320166 C9.86361746,28.2345114 11.6224532,23.6839917 15.0802495,19.5076923 C17.2656965,16.8656965 19.4885655,15.2266112 20.1621622,14.7476091 L26.8831601,14.7476091 C27.5642412,15.2191268 29.7796258,16.8656965 31.9650728,19.5076923 C35.4303534,23.6839917 37.1817048,28.227027 37.1817048,33.0320166 C37.1966736,35.8835759 34.8765073,38.2037422 32.024948,38.2037422 Z" id="Shape" fill="#253667" fill-rule="nonzero"></path>
                                </g>
                            </g>
                        </g>
                    </g>
                </g>
            </g>
        </g>
    </g>
</svg>