<?xml version="1.0" encoding="UTF-8"?>
<svg width="56px" height="56px" viewBox="0 0 56 56" version="1.1" xmlns="http://www.w3.org/2000/svg" xmlns:xlink="http://www.w3.org/1999/xlink">
    <!-- Generator: Sketch 50.2 (55047) - http://www.bohemiancoding.com/sketch -->
    <title>payment</title>
    <desc>Created with Sketch.</desc>
    <defs></defs>
    <g id="Home-Page" stroke="none" stroke-width="1" fill="none" fill-rule="evenodd">
        <g id="directors_kyc2_UI_v1" transform="translate(-985.000000, -994.000000)">
            <g id="Few-Details-" transform="translate(883.000000, 960.000000)">
                <g id="payment" transform="translate(94.000000, 26.000000)">
                    <rect id="Rectangle-3" x="0" y="0" width="72" height="72"></rect>
                    <g id="credit-card" transform="translate(8.000000, 8.000000)" fill="#253667" fill-rule="nonzero">
                        <path d="M54.5134844,19.2178438 L36.7809531,1.48553125 C35.8237031,0.528390625 34.5471875,0.001203125 33.1863437,0.001203125 C31.8256094,0.001203125 30.5489844,0.528171875 29.5917344,1.4853125 L1.48432812,29.5928281 C0.5271875,30.5500781 0,31.8264844 0,33.1873281 C0,34.5481719 0.5271875,35.8247969 1.48432812,36.7818281 L3.67095313,38.9684531 C3.67117188,38.9685625 3.67128125,38.9687812 3.6715,38.969 C3.67171875,38.9692187 3.6719375,38.9694375 3.67215625,38.9696562 L18.3677813,53.6652812 L16.3329687,53.6652812 C15.68875,53.6652812 15.166375,54.1875469 15.166375,54.831875 C15.166375,55.4760937 15.68875,55.9984687 16.3329687,55.9984687 L22.8067656,55.9984687 C22.8082969,55.9984687 22.8097187,55.9985781 22.81125,55.9985781 C22.8127813,55.9985781 22.8142031,55.9984687 22.8157344,55.9984687 L39.6652812,55.9986875 C40.3095,55.9986875 40.831875,55.4763125 40.831875,54.8320937 C40.831875,54.1877656 40.3095,53.6655 39.6652812,53.6655 L27.2551562,53.6652812 L54.5135937,26.4068438 C56.4954687,24.42475 56.4954687,21.1997187 54.5134844,19.2178438 Z M52.8636719,24.7570312 L24.7560469,52.8646562 C24.2405625,53.3800312 23.5515,53.6641875 22.8155156,53.6652812 L22.8066562,53.6652812 C22.0708906,53.6640781 21.3820469,53.3800312 20.8667812,52.8646562 L6.14632812,38.1440937 L33.1395312,11.1506719 C33.5950781,10.695125 33.5950781,9.95640625 33.1395312,9.50085937 C32.683875,9.0453125 31.945375,9.0453125 31.4896094,9.50096875 L4.49640625,36.4943906 L3.13403125,35.1320156 C2.61767187,34.6156562 2.33329687,33.9250625 2.33329687,33.1874375 C2.33329687,32.4498125 2.61767187,31.7591094 3.13414062,31.2426406 L31.2415469,3.13523437 C31.7580156,2.618875 32.4487187,2.3345 33.1863437,2.3345 C33.9239688,2.3345 34.6146719,2.618875 35.1311406,3.13534375 L41.4424062,9.4465 L14.448875,36.44025 C13.9933281,36.8956875 13.9933281,37.6344062 14.448875,38.0901719 C14.6767031,38.3178906 14.9752969,38.43175 15.2737813,38.43175 C15.5722656,38.43175 15.8708594,38.3177812 16.0986875,38.0900625 L43.0922188,11.0964219 L52.8636719,20.8675469 C53.935875,21.9398594 53.9357656,23.6847187 52.8636719,24.7570312 Z" id="Shape"></path>
                        <path d="M28.7438594,33.6945 C28.2883125,33.2389531 27.5498125,33.2390625 27.0939375,33.6945 L17.9136563,42.8746719 C17.4581094,43.3302188 17.4581094,44.0688281 17.9136563,44.5245938 C18.1414844,44.7524219 18.4400781,44.8662813 18.7385625,44.8662813 C19.0370469,44.8662813 19.3356406,44.7523125 19.5634688,44.5245938 L28.74375,35.3444219 C29.1994063,34.8886563 29.1994063,34.1500469 28.7438594,33.6945 Z" id="Shape"></path>
                        <path d="M24.9785156,42.4091719 L21.2132813,46.1744063 C20.7577344,46.6299531 20.7577344,47.3686719 21.2132813,47.8243281 C21.4411094,48.0520469 21.7397031,48.1660156 22.0381875,48.1660156 C22.3368906,48.1660156 22.6352656,48.0520469 22.8630938,47.8243281 L26.6283281,44.0590938 C27.083875,43.6035469 27.083875,42.8648281 26.6283281,42.4091719 C26.1727813,41.9535156 25.4343906,41.9535156 24.9785156,42.4091719 Z" id="Shape"></path>
                        <path d="M28.4434063,38.9446094 L27.9484844,39.4394219 C27.4928281,39.8949688 27.4928281,40.6335781 27.948375,41.0893438 C28.1760938,41.3171719 28.4747969,41.4311406 28.7732813,41.4311406 C29.0717656,41.4311406 29.3703594,41.3171719 29.5980781,41.0893438 L30.093,40.5945313 C30.5486563,40.1389844 30.5486563,39.400375 30.0931094,38.9447188 C29.6377813,38.4891719 28.8989531,38.4890625 28.4434063,38.9446094 Z" id="Shape"></path>
                        <path d="M44.5236094,17.9148594 C44.3048594,17.6961094 44.008125,17.5731719 43.6987031,17.5731719 C43.3892812,17.5731719 43.0926562,17.6961094 42.8737969,17.9148594 L37.9240313,22.8645156 C37.7052813,23.083375 37.5823437,23.38 37.5823437,23.6894219 C37.5823437,23.9988437 37.7052813,24.2955781 37.9240313,24.5143281 L41.223875,27.8138437 C41.4517031,28.0416719 41.7502969,28.1555312 42.0487813,28.1555312 C42.3474844,28.1555312 42.6458594,28.0415625 42.8736875,27.8138438 L47.8232344,22.8644063 C48.2787813,22.4088594 48.2787813,21.6701406 47.8232344,21.2145937 L44.5236094,17.9148594 Z M42.0486719,25.3392344 L40.39875,23.6894219 L43.6985938,20.3896875 L45.3484063,22.0396094 L42.0486719,25.3392344 Z" id="Shape"></path>
                        <path d="M35.0370781,8.77034375 C35.3357813,8.77034375 35.634375,8.656375 35.8620938,8.4284375 L36.3570156,7.93329688 C36.8124531,7.47764063 36.8123438,6.73892188 36.3566875,6.28348438 C35.9011406,5.82804688 35.1623125,5.82815625 34.706875,6.2838125 L34.2119531,6.77895313 C33.7565156,7.23460938 33.756625,7.97332813 34.2122813,8.42876563 C34.4401094,8.65659375 34.7384844,8.77034375 35.0370781,8.77034375 Z" id="Shape"></path>
                        <path d="M11.7266406,39.1624844 L11.2317187,39.6574063 C10.7761719,40.1128438 10.7761719,40.8515625 11.2317187,41.3073281 C11.4595469,41.5350469 11.7581406,41.6489063 12.056625,41.6489063 C12.3551094,41.6489063 12.6537031,41.5350469 12.8815312,41.3073281 L13.3764531,40.8124063 C13.832,40.35675 13.832,39.6180313 13.3764531,39.1624844 C12.9207969,38.7068281 12.1822969,38.7068281 11.7266406,39.1624844 Z" id="Shape"></path>
                    </g>
                </g>
            </g>
        </g>
    </g>
</svg>