<?xml version="1.0" encoding="UTF-8"?>
<svg width="37px" height="36px" viewBox="0 0 37 36" version="1.1" xmlns="http://www.w3.org/2000/svg" xmlns:xlink="http://www.w3.org/1999/xlink">
    <!-- Generator: Sketch 50.2 (55047) - http://www.bohemiancoding.com/sketch -->
    <title>startup</title>
    <desc>Created with Sketch.</desc>
    <defs></defs>
    <g id="Home-Page" stroke="none" stroke-width="1" fill="none" fill-rule="evenodd">
        <g id="directors_kyc2_UI_v1" transform="translate(-948.000000, -2845.000000)">
            <g id="Other-Products" transform="translate(0.000000, 2634.000000)">
                <g id="Group-12" transform="translate(101.000000, 193.000000)">
                    <g id="Group-8" transform="translate(829.000000, 0.000000)">
                        <g id="Convertible_note_icon">
                            <g id="startup" transform="translate(12.000000, 12.000000)">
                                <rect id="Rectangle-8" x="0" y="0" width="48" height="48"></rect>
                                <circle id="Oval" fill="#253667" fill-rule="nonzero" cx="6.71011765" cy="41.2550118" r="1"></circle>
                                <circle id="Oval" fill="#253667" fill-rule="nonzero" cx="24.8474118" cy="23.2452706" r="1"></circle>
                                <path d="M34.1279294,14.2610824 C33.5582118,13.6912941 32.8007294,13.3776 31.9950353,13.3776 C31.1893412,13.3776 30.4317882,13.6914353 29.8621412,14.2610824 C28.6860706,15.4372235 28.6860706,17.3508706 29.8621412,18.5269412 C30.4502824,19.1150118 31.2225176,19.4089412 31.9950353,19.4089412 C32.7673412,19.4089412 33.5399294,19.1148706 34.1279294,18.5269412 C35.304,17.3508 35.304,15.4371529 34.1279294,14.2610824 Z M33.1257882,17.5246588 C32.5022824,18.1480941 31.4877176,18.1480941 30.8643529,17.5246588 C30.2408471,16.9012235 30.2408471,15.8867294 30.8643529,15.2632235 C31.1664,14.9611765 31.5679059,14.7948706 31.9950353,14.7948706 C32.4221647,14.7948706 32.8236706,14.9611765 33.1257176,15.2632235 C33.7492235,15.8867294 33.7492235,16.9012235 33.1257882,17.5246588 Z" id="Shape" fill="#253667" fill-rule="nonzero"></path>
                                <path d="M14.8524,34.9729412 C14.502,34.7984471 14.0766353,34.9411059 13.9021412,35.2914353 L13.0580471,36.9866118 C12.6909882,37.7236235 11.9527765,38.2164706 11.1312706,38.2726588 L10.1495294,38.3398588 C9.98357647,38.3509412 9.87444706,38.2682824 9.82397647,38.2178118 C9.77350588,38.1673412 9.69063529,38.058 9.70192941,37.8921882 L9.76912941,36.9105176 C9.82538824,36.0890824 10.3182353,35.3508 11.0551765,34.9837412 L12.7502824,34.1396471 C13.1006824,33.9651529 13.2432706,33.5397176 13.0687765,33.1893882 C12.8943529,32.8390588 12.4689176,32.6964 12.1185176,32.8708941 L10.4234118,33.7149882 C9.23809412,34.3052471 8.44552941,35.4925412 8.35503529,36.8136706 L8.28783529,37.7953412 C8.25155294,38.3252471 8.44609412,38.8444941 8.82162353,39.2200235 C9.16736471,39.5657647 9.63501176,39.7581882 10.1206588,39.7581882 C10.1623765,39.7581882 10.2043765,39.7567765 10.2463059,39.7538824 L11.2280471,39.6866824 C12.5491765,39.5962588 13.7364706,38.8037647 14.3267294,37.6183059 L15.1708235,35.9232 C15.3453176,35.5728 15.2027294,35.1474353 14.8524,34.9729412 Z" id="Shape" fill="#253667" fill-rule="nonzero"></path>
                                <path d="M41.652,6.50682353 C41.3194588,6.17922353 40.8613412,6.00790588 40.3960235,6.03818824 L39.7361647,6.08025882 C33.8195294,6.45797647 28.2823765,9.31390588 24.5445176,13.9158353 L22.9912941,15.828 L18.9266118,15.7086353 C18.9196941,15.7084235 18.9127059,15.7083529 18.9058588,15.7083529 C15.6822353,15.7083529 12.6515294,16.9636941 10.3720235,19.2431294 L6.20887059,23.4063529 C6.01087059,23.6043529 5.94797647,23.9004706 6.04849412,24.1617882 C6.14901176,24.4231765 6.39395294,24.6009176 6.67362353,24.6151765 L15.4861412,25.0679294 L15.1268471,25.5103059 C14.9457882,25.7332941 14.9171294,26.0434588 15.0544235,26.2957412 C15.1924941,26.5495765 15.3372,26.7993882 15.4881176,27.0451765 L13.3982824,29.5261412 C13.2196235,29.7382588 13.1811529,30.0351529 13.2996706,30.2858824 C13.7561647,31.2504706 14.3620235,32.1171529 15.1006588,32.8618588 C15.8572235,33.6247765 16.7419059,34.2486353 17.73,34.7162824 C17.8265647,34.7620235 17.9301176,34.7844 18.0330353,34.7844 C18.1926353,34.7844 18.3508941,34.7304706 18.4796471,34.6260706 C18.9298588,34.2608471 19.4488941,33.8276471 19.9509176,33.4087765 C20.3087294,33.1101882 20.6748,32.8047529 21.0169412,32.5231059 C21.2211529,32.646 21.4279059,32.7651529 21.6377647,32.8792941 C21.7439294,32.9370353 21.8603294,32.9654824 21.9763059,32.9654824 C22.1306118,32.9654824 22.2839294,32.9152235 22.4108471,32.8166824 L22.8938824,32.4418588 L23.3486118,41.2915059 C23.3630118,41.5711765 23.5406824,41.8161176 23.802,41.9166353 C23.8847294,41.9484 23.9707059,41.9639294 24.0561176,41.9639294 C24.2407059,41.9639294 24.4219765,41.8917176 24.5573647,41.7562588 L28.7205882,37.5930353 C31.0000941,35.3135294 32.2553647,32.2828941 32.2553647,29.0592 L32.2553647,25.1772 L33.8977412,23.9027294 C38.8197882,20.0832 41.8174588,14.3236235 42.1221176,8.10070588 L42.1389882,7.75581176 C42.162,7.28964706 41.9844,6.83449412 41.652,6.50682353 Z M8.33809412,23.2815529 L11.3742353,20.2454118 C13.3835294,18.2361176 16.0544471,17.1284471 18.8956235,17.1256941 L21.8663294,17.2129412 L16.5926824,23.7056471 L8.33809412,23.2815529 Z M19.0428706,32.3205176 C18.6729176,32.6291294 18.2936471,32.9456471 17.9416941,33.2351294 C17.2609412,32.8664471 16.6451294,32.4064235 16.1069647,31.8637412 C15.5857412,31.3382118 15.1420941,30.7398353 14.7843529,30.0806824 L16.3144235,28.2642353 C16.7770588,28.8849176 17.2834588,29.4728471 17.8305176,30.0236471 C17.8309412,30.0240706 17.8313647,30.0244235 17.8317882,30.0248471 C17.8319294,30.0249882 17.8320706,30.0252 17.8322118,30.0253412 C17.8324235,30.0255529 17.8326353,30.0256941 17.8328471,30.0259059 C18.4394118,30.6363529 19.0918588,31.1965412 19.7839765,31.7031529 C19.5396,31.9060235 19.2892235,32.1149647 19.0428706,32.3205176 Z M30.8382353,29.0592 C30.8382353,31.9042588 29.7303529,34.5789882 27.7185176,36.5908235 L24.6823765,39.6269647 L24.2587059,31.3828235 L30.8381647,26.2771765 L30.8381647,29.0592 L30.8382353,29.0592 Z M40.7066824,8.03145882 C40.4222824,13.8406588 37.6238824,19.2173647 33.0290118,22.7829882 L21.9141882,31.4080941 C20.9924471,30.8695059 20.1333176,30.2335765 19.3470353,29.5130824 L23.0942824,25.7658353 C23.3709882,25.4891294 23.3709882,25.0403294 23.0942824,24.7635529 C22.8175059,24.4867765 22.3687765,24.4867765 22.092,24.7635529 L18.3482824,28.5072706 C17.6599765,27.7452706 17.0503765,26.9161412 16.5313412,26.0293412 L25.6447059,14.8094118 C29.1340235,10.5134824 34.3030588,7.84736471 39.8263765,7.49484706 L40.4862353,7.45277647 C40.5727059,7.44741176 40.6305882,7.49032941 40.6572706,7.51658824 C40.6838824,7.54277647 40.7278588,7.59974118 40.7236235,7.68663529 L40.7066824,8.03145882 Z" id="Shape" fill="#253667" fill-rule="nonzero"></path>
                            </g>
                        </g>
                    </g>
                </g>
            </g>
        </g>
    </g>
</svg>