<?xml version="1.0" encoding="UTF-8"?>
<svg width="29px" height="36px" viewBox="0 0 29 36" version="1.1" xmlns="http://www.w3.org/2000/svg" xmlns:xlink="http://www.w3.org/1999/xlink">
    <!-- Generator: Sketch 50.2 (55047) - http://www.bohemiancoding.com/sketch -->
    <title>Covertible_note_icon</title>
    <desc>Created with Sketch.</desc>
    <defs></defs>
    <g id="Home-Page" stroke="none" stroke-width="1" fill="none" fill-rule="evenodd">
        <g id="directors_kyc2_UI_v1" transform="translate(-540.000000, -2845.000000)">
            <g id="Other-Products" transform="translate(0.000000, 2634.000000)">
                <g id="Group-12" transform="translate(101.000000, 193.000000)">
                    <g id="Group-8" transform="translate(417.000000, 0.000000)">
                        <g id="Product-1">
                            <g id="Convertible_note_icon">
                                <g id="Covertible_note_icon" transform="translate(12.000000, 12.000000)">
                                    <rect id="Rectangle-8" x="0" y="0" width="48" height="48"></rect>
                                    <path d="M29.7484,6 L10.3,6 L10.3,42 L38.5,42 L38.5,14.7516 L29.7484,6 Z M30.1,8.0484 L36.4516,14.4 L30.1,14.4 L30.1,8.0484 Z M11.5,40.8 L11.5,7.2 L28.9,7.2 L28.9,15.6 L37.3,15.6 L37.3,40.8 L11.5,40.8 Z" id="Shape" fill="#253667" fill-rule="nonzero"></path>
                                    <path d="M16.3,16.2 L21.7,16.2 C22.0312,16.2 22.3,15.9318 22.3,15.6 C22.3,15.2682 22.0312,15 21.7,15 L16.3,15 C15.9688,15 15.7,15.2682 15.7,15.6 C15.7,15.9318 15.9688,16.2 16.3,16.2 Z" id="Shape" fill="#253667" fill-rule="nonzero"></path>
                                    <path d="M26.5,28.2 L16.3,28.2 C15.9688,28.2 15.7,28.4682 15.7,28.8 C15.7,29.1318 15.9688,29.4 16.3,29.4 L26.5,29.4 C26.8312,29.4 27.1,29.1318 27.1,28.8 C27.1,28.4682 26.8312,28.2 26.5,28.2 Z" id="Shape" fill="#253667" fill-rule="nonzero"></path>
                                    <path d="M32.5,24 L28.3,24 C27.9688,24 27.7,24.2682 27.7,24.6 C27.7,24.9318 27.9688,25.2 28.3,25.2 L32.5,25.2 C32.8312,25.2 33.1,24.9318 33.1,24.6 C33.1,24.2682 32.8312,24 32.5,24 Z" id="Shape" fill="#253667" fill-rule="nonzero"></path>
                                    <path d="M16.3,21 L19.3,21 C19.6312,21 19.9,20.7318 19.9,20.4 C19.9,20.0682 19.6312,19.8 19.3,19.8 L16.3,19.8 C15.9688,19.8 15.7,20.0682 15.7,20.4 C15.7,20.7318 15.9688,21 16.3,21 Z" id="Shape" fill="#253667" fill-rule="nonzero"></path>
                                    <path d="M25.3,21 L29.5,21 C29.8312,21 30.1,20.7318 30.1,20.4 C30.1,20.0682 29.8312,19.8 29.5,19.8 L25.3,19.8 C24.9688,19.8 24.7,20.0682 24.7,20.4 C24.7,20.7318 24.9688,21 25.3,21 Z" id="Shape" fill="#253667" fill-rule="nonzero"></path>
                                    <path d="M21.7,20.4 C21.7,20.556 21.766,20.712 21.874,20.826 C21.988,20.934 22.144,21 22.3,21 C22.456,21 22.612,20.934 22.726,20.826 C22.834,20.712 22.9,20.556 22.9,20.4 C22.9,20.2434 22.834,20.0874 22.726,19.974 C22.504,19.752 22.102,19.752 21.874,19.974 C21.766,20.0874 21.7,20.2434 21.7,20.4 Z" id="Shape" fill="#253667" fill-rule="nonzero"></path>
                                    <path d="M19.3,24 C18.9688,24 18.7,24.2682 18.7,24.6 C18.7,24.9318 18.9688,25.2 19.3,25.2 L25.3,25.2 C25.6312,25.2 25.9,24.9318 25.9,24.6 C25.9,24.2682 25.6312,24 25.3,24 L19.3,24 Z" id="Shape" fill="#253667" fill-rule="nonzero"></path>
                                    <path d="M16.3,25.2 C16.456,25.2 16.612,25.134 16.726,25.026 C16.834,24.912 16.9,24.756 16.9,24.6 C16.9,24.4434 16.834,24.2874 16.726,24.174 C16.504,23.952 16.096,23.952 15.874,24.174 C15.766,24.2874 15.7,24.4374 15.7,24.6 C15.7,24.756 15.766,24.912 15.874,25.026 C15.988,25.134 16.144,25.2 16.3,25.2 Z" id="Shape" fill="#253667" fill-rule="nonzero"></path>
                                    <path d="M32.5,32.4 L28.3,32.4 C27.9688,32.4 27.7,32.6682 27.7,33 C27.7,33.3318 27.9688,33.6 28.3,33.6 L32.5,33.6 C32.8312,33.6 33.1,33.3318 33.1,33 C33.1,32.6682 32.8312,32.4 32.5,32.4 Z" id="Shape" fill="#253667" fill-rule="nonzero"></path>
                                    <path d="M25.3,32.4 L19.3,32.4 C18.9688,32.4 18.7,32.6682 18.7,33 C18.7,33.3318 18.9688,33.6 19.3,33.6 L25.3,33.6 C25.6312,33.6 25.9,33.3318 25.9,33 C25.9,32.6682 25.6312,32.4 25.3,32.4 Z" id="Shape" fill="#253667" fill-rule="nonzero"></path>
                                    <path d="M15.874,32.574 C15.766,32.682 15.7,32.8374 15.7,33 C15.7,33.162 15.76,33.312 15.874,33.426 C15.988,33.534 16.144,33.6 16.3,33.6 C16.462,33.6 16.612,33.534 16.726,33.426 C16.834,33.312 16.9,33.156 16.9,33 C16.9,32.8374 16.834,32.6874 16.726,32.58 C16.504,32.352 16.102,32.352 15.874,32.574 Z" id="Shape" fill="#253667" fill-rule="nonzero"></path>
                                    <path d="M32.074,19.974 C31.966,20.0874 31.9,20.2434 31.9,20.4 C31.9,20.556 31.966,20.712 32.074,20.826 C32.188,20.934 32.344,21 32.5,21 C32.656,21 32.812,20.934 32.926,20.826 C33.04,20.712 33.1,20.556 33.1,20.4 C33.1,20.2434 33.04,20.0874 32.926,19.974 C32.698,19.752 32.302,19.752 32.074,19.974 Z" id="Shape" fill="#253667" fill-rule="nonzero"></path>
                                    <path d="M29.926,29.226 C30.034,29.112 30.1,28.956 30.1,28.8 C30.1,28.6434 30.034,28.4874 29.926,28.374 C29.698,28.152 29.296,28.152 29.074,28.374 C28.966,28.4874 28.9,28.6434 28.9,28.8 C28.9,28.956 28.966,29.112 29.074,29.226 C29.188,29.3394 29.338,29.4 29.5,29.4 C29.662,29.4 29.812,29.334 29.926,29.226 Z" id="Shape" fill="#253667" fill-rule="nonzero"></path>
                                    <path d="M32.074,28.374 C31.966,28.4874 31.9,28.6434 31.9,28.8 C31.9,28.956 31.966,29.112 32.074,29.226 C32.188,29.334 32.338,29.4 32.5,29.4 C32.662,29.4 32.812,29.334 32.926,29.226 C33.034,29.112 33.1,28.956 33.1,28.8 C33.1,28.6434 33.034,28.4874 32.926,28.374 C32.704,28.152 32.296,28.152 32.074,28.374 Z" id="Shape" fill="#253667" fill-rule="nonzero"></path>
                                </g>
                            </g>
                        </g>
                    </g>
                </g>
            </g>
        </g>
    </g>
</svg>