<?xml version="1.0" encoding="UTF-8"?>
<svg width="48px" height="56px" viewBox="0 0 48 56" version="1.1" xmlns="http://www.w3.org/2000/svg" xmlns:xlink="http://www.w3.org/1999/xlink">
    <!-- Generator: Sketch 50.2 (55047) - http://www.bohemiancoding.com/sketch -->
    <title>documents</title>
    <desc>Created with Sketch.</desc>
    <defs></defs>
    <g id="Home-Page" stroke="none" stroke-width="1" fill="none" fill-rule="evenodd">
        <g id="directors_kyc2_UI_v1" transform="translate(-669.000000, -994.000000)">
            <g id="Few-Details-" transform="translate(434.000000, 960.000000)">
                <g id="documents" transform="translate(223.000000, 26.000000)">
                    <rect id="Rectangle-3" x="0" y="0" width="72" height="72"></rect>
                    <g id="profiles" transform="translate(12.000000, 8.000000)" fill="#253667" fill-rule="nonzero">
                        <path d="M35.5399844,0 L3.38373438,0 C1.57445313,0 0.102484375,1.47196875 0.102484375,3.28125 L0.102484375,14.4375 C0.102484375,15.0415781 0.592265625,15.53125 1.19623438,15.53125 C1.80020313,15.53125 2.28998438,15.0415781 2.28998438,14.4375 L2.28998438,3.28125 C2.28998438,2.67815625 2.78064063,2.1875 3.38373438,2.1875 L35.5399844,2.1875 C36.1430781,2.1875 36.6337344,2.67815625 36.6337344,3.28125 L36.6337344,43.96875 C36.6337344,44.5718437 36.1430781,45.0625 35.5399844,45.0625 L3.38373438,45.0625 C2.78064063,45.0625 2.28998438,44.5718437 2.28998438,43.96875 L2.28998438,23.6614219 C2.28998438,23.0573438 1.80020313,22.5676719 1.19623438,22.5676719 C0.592265625,22.5676719 0.102484375,23.0573438 0.102484375,23.6614219 L0.102484375,43.96875 C0.102484375,45.7780313 1.57445313,47.25 3.38373438,47.25 L35.5399844,47.25 C37.3492656,47.25 38.8212344,45.7780312 38.8212344,43.96875 L38.8212344,3.28125 C38.8212344,1.47196875 37.3492656,0 35.5399844,0 Z" id="Shape"></path>
                        <path d="M1.96940625,18.5609375 C1.76607812,18.3575 1.48389063,18.2415625 1.19623437,18.2415625 C0.908578125,18.2415625 0.626390625,18.3575 0.422953125,18.5609375 C0.21940625,18.7654688 0.102484375,19.0476562 0.102484375,19.3342188 C0.102484375,19.6229687 0.219515625,19.9040625 0.422953125,20.1085938 C0.626390625,20.3120313 0.908578125,20.4290625 1.19623437,20.4290625 C1.48378125,20.4290625 1.76596875,20.3120313 1.96940625,20.1085938 C2.17295312,19.9051563 2.28998437,19.6229688 2.28998437,19.3342188 C2.28998437,19.0465625 2.17284375,18.7654688 1.96940625,18.5609375 Z" id="Shape"></path>
                        <path d="M6.35096875,49.7645313 C6.14753125,49.5610937 5.86654687,49.4440625 5.5776875,49.4440625 C5.29003125,49.4440625 5.00784375,49.5610937 4.80451563,49.7645313 C4.60096875,49.9679688 4.4839375,50.2501563 4.4839375,50.5378125 C4.4839375,50.8265625 4.60107813,51.1076562 4.80451563,51.3110937 C5.00784375,51.515625 5.29003125,51.6315625 5.5776875,51.6315625 C5.86654688,51.6315625 6.14753125,51.515625 6.35096875,51.3110937 C6.55451563,51.1076562 6.6714375,50.8265625 6.6714375,50.5378125 C6.6714375,50.2501563 6.55440625,49.9679688 6.35096875,49.7645313 Z" id="Shape"></path>
                        <path d="M42.109375,4.38189062 C41.5054063,4.38189062 41.015625,4.8715625 41.015625,5.47564062 L41.015625,48.3506406 C41.015625,48.9537344 40.5249688,49.4443906 39.921875,49.4443906 L9.953125,49.4443906 C9.34915625,49.4443906 8.859375,49.9340625 8.859375,50.5381406 C8.859375,51.1422188 9.34915625,51.6318906 9.953125,51.6318906 L39.921875,51.6318906 C41.7311563,51.6318906 43.203125,50.1599219 43.203125,48.3506406 L43.203125,5.47564062 C43.203125,4.8715625 42.7133438,4.38189062 42.109375,4.38189062 Z" id="Shape"></path>
                        <path d="M46.4912656,8.75 C45.8872969,8.75 45.3975156,9.23967188 45.3975156,9.84375 L45.3975156,52.71875 C45.3975156,53.3218437 44.9068594,53.8125 44.3037656,53.8125 L9.96001562,53.8125 C9.35604687,53.8125 8.86626562,54.3021719 8.86626562,54.90625 C8.86626562,55.5103281 9.35604687,56 9.96001562,56 L44.3037656,56 C46.1130469,56 47.5850156,54.5280312 47.5850156,52.71875 L47.5850156,9.84375 C47.5850156,9.23967188 47.0952344,8.75 46.4912656,8.75 Z" id="Shape"></path>
                        <path d="M17.8212344,8.09375 L7.32123438,8.09375 C6.71726563,8.09375 6.22748438,8.58342188 6.22748438,9.1875 L6.22748438,19.6875 C6.22748438,20.2915781 6.71726563,20.78125 7.32123438,20.78125 L17.8212344,20.78125 C18.4252031,20.78125 18.9149844,20.2915781 18.9149844,19.6875 L18.9149844,9.1875 C18.9149844,8.58342188 18.4252031,8.09375 17.8212344,8.09375 Z M16.7274844,18.59375 L8.41498438,18.59375 L8.41498438,10.28125 L16.7274844,10.28125 L16.7274844,18.59375 Z" id="Shape"></path>
                        <path d="M14.3019844,25.7470937 C13.8747656,25.3200937 13.1824219,25.3199844 12.7550937,25.7470937 L9.84757812,28.6546094 L8.49570312,27.302625 C8.06859375,26.8755156 7.37625,26.875625 6.9488125,27.302625 C6.52170312,27.7297344 6.52170312,28.4222969 6.9488125,28.8494063 L9.0741875,30.9747813 C9.279375,31.1798594 9.55751562,31.2951406 9.84757812,31.2951406 C10.13775,31.2951406 10.4157812,31.1798594 10.6210781,30.9747813 L14.3019844,27.293875 C14.7290937,26.8667656 14.7290937,26.1742031 14.3019844,25.7470937 Z" id="Shape"></path>
                        <path d="M32.2223125,27.234375 L19.4618594,27.234375 C18.8578906,27.234375 18.3681094,27.7240469 18.3681094,28.328125 C18.3681094,28.9322031 18.8578906,29.421875 19.4618594,29.421875 L32.2223125,29.421875 C32.8262813,29.421875 33.3160625,28.9322031 33.3160625,28.328125 C33.3160625,27.7240469 32.8262812,27.234375 32.2223125,27.234375 Z" id="Shape"></path>
                        <path d="M31.6024844,8.09375 L23.9462344,8.09375 C23.3422656,8.09375 22.8524844,8.58342188 22.8524844,9.1875 C22.8524844,9.79157813 23.3422656,10.28125 23.9462344,10.28125 L31.6024844,10.28125 C32.2064531,10.28125 32.6962344,9.79157813 32.6962344,9.1875 C32.6962344,8.58342188 32.2064531,8.09375 31.6024844,8.09375 Z" id="Shape"></path>
                        <path d="M31.6024844,13.34375 L23.9462344,13.34375 C23.3422656,13.34375 22.8524844,13.8334219 22.8524844,14.4375 C22.8524844,15.0415781 23.3422656,15.53125 23.9462344,15.53125 L31.6024844,15.53125 C32.2064531,15.53125 32.6962344,15.0415781 32.6962344,14.4375 C32.6962344,13.8334219 32.2064531,13.34375 31.6024844,13.34375 Z" id="Shape"></path>
                        <path d="M31.6024844,18.59375 L23.9462344,18.59375 C23.3422656,18.59375 22.8524844,19.0834219 22.8524844,19.6875 C22.8524844,20.2915781 23.3422656,20.78125 23.9462344,20.78125 L31.6024844,20.78125 C32.2064531,20.78125 32.6962344,20.2915781 32.6962344,19.6875 C32.6962344,19.0834219 32.2064531,18.59375 31.6024844,18.59375 Z" id="Shape"></path>
                        <path d="M14.3019844,34.0997344 C13.8747656,33.6727344 13.1824219,33.672625 12.7550937,34.0997344 L9.84757812,37.00725 L8.49570312,35.6552656 C8.06859375,35.2281562 7.37625,35.2282656 6.9488125,35.6552656 C6.52170312,36.082375 6.52170312,36.7749375 6.9488125,37.2020469 L9.0741875,39.3274219 C9.279375,39.5325 9.55751562,39.6477812 9.84757812,39.6477812 C10.13775,39.6477812 10.4157812,39.5325 10.6210781,39.3274219 L14.3019844,35.6465156 C14.7290937,35.2194062 14.7290937,34.5268437 14.3019844,34.0997344 Z" id="Shape"></path>
                        <path d="M32.2223125,35.546875 L19.4618594,35.546875 C18.8578906,35.546875 18.3681094,36.0365469 18.3681094,36.640625 C18.3681094,37.2447031 18.8578906,37.734375 19.4618594,37.734375 L32.2223125,37.734375 C32.8262813,37.734375 33.3160625,37.2447031 33.3160625,36.640625 C33.3160625,36.0365469 32.8262812,35.546875 32.2223125,35.546875 Z" id="Shape"></path>
                    </g>
                </g>
            </g>
        </g>
    </g>
</svg>