<?xml version="1.0" encoding="UTF-8"?>
<svg width="461px" height="766px" viewBox="0 0 461 766" version="1.1" xmlns="http://www.w3.org/2000/svg" xmlns:xlink="http://www.w3.org/1999/xlink">
    <!-- Generator: Sketch 50.2 (55047) - http://www.bohemiancoding.com/sketch -->
    <title>Logo</title>
    <desc>Created with Sketch.</desc>
    <defs>
        <path d="M432.430059,401.550365 L432.430059,206.76262 L432.487979,206.76262 L432.487979,162.395885 L165.977899,162.395885 L165.977899,598.690318 L388.847104,598.690318 L388.847104,554.323582 L210.358375,554.323582 L210.358375,206.76262 L389.06542,206.76262 L389.06542,401.550365 L432.430059,401.550365 Z M474.115003,515.748267 L658.983899,515.748267 L658.983899,514.131124 L659.019542,514.131124 L658.422515,359.081433 L517.657859,359.081433 L517.657859,287.539571 L659.019542,287.539571 L659.019542,244.161832 L473.402135,244.161832 L473.402135,401.216245 L614.122237,401.394442 L613.859367,471.372621 L477.385284,471.372621 L477.385284,471.096415 L296.307954,471.096415 L296.544091,244.442493 L251.829459,244.442493 L251.887379,513.507433 L251.927478,513.507433 L251.927478,515.476516 L474.115003,515.476516 L474.115003,515.748267 Z M0,0 L0,766 L471.967489,766 L471.967489,721.6199 L44.3804755,721.6199 L44.3804755,127.121679 L82.5857338,127.121679 L82.5857338,685.677453 L828.512771,685.677453 L828.512771,641.310717 L126.939477,641.310717 L126.939477,127.121679 L432.86669,127.121679 L432.86669,82.7593984 L44.3804755,82.7593984 L44.3804755,44.3578258 L782.060523,44.3578258 L782.060523,82.7593984 L473.259562,82.7593984 L473.259562,206.76262 L698.659447,206.76262 L698.659447,554.323582 L432.487979,554.323582 L432.487979,598.690318 L742.986457,598.690318 L742.986457,162.395885 L517.657859,162.395885 L517.657859,127.121679 L782.060523,127.121679 L782.060523,598.690318 L828.512771,598.534395 L828.512771,44.2019029 L864.615069,44.3578258 L864.615069,721.6199 L517.657859,721.6199 L517.657859,766 L908.942079,766 L908.942079,753.619725 L909,753.619725 L909,0 L0,0 Z" id="path-1"></path>
    </defs>
    <g id="Form" stroke="none" stroke-width="1" fill="none" fill-rule="evenodd" opacity="0.0399999991">
        <g id="form_KYC_UI_v1" transform="translate(-905.000000, -90.000000)">
            <g id="Logo" transform="translate(905.000000, 90.000000)">
                <mask id="mask-2" fill="white">
                    <use xlink:href="#path-1"></use>
                </mask>
                <g id="Clip-2"></g>
                <path d="M432.430059,401.550365 L432.430059,206.76262 L432.487979,206.76262 L432.487979,162.395885 L165.977899,162.395885 L165.977899,598.690318 L388.847104,598.690318 L388.847104,554.323582 L210.358375,554.323582 L210.358375,206.76262 L389.06542,206.76262 L389.06542,401.550365 L432.430059,401.550365 Z M474.115003,515.748267 L658.983899,515.748267 L658.983899,514.131124 L659.019542,514.131124 L658.422515,359.081433 L517.657859,359.081433 L517.657859,287.539571 L659.019542,287.539571 L659.019542,244.161832 L473.402135,244.161832 L473.402135,401.216245 L614.122237,401.394442 L613.859367,471.372621 L477.385284,471.372621 L477.385284,471.096415 L296.307954,471.096415 L296.544091,244.442493 L251.829459,244.442493 L251.887379,513.507433 L251.927478,513.507433 L251.927478,515.476516 L474.115003,515.476516 L474.115003,515.748267 Z M0,0 L0,766 L471.967489,766 L471.967489,721.6199 L44.3804755,721.6199 L44.3804755,127.121679 L82.5857338,127.121679 L82.5857338,685.677453 L828.512771,685.677453 L828.512771,641.310717 L126.939477,641.310717 L126.939477,127.121679 L432.86669,127.121679 L432.86669,82.7593984 L44.3804755,82.7593984 L44.3804755,44.3578258 L782.060523,44.3578258 L782.060523,82.7593984 L473.259562,82.7593984 L473.259562,206.76262 L698.659447,206.76262 L698.659447,554.323582 L432.487979,554.323582 L432.487979,598.690318 L742.986457,598.690318 L742.986457,162.395885 L517.657859,162.395885 L517.657859,127.121679 L782.060523,127.121679 L782.060523,598.690318 L828.512771,598.534395 L828.512771,44.2019029 L864.615069,44.3578258 L864.615069,721.6199 L517.657859,721.6199 L517.657859,766 L908.942079,766 L908.942079,753.619725 L909,753.619725 L909,0 L0,0 Z" id="Fill-1" fill="#FFFFFF" mask="url(#mask-2)"></path>
            </g>
        </g>
    </g>
</svg>