<?xml version="1.0" encoding="UTF-8"?>
<svg width="50px" height="50px" viewBox="0 0 50 50" version="1.1" xmlns="http://www.w3.org/2000/svg" xmlns:xlink="http://www.w3.org/1999/xlink">
    <!-- Generator: Sketch 50.2 (55047) - http://www.bohemiancoding.com/sketch -->
    <title>Call</title>
    <desc>Created with Sketch.</desc>
    <defs></defs>
    <g id="Contact-us" stroke="none" stroke-width="1" fill="none" fill-rule="evenodd">
        <g id="contact_us_UI_v1" transform="translate(-416.000000, -803.000000)">
            <g id="Group-4" transform="translate(417.000000, 804.000000)">
                <g id="Call">
                    <circle id="Oval" stroke="#E6E5E5" fill="#FFFFFF" cx="24" cy="24" r="24"></circle>
                    <g id="phone-call" transform="translate(9.600000, 9.600000)">
                        <path d="M27.3269468,24.2312506 C27.3208709,24.2312506 27.3208709,24.2373266 27.3269468,24.2312506 C27.0899848,24.4864405 26.8469468,24.7173266 26.585681,24.9725165 C26.1907443,25.3492253 25.7897316,25.744162 25.4130228,26.1877063 C24.7993519,26.8439089 24.0763139,27.1537823 23.1284658,27.1537823 C23.0373266,27.1537823 22.9401114,27.1537823 22.8489722,27.1477063 C21.0444152,27.0322633 19.3674532,26.3274532 18.1097316,25.7259342 C14.6707443,24.0611241 11.6509975,21.6975797 9.14163038,18.7021367 C7.06973165,16.2049215 5.68441519,13.8960608 4.76694684,11.4170734 C4.20188354,9.90416203 3.99530127,8.72542785 4.08644051,7.61352911 C4.1472,6.90264304 4.42061772,6.31327595 4.92492152,5.80897215 L6.99682025,3.73707342 C7.29454177,3.45757975 7.61049114,3.30568101 7.92036456,3.30568101 C8.30314937,3.30568101 8.61302278,3.53656709 8.80745316,3.73099747 C8.81352911,3.73707342 8.81960506,3.74314937 8.82568101,3.74922532 C9.19631392,4.09555443 9.54871899,4.45403544 9.9193519,4.83682025 C10.1077063,5.03125063 10.3021367,5.22568101 10.4965671,5.42618734 L12.1553013,7.08492152 C12.7993519,7.72897215 12.7993519,8.32441519 12.1553013,8.96846582 C11.9790987,9.14466835 11.8089722,9.32087089 11.6327696,9.49099747 C11.1223899,10.0135291 10.6363139,10.4996051 10.1077063,10.9735291 C10.0955544,10.985681 10.0834025,10.991757 10.0773266,11.0039089 C9.55479494,11.5264405 9.65201013,12.0368203 9.76137722,12.3831494 C9.76745316,12.4013772 9.77352911,12.4196051 9.77960506,12.4378329 C10.2109975,13.4828962 10.8185924,14.4672 11.7421367,15.6398582 L11.7482127,15.6459342 C13.4251747,17.711757 15.1932759,19.3218835 17.1436557,20.5553013 C17.3927696,20.7132759 17.6479595,20.8408709 17.8909975,20.9623899 C18.1097316,21.071757 18.3163139,21.1750481 18.4925165,21.2844152 C18.5168203,21.2965671 18.5411241,21.3147949 18.5654278,21.3269468 C18.7720101,21.430238 18.9664405,21.4788456 19.1669468,21.4788456 C19.6712506,21.4788456 19.9872,21.1628962 20.0904911,21.0596051 L22.1684658,18.9816304 C22.3750481,18.7750481 22.7031494,18.5259342 23.0859342,18.5259342 C23.462643,18.5259342 23.7725165,18.7628962 23.9608709,18.9694785 C23.9669468,18.9755544 23.9669468,18.9755544 23.9730228,18.9816304 L27.3208709,22.3294785 C27.9466937,22.9492253 27.9466937,23.5872 27.3269468,24.2312506 Z" id="Path" fill="#94B8F5"></path>
                        <path d="M22.751757,17.8332759 C22.1623899,17.2196051 21.4515038,16.8915038 20.6980861,16.8915038 C19.9507443,16.8915038 19.2337823,17.2135291 18.6201114,17.8272 L16.7001114,19.7411241 C16.5421367,19.6560608 16.384162,19.5770734 16.2322633,19.4980861 C16.0135291,19.388719 15.8069468,19.2854278 15.6307443,19.1760608 C13.8322633,18.0337823 12.1978329,16.5451747 10.630238,14.6190987 C9.8707443,13.6590987 9.36036456,12.8509975 8.98973165,12.0307443 C9.48795949,11.5750481 9.94973165,11.1011241 10.3993519,10.6454278 C10.5694785,10.4753013 10.7396051,10.2990987 10.9097316,10.1289722 C12.185681,8.85302278 12.185681,7.20036456 10.9097316,5.92441519 L9.25099747,4.26568101 C9.06264304,4.07732658 8.86821266,3.8828962 8.68593418,3.68846582 C8.32137722,3.31175696 7.93859241,2.9228962 7.5436557,2.55833924 C6.95428861,1.9750481 6.24947848,1.66517468 5.50821266,1.66517468 C4.76694684,1.66517468 4.04998481,1.9750481 3.44238987,2.55833924 C3.43631392,2.56441519 3.43631392,2.56441519 3.43023797,2.57049114 L1.36441519,4.65454177 C0.586693671,5.43226329 0.143149367,6.38011139 0.0459341772,7.47985823 C-0.0998886076,9.25403544 0.422643038,10.9066937 0.823655696,11.9882127 C1.80795949,14.6434025 3.27833924,17.104162 5.47175696,19.7411241 C8.13302278,22.9188456 11.3350481,25.4282127 14.9927696,27.1963139 C16.390238,27.8585924 18.2555544,28.6423899 20.3396051,28.7760608 C20.4672,28.7821367 20.6008709,28.7882127 20.7223899,28.7882127 C22.1259342,28.7882127 23.3046684,28.2839089 24.2282127,27.2813772 C24.2342886,27.2692253 24.2464405,27.2631494 24.2525165,27.2509975 C24.5684658,26.8682127 24.9330228,26.5218835 25.3158076,26.1512506 C25.5770734,25.9021367 25.8444152,25.6408709 26.105681,25.3674532 C26.7072,24.7416304 27.0231494,24.0125165 27.0231494,23.2651747 C27.0231494,22.511757 26.7011241,21.788719 26.0874532,21.1811241 L22.751757,17.8332759 Z M24.9269468,24.2312506 C24.9208709,24.2312506 24.9208709,24.2373266 24.9269468,24.2312506 C24.6899848,24.4864405 24.4469468,24.7173266 24.185681,24.9725165 C23.7907443,25.3492253 23.3897316,25.744162 23.0130228,26.1877063 C22.3993519,26.8439089 21.6763139,27.1537823 20.7284658,27.1537823 C20.6373266,27.1537823 20.5401114,27.1537823 20.4489722,27.1477063 C18.6444152,27.0322633 16.9674532,26.3274532 15.7097316,25.7259342 C12.2707443,24.0611241 9.25099747,21.6975797 6.74163038,18.7021367 C4.66973165,16.2049215 3.28441519,13.8960608 2.36694684,11.4170734 C1.80188354,9.90416203 1.59530127,8.72542785 1.68644051,7.61352911 C1.7472,6.90264304 2.02061772,6.31327595 2.52492152,5.80897215 L4.59682025,3.73707342 C4.89454177,3.45757975 5.21049114,3.30568101 5.52036456,3.30568101 C5.90314937,3.30568101 6.21302278,3.53656709 6.40745316,3.73099747 C6.41352911,3.73707342 6.41960506,3.74314937 6.42568101,3.74922532 C6.79631392,4.09555443 7.14871899,4.45403544 7.5193519,4.83682025 C7.70770633,5.03125063 7.90213671,5.22568101 8.09656709,5.42618734 L9.75530127,7.08492152 C10.3993519,7.72897215 10.3993519,8.32441519 9.75530127,8.96846582 C9.57909873,9.14466835 9.40897215,9.32087089 9.23276962,9.49099747 C8.72238987,10.0135291 8.23631392,10.4996051 7.70770633,10.9735291 C7.69555443,10.985681 7.68340253,10.991757 7.67732658,11.0039089 C7.15479494,11.5264405 7.25201013,12.0368203 7.36137722,12.3831494 C7.36745316,12.4013772 7.37352911,12.4196051 7.37960506,12.4378329 C7.81099747,13.4828962 8.41859241,14.4672 9.34213671,15.6398582 L9.34821266,15.6459342 C11.0251747,17.711757 12.7932759,19.3218835 14.7436557,20.5553013 C14.9927696,20.7132759 15.2479595,20.8408709 15.4909975,20.9623899 C15.7097316,21.071757 15.9163139,21.1750481 16.0925165,21.2844152 C16.1168203,21.2965671 16.1411241,21.3147949 16.1654278,21.3269468 C16.3720101,21.430238 16.5664405,21.4788456 16.7669468,21.4788456 C17.2712506,21.4788456 17.5872,21.1628962 17.6904911,21.0596051 L19.7684658,18.9816304 C19.9750481,18.7750481 20.3031494,18.5259342 20.6859342,18.5259342 C21.062643,18.5259342 21.3725165,18.7628962 21.5608709,18.9694785 C21.5669468,18.9755544 21.5669468,18.9755544 21.5730228,18.9816304 L24.9208709,22.3294785 C25.5466937,22.9492253 25.5466937,23.5872 24.9269468,24.2312506 Z" id="Shape" fill="#253667" fill-rule="nonzero"></path>
                        <path d="M15.5578329,6.84795949 C17.1497316,7.11530127 18.5958076,7.86871899 19.750238,9.02314937 C20.9046684,10.1775797 21.6520101,11.6236557 21.9254278,13.2155544 C21.9922633,13.6165671 22.3385924,13.8960608 22.7335291,13.8960608 C22.7821367,13.8960608 22.8246684,13.8899848 22.8732759,13.8839089 C23.3228962,13.8109975 23.6206177,13.385681 23.5477063,12.9360608 C23.2196051,11.0099848 22.3082127,9.25403544 20.9168203,7.86264304 C19.5254278,6.47125063 17.7694785,5.55985823 15.8434025,5.23175696 C15.3937823,5.15884557 14.9745418,5.45656709 14.8955544,5.90011139 C14.8165671,6.3436557 15.1082127,6.7750481 15.5578329,6.84795949 Z" id="Shape" fill="#253667" fill-rule="nonzero"></path>
                        <path d="M28.7547949,12.6990987 C28.2140354,9.52745316 26.7193519,6.64137722 24.422643,4.34466835 C22.1259342,2.04795949 19.2398582,0.553275949 16.0682127,0.0125164557 C15.6246684,-0.0664708861 15.2054278,0.237326582 15.1264405,0.680870886 C15.0535291,1.13049114 15.3512506,1.54973165 15.8008709,1.62871899 C18.6322633,2.10871899 21.2145418,3.4515038 23.2682127,5.49909873 C25.3218835,7.55276962 26.6585924,10.1350481 27.1385924,12.9664405 C27.2054278,13.3674532 27.551757,13.6469468 27.9466937,13.6469468 C27.9953013,13.6469468 28.0378329,13.6408709 28.0864405,13.6347949 C28.5299848,13.5679595 28.8337823,13.142643 28.7547949,12.6990987 Z" id="Shape" fill="#253667" fill-rule="nonzero"></path>
                    </g>
                </g>
            </g>
        </g>
    </g>
</svg>