<?xml version="1.0" encoding="UTF-8"?>
<svg width="30px" height="36px" viewBox="0 0 30 36" version="1.1" xmlns="http://www.w3.org/2000/svg" xmlns:xlink="http://www.w3.org/1999/xlink">
    <!-- Generator: Sketch 50.2 (55047) - http://www.bohemiancoding.com/sketch -->
    <title>Location</title>
    <desc>Created with Sketch.</desc>
    <defs></defs>
    <g id="Contact-us" stroke="none" stroke-width="1" fill="none" fill-rule="evenodd">
        <g id="contact_us_UI_v1" transform="translate(-108.000000, -1057.000000)">
            <g id="Group-5" transform="translate(108.000000, 1057.000000)">
                <g id="Group-10">
                    <g id="Location">
                        <path d="M29.1113208,16.7849057 C29.1113208,16.8 29.1037736,16.8150943 29.1037736,16.8301887 C29.0962264,16.8679245 29.0735849,16.9811321 29.0358491,17.154717 C29.0358491,17.1622642 29.0358491,17.1622642 29.0358491,17.1698113 C28.8471698,18.0150943 28.5679245,18.8377358 28.1981132,19.6301887 C28.190566,19.6377358 28.190566,19.6528302 28.1830189,19.6603774 C26.7716981,23.0037736 23.6773585,28.1056604 16.945283,33.6679245 C10.2132075,28.1056604 7.11886792,23.0037736 5.70754717,19.6603774 C5.7,19.6528302 5.7,19.6377358 5.69245283,19.6301887 C5.33018868,18.845283 5.0509434,18.0150943 4.85471698,17.1698113 C4.85471698,17.1622642 4.85471698,17.1622642 4.85471698,17.154717 C4.80943396,16.9811321 4.79433962,16.8679245 4.78679245,16.8301887 C4.78679245,16.8150943 4.77924528,16.8 4.77924528,16.7773585 C4.62830189,16 4.55283019,15.2150943 4.55283019,14.4226415 C4.55283019,7.59245283 10.1150943,2.03018868 16.945283,2.03018868 C23.7754717,2.03018868 29.3377358,7.59245283 29.3377358,14.4226415 C29.3377358,15.2226415 29.2622642,16.0150943 29.1113208,16.7849057 Z" id="Path" fill="#AAC9FD"></path>
                        <path d="M14.445283,0 C6.49056604,0 0.0150943396,6.4754717 0.0150943396,14.4301887 C0.0150943396,15.3358491 0.0981132075,16.2490566 0.271698113,17.1396226 C0.279245283,17.1924528 0.309433962,17.3509434 0.369811321,17.6226415 C0.588679245,18.5962264 0.913207547,19.554717 1.33584906,20.4679245 C2.89056604,24.1283019 6.30943396,29.7509434 13.8113208,35.7735849 C14,35.9245283 14.2264151,36 14.4528302,36 C14.6792453,36 14.9056604,35.9245283 15.0943396,35.7735849 C22.5886792,29.7509434 26.0150943,24.1283019 27.5698113,20.4679245 C27.9924528,19.554717 28.3169811,18.6037736 28.5358491,17.6226415 C28.5962264,17.3509434 28.6264151,17.1924528 28.6339623,17.1396226 C28.8,16.2490566 28.890566,15.3358491 28.890566,14.4301887 C28.8754717,6.4754717 22.4,0 14.445283,0 Z M26.6113208,16.7849057 C26.6113208,16.8 26.6037736,16.8150943 26.6037736,16.8301887 C26.5962264,16.8679245 26.5735849,16.9811321 26.5358491,17.154717 C26.5358491,17.1622642 26.5358491,17.1622642 26.5358491,17.1698113 C26.3471698,18.0150943 26.0679245,18.8377358 25.6981132,19.6301887 C25.690566,19.6377358 25.690566,19.6528302 25.6830189,19.6603774 C24.2716981,23.0037736 21.1773585,28.1056604 14.445283,33.6679245 C7.71320755,28.1056604 4.61886792,23.0037736 3.20754717,19.6603774 C3.2,19.6528302 3.2,19.6377358 3.19245283,19.6301887 C2.83018868,18.845283 2.5509434,18.0150943 2.35471698,17.1698113 C2.35471698,17.1622642 2.35471698,17.1622642 2.35471698,17.154717 C2.30943396,16.9811321 2.29433962,16.8679245 2.28679245,16.8301887 C2.28679245,16.8150943 2.27924528,16.8 2.27924528,16.7773585 C2.12830189,16 2.05283019,15.2150943 2.05283019,14.4226415 C2.05283019,7.59245283 7.61509434,2.03018868 14.445283,2.03018868 C21.2754717,2.03018868 26.8377358,7.59245283 26.8377358,14.4226415 C26.8377358,15.2226415 26.7622642,16.0150943 26.6113208,16.7849057 Z" id="Shape" fill="#253667" fill-rule="nonzero"></path>
                        <path d="M14.445283,5.42641509 C9.39622642,5.42641509 5.28301887,9.53962264 5.28301887,14.5886792 C5.28301887,19.6377358 9.39622642,23.7509434 14.445283,23.7509434 C19.4943396,23.7509434 23.6075472,19.6377358 23.6075472,14.5886792 C23.6075472,9.53962264 19.4943396,5.42641509 14.445283,5.42641509 Z M14.445283,21.7132075 C10.5132075,21.7132075 7.32075472,18.5132075 7.32075472,14.5886792 C7.32075472,10.6641509 10.5207547,7.46415094 14.445283,7.46415094 C18.3698113,7.46415094 21.5698113,10.6641509 21.5698113,14.5886792 C21.5698113,18.5132075 18.3773585,21.7132075 14.445283,21.7132075 Z" id="Shape" fill="#253667" fill-rule="nonzero"></path>
                        <path d="M14.445283,21.7132075 C10.5132075,21.7132075 7.32075472,18.5132075 7.32075472,14.5886792 C7.32075472,10.6641509 10.5207547,7.46415094 14.445283,7.46415094 C18.3698113,7.46415094 21.5698113,10.6641509 21.5698113,14.5886792 C21.5698113,18.5132075 18.3773585,21.7132075 14.445283,21.7132075 Z" id="Path" fill="#FFFFFF"></path>
                    </g>
                </g>
            </g>
        </g>
    </g>
</svg>