<?xml version="1.0" encoding="UTF-8"?>
<svg width="29px" height="36px" viewBox="0 0 29 36" version="1.1" xmlns="http://www.w3.org/2000/svg" xmlns:xlink="http://www.w3.org/1999/xlink">
    <!-- Generator: Sketch 50.2 (55047) - http://www.bohemiancoding.com/sketch -->
    <title>passport</title>
    <desc>Created with Sketch.</desc>
    <defs></defs>
    <g id="Form" stroke="none" stroke-width="1" fill="none" fill-rule="evenodd">
        <g id="form_documents2_UI_v2" transform="translate(-740.000000, -350.000000)" fill="#253667" fill-rule="nonzero">
            <g id="Group-3" transform="translate(69.000000, 198.000000)">
                <g transform="translate(45.000000, 128.000000)" id="Documnet3">
                    <g transform="translate(580.000000, 0.000000)">
                        <g id="Group-4" transform="translate(18.000000, 0.000000)">
                            <g id="passport" transform="translate(28.000000, 24.000000)">
                                <g id="passport-2">
                                    <path d="M21.4769758,27.5820242 L4.41406452,27.5820242 C4.09608871,27.5820242 3.83842742,27.8396855 3.83842742,28.1576613 C3.83842742,28.4756371 4.09608871,28.7332984 4.41406452,28.7332984 L21.4769758,28.7332984 C21.7949516,28.7332984 22.0526129,28.4756371 22.0526129,28.1576613 C22.0526129,27.8396855 21.794879,27.5820242 21.4769758,27.5820242 Z" id="Shape"></path>
                                    <path d="M6.25550806,18.6130161 C7.43189516,21.1304758 9.98833065,22.878871 12.9454839,22.878871 C15.9031452,22.878871 18.4597258,21.1300403 19.6358226,18.6119274 C19.6495403,18.5889194 19.6609355,18.5641694 19.6696452,18.5384032 C20.0904677,17.6111129 20.3248306,16.5821371 20.3248306,15.4993065 C20.3248306,14.2295081 20.0022823,13.0331613 19.4349919,11.9887258 C19.4235968,11.9604194 19.4087903,11.9338548 19.391371,11.9093952 C18.12825,9.65025 15.7124032,8.11974194 12.9454839,8.11974194 C10.1790726,8.11974194 7.76315323,9.65003226 6.50010484,11.9083065 C6.48195968,11.9334194 6.46693548,11.9606371 6.45517742,11.9897419 C5.93789516,12.9425081 5.62441935,14.0212016 5.57339516,15.1671774 C5.57303226,15.1734919 5.57274194,15.1800242 5.57259677,15.1863387 C5.56824194,15.290129 5.56599194,15.3944274 5.56599194,15.4992339 C5.56599194,16.581629 5.80028226,17.6101694 6.22066935,18.5371694 C6.22952419,18.5639516 6.24128226,18.5893548 6.25550806,18.6130161 Z M16.1685726,21.2689597 C16.4706532,20.4146855 16.7110403,19.5953226 16.8904597,18.7995484 L18.6734032,18.7995484 C18.0768629,19.8310645 17.2085806,20.6857016 16.1685726,21.2689597 Z M19.0530726,18.0319355 L17.0453468,18.0319355 C17.1941371,17.198129 17.274629,16.3843548 17.2841371,15.5774032 L19.5569274,15.5774032 C19.5469113,16.4457581 19.3685806,17.2741935 19.0530726,18.0319355 Z M19.5216532,14.8098629 L17.2721613,14.8098629 C17.2393548,14.0494355 17.1440565,13.2887903 16.9869194,12.5165323 L18.8456371,12.5165323 C19.2019355,13.2185323 19.4366613,13.9921694 19.5216532,14.8098629 Z M18.3882339,11.7489194 L16.811129,11.7489194 C16.6447742,11.0924274 16.4347984,10.4234516 16.1807661,9.73560484 C17.0604435,10.2313306 17.8164435,10.9215726 18.3882339,11.7489194 Z M13.3292903,8.89831452 C13.9841855,8.93598387 14.6138226,9.0693871 15.2044113,9.28473387 C15.2078952,9.31993548 15.2145726,9.35520968 15.2284355,9.38968548 C15.5560645,10.207379 15.8216371,10.9886371 16.0257339,11.7488468 L13.3292903,11.7488468 L13.3292903,8.89831452 Z M13.3292903,12.5165323 L16.2118306,12.5165323 C16.3800726,13.2923468 16.4797258,14.05125 16.5149274,14.8098629 L13.3292903,14.8098629 L13.3292903,12.5165323 Z M13.3292903,15.5774758 L16.5271935,15.5774758 C16.5170323,16.3819597 16.4309516,17.1943548 16.272,18.0320081 L13.3293629,18.0320081 L13.3293629,15.5774758 L13.3292903,15.5774758 Z M13.3292903,18.7995484 L16.1074597,18.7995484 C15.8937097,19.6963548 15.6032419,20.6269839 15.2259677,21.6190887 C15.2145,21.6492097 15.2084032,21.6798387 15.2047016,21.7104677 C14.6136774,21.9261774 13.9847661,22.062629 13.3292903,22.1002984 L13.3292903,18.7995484 Z M7.21749194,18.7995484 L9.0003629,18.7995484 C9.17978226,19.5953226 9.42009677,20.4146855 9.72210484,21.2688871 C8.68216935,20.6855565 7.81403226,19.8309919 7.21749194,18.7995484 Z M12.5616774,22.1002984 C11.9060565,22.0625565 11.2771452,21.9261048 10.6860484,21.7103952 C10.6824194,21.6798387 10.67625,21.6492097 10.6648548,21.6190887 C10.2875806,20.6269839 9.9971129,19.6963548 9.7833629,18.7995484 L12.56175,18.7995484 L12.56175,22.1002984 L12.5616774,22.1002984 Z M12.5616774,18.0319355 L9.61889516,18.0319355 C9.45994355,17.1942823 9.37379032,16.3818871 9.36370161,15.5774032 L12.56175,15.5774032 L12.56175,18.0319355 L12.5616774,18.0319355 Z M12.5616774,14.8098629 L9.37596774,14.8098629 C9.41116935,14.0511774 9.51082258,13.2922742 9.67906452,12.5165323 L12.56175,12.5165323 L12.56175,14.8098629 L12.5616774,14.8098629 Z M12.5616774,11.7489194 L9.86501613,11.7489194 C10.0691129,10.9886371 10.3346855,10.2074516 10.6623145,9.38975806 C10.6761774,9.35528226 10.6827823,9.32008065 10.6863387,9.28487903 C11.277,9.06945968 11.9067823,8.93605645 12.56175,8.8983871 L12.56175,11.7489194 L12.5616774,11.7489194 Z M9.70983871,9.73575 C9.45580645,10.4235242 9.24590323,11.0925 9.07954839,11.7489194 L7.50258871,11.7489194 C8.07437903,10.9216452 8.83030645,10.2314758 9.70983871,9.73575 Z M7.04533065,12.5165323 L8.90397581,12.5165323 C8.74676613,13.2887903 8.65154032,14.0494355 8.61873387,14.8098629 L6.36924194,14.8098629 C6.45423387,13.9921694 6.6888871,13.2185323 7.04533065,12.5165323 Z M8.60668548,15.5774758 C8.61619355,16.3844274 8.6966129,17.1982016 8.84540323,18.0320081 L6.83775,18.0320081 C6.52231452,17.2741935 6.34398387,16.4458306 6.33389516,15.5774758 L8.60668548,15.5774758 Z" id="Shape"></path>
                                    <path d="M25.7299839,0 C25.7201855,0 25.7105323,0.000362903226 25.7007339,0.00116129032 C23.6223871,0.159677419 21.1907177,0.319427419 18.6164274,0.488467742 C13.235371,0.841935484 7.15202419,1.24207258 2.58147581,1.74948387 C1.14800806,1.8315 0.00609677419,3.02015323 0.00609677419,4.47379839 L0.00609677419,33.237871 C0.00609677419,34.7445 1.23176613,35.9701694 2.73839516,35.9701694 L23.1525,35.9701694 C24.4515484,35.9701694 25.53975,35.0579032 25.8153387,33.8409435 C27.1765161,33.7953629 28.2705242,32.67675 28.2705242,31.3046855 L28.2705242,2.5406129 C28.2705968,1.13973387 27.1308629,0 25.7299839,0 Z M24.7334516,33.2379435 C24.7334516,34.1097097 24.0243387,34.8189677 23.1525726,34.8189677 L2.73832258,34.8189677 C1.86655645,34.8189677 1.15729839,34.1097097 1.15729839,33.2379435 L1.15729839,4.47379839 C1.15729839,3.60203226 1.86655645,2.89277419 2.73832258,2.89277419 L23.1525,2.89277419 C24.0242661,2.89277419 24.733379,3.60203226 24.733379,4.47379839 L24.733379,33.2379435 L24.7334516,33.2379435 Z M27.5029839,31.3046855 C27.5029839,32.2301613 26.7900242,32.9910968 25.8846532,33.0698468 L25.8846532,4.47379839 C25.8846532,2.96716935 24.6589839,1.7415 23.1525,1.7415 L11.5048306,1.7415 C13.9042016,1.56737903 16.35075,1.40646774 18.6667984,1.25433871 C21.236879,1.08551613 23.6647016,0.92591129 25.7438468,0.767540323 C26.715121,0.77508871 27.5029839,1.56752419 27.5029839,2.54054032 L27.5029839,31.3046855 Z" id="Shape"></path>
                                </g>
                            </g>
                        </g>
                    </g>
                </g>
            </g>
        </g>
    </g>
</svg>